<?xml version="1.0" encoding="UTF-8" standalone="no"?>
<!-- Created with Inkscape (http://www.inkscape.org/) -->

<svg
   width="210mm"
   height="297mm"
   viewBox="0 0 210 297"
   version="1.1"
   id="svg1"
   xml:space="preserve"
   sodipodi:docname="blue_wheeled_robot.svg"
   inkscape:version="1.3.2 (091e20e, 2023-11-25, custom)"
   xmlns:inkscape="http://www.inkscape.org/namespaces/inkscape"
   xmlns:sodipodi="http://sodipodi.sourceforge.net/DTD/sodipodi-0.dtd"
   xmlns="http://www.w3.org/2000/svg"
   xmlns:svg="http://www.w3.org/2000/svg"><sodipodi:namedview
     id="namedview1"
     pagecolor="#ffffff"
     bordercolor="#000000"
     borderopacity="0.25"
     inkscape:showpageshadow="2"
     inkscape:pageopacity="0.0"
     inkscape:pagecheckerboard="0"
     inkscape:deskcolor="#d1d1d1"
     inkscape:document-units="mm"
     inkscape:zoom="0.99864618"
     inkscape:cx="396.53684"
     inkscape:cy="538.22866"
     inkscape:window-width="2880"
     inkscape:window-height="1514"
     inkscape:window-x="-11"
     inkscape:window-y="-11"
     inkscape:window-maximized="1"
     inkscape:current-layer="layer1" /><defs
     id="defs1" /><g
     inkscape:label="Layer 1"
     inkscape:groupmode="layer"
     id="layer1"><rect
       style="fill:#00009a;fill-opacity:1;stroke-width:0.264999"
       id="rect385"
       width="120.01872"
       height="92.199829"
       x="-171.84402"
       y="112.33542"
       ry="16.426409"
       rx="11.922391"
       transform="scale(-1,1)" /><circle
       style="fill:#525252;fill-opacity:1;stroke-width:0.264999"
       id="path385"
       cx="-161.77623"
       cy="201.88582"
       r="34.177521"
       transform="scale(-1,1)" /><circle
       style="fill:#525252;fill-opacity:1;stroke-width:0.264999"
       id="path385-5"
       cx="-73.933838"
       cy="202.49161"
       r="34.177521"
       transform="scale(-1,1)" /><rect
       style="fill:#5f8de9;fill-opacity:1;stroke-width:0.264999"
       id="rect386"
       width="85.046379"
       height="51.663692"
       x="-162.57104"
       y="51.663692"
       rx="11.922391"
       ry="16.426409"
       transform="scale(-1,1)" /><path
       id="path13"
       style="fill:#000000"
       d="m 175.63734,234.21682 c 2.57251,0.007 6.69172,-3.05012 9.97733,-6.09513 5.99033,-5.55166 10.10687,-13.21965 11.4247,-21.28107 0.49543,-3.03064 0.49249,-5.01898 -0.0124,-8.38047 -1.24999,-8.3223 -3.42648,-13.29915 -8.39688,-19.20061 -2.24834,-2.66951 -4.03988,-4.32608 -6.8835,-6.36491 -2.88618,-2.06933 -4.28355,-2.85844 -7.17045,-4.04925 l -2.41308,-0.99535 -0.13591,-21.38283 c -0.1239,-19.49381 -0.17755,-21.52307 -0.60724,-22.97032 -0.88679,-2.98683 -2.08285,-5.21831 -3.72195,-6.94403 -1.7838,-1.87806 -3.04927,-2.69599 -5.39238,-3.48532 -1.49047,-0.50211 -2.24478,-0.55086 -8.52271,-0.55086 h -6.88751 v -3.04271 -3.04271 h 1.01601 c 1.44432,0 4.91112,-0.93448 6.8736,-1.85278 2.36407,-1.10622 5.6813,-3.51276 6.66094,-4.832292 1.55638,-2.096367 2.88784,-5.223882 3.21808,-7.559057 l 0.30657,-2.167852 1.56413,-0.70194 c 2.59141,-1.162955 4.94534,-4.286555 5.94526,-7.8892 0.20195,-0.727605 0.4367,-2.692136 0.52166,-4.365625 0.13502,-2.65927 0.0803,-3.292777 -0.43396,-5.027083 -0.32364,-1.091407 -0.95328,-2.673986 -1.3992,-3.516843 -0.99837,-1.887104 -3.47386,-4.234453 -5.00321,-4.744236 -0.99833,-0.332776 -1.15508,-0.495945 -1.34235,-1.397262 -0.32491,-1.563803 -2.36105,-5.634711 -3.70489,-7.407283 -2.02745,-2.674274 -5.13905,-4.730317 -8.75333,-5.783912 -1.8708,-0.545355 -2.31353,-0.553702 -31.53077,-0.594442 l -29.633335,-0.04132 -2.51354,0.639889 c -4.86414,1.238298 -8.07658,3.37025 -10.48267,6.956896 l -1.159,1.727656 v -7.570873 -7.570873 l 0.75719,-0.151438 c 1.11326,-0.222651 3.60649,-2.630296 4.39702,-4.246071 0.37383,-0.764083 0.75078,-1.989475 0.83766,-2.723094 0.13614,-1.149502 0.0381,-1.58509 -0.70959,-3.151686 -1.47289,-3.086144 -4.16185,-5.313163 -6.77026,-5.607169 -2.5026,-0.282079 -6.16452,1.460126 -7.58698,3.6096 -0.99378,1.501708 -1.6031,3.824121 -1.41656,5.399192 0.29772,2.513762 2.3731,5.54246 4.41532,6.443488 l 1.04912,0.462869 0.007,1.999602 c 0.004,1.099782 0.0185,5.799195 0.0321,10.443141 l 0.0248,8.443538 -1.02428,0.393024 c -4.98847,1.914112 -8.01679,8.170508 -7.25624,14.991147 0.71147,6.380579 4.00027,10.564306 9.1518,11.642146 2.12263,0.444113 2.23836,0.523725 2.24511,1.544407 0.007,1.129016 1.04453,4.001476 1.9765,5.474489 0.41431,0.654843 1.41776,1.889566 2.22988,2.743827 3.91045,4.11337 8.32665,6.24251 12.28907,5.92482 l 1.62293,-0.13012 v 3.07292 3.07293 l -15.21354,0.13229 -15.21354,0.13229 -1.7198,0.77821 c -3.84928,1.74181 -6.60579,4.14377 -7.95578,6.93248 -1.341,2.77014 -1.65077,4.48096 -1.81199,10.00737 l -0.1541,5.28264 -2.38125,0.30067 c -1.30969,0.16536 -2.8575,0.50278 -3.43958,0.7498 -2.08758,0.88594 -4.31023,2.55243 -5.26401,3.94681 -1.07768,1.57552 -2.27662,4.59336 -2.27662,5.73044 0,0.68272 -0.11545,0.79738 -0.96289,0.95637 -0.5296,0.0993 -3.79052,0.12234 -7.24651,0.0511 -3.51682,-0.0725 -6.47137,-0.0245 -6.71003,0.10909 -0.23452,0.13125 -0.60938,0.59245 -0.83301,1.0249 -0.36616,0.70807 -0.36573,0.87237 0.004,1.65212 0.79884,1.68343 1.06269,1.73049 8.80284,1.57008 4.02579,-0.0834 6.95241,-0.0442 6.9622,0.0935 0.35896,5.04543 3.18572,9.08031 7.21764,10.30238 0.75044,0.22746 2.39472,0.48378 3.65396,0.56961 2.28405,0.15568 2.28991,0.15794 2.4474,0.94537 0.0868,0.43412 0.15786,3.22144 0.15786,6.19404 v 5.40473 l -2.18281,2.17902 c -5.28411,5.2749 -8.82687,12.11999 -9.84197,19.01601 -0.40845,2.77475 -0.55905,8.95551 -0.26295,10.79187 0.34501,2.13979 1.216,5.42288 1.91889,7.23303 2.46207,6.34061 7.46107,12.74545 12.70058,16.27228 1.91839,1.29132 5.53879,3.22525 6.10094,3.2362 39.96602,0.77844 81.256935,0.1389 115.824465,0.23774 z m -87.744065,0.27276 c 0.21828,-0.14107 0.60077,-0.2583 0.84997,-0.26053 0.97651,-0.009 3.49495,-1.17368 5.77754,-2.67252 4.83799,-3.17679 9.503135,-8.53336 12.201135,-14.00947 1.4847,-3.01347 2.17444,-5.01638 2.76825,-8.03857 l 0.44621,-2.27099 h 7.99224 7.99224 l 0.45627,2.29748 c 0.87887,4.42537 3.11584,9.40039 5.93616,13.20206 1.79404,2.41828 5.17738,5.78418 7.80382,7.76359 1.9119,1.4409 5.65791,3.45978 6.41959,3.45978 0.24577,0 0.35761,0.0893 0.24854,0.19844 -0.10908,0.10914 -12.12447,0.26143 -26.70087,0.33843 -14.57641,0.077 -27.871775,0.16446 -29.545265,0.19438 -2.04262,0.0365 -2.91226,-0.0299 -2.64583,-0.20208 z m 70.246875,-1.84807 c -2.93759,-0.31013 -6.70414,-1.24967 -9.60155,-2.39503 -7.11386,-2.81213 -12.73963,-8.70985 -16.1318,-16.91162 -2.54231,-6.14692 -2.79537,-13.44726 -0.70661,-20.38442 1.13124,-3.75709 4.43868,-9.07969 7.58289,-12.203 4.50918,-4.47923 9.70223,-7.27655 16.00293,-8.62025 2.89371,-0.61712 3.97675,-0.71887 7.48434,-0.70319 5.19926,0.0232 7.89955,0.66739 12.56771,2.99797 3.85527,1.92475 5.9697,3.48704 8.9311,6.59897 3.58933,3.77177 5.86162,7.90244 7.26528,13.20712 0.61114,2.30964 0.67988,3.07291 0.70696,7.85006 0.0271,4.78088 -0.0284,5.49333 -0.5751,7.3808 -3.45791,11.93865 -11.37731,19.64739 -23.03596,22.42317 -4.04259,0.9625 -6.72637,1.15678 -10.49019,0.75942 z m 7.41453,-5.82107 c 8.01306,-1.1814 14.84594,-6.16458 18.50767,-13.49753 1.0614,-2.12555 1.97034,-4.51218 2.16645,-5.68854 0.0485,-0.29104 0.2189,-1.24354 0.37863,-2.11666 0.73768,-4.03257 -0.3168,-10.12483 -2.51876,-14.55209 -4.75748,-9.56535 -15.10441,-15.34487 -25.26876,-14.11444 -2.54697,0.30832 -6.55989,1.50458 -8.74956,2.60825 -3.54746,1.78806 -7.34382,5.21706 -9.63828,8.70563 -2.23856,3.40356 -2.68967,4.34811 -3.51903,7.36831 -0.62987,2.29375 -0.70742,3.03986 -0.70772,6.80934 -3.8e-4,4.64837 0.24454,6.00184 1.73317,9.57769 1.2251,2.94281 3.07043,5.52237 5.85137,8.17952 3.09784,2.95993 6.61776,4.91975 11.17529,6.22214 2.02218,0.57788 8.10772,0.86428 10.58953,0.49838 z m -10.8854,-5.07493 c -3.19266,-0.96626 -5.97599,-2.64959 -8.30799,-5.02459 -3.72199,-3.79059 -5.46777,-7.89438 -5.7411,-13.49553 -0.27979,-5.73359 1.31749,-10.43109 5.05428,-14.86435 1.1903,-1.41215 4.61045,-4.10064 6.33736,-4.98165 5.18384,-2.6446 12.20321,-2.9433 17.47832,-0.74377 5.77689,2.40876 9.86609,6.66525 11.83955,12.3239 0.81067,2.32451 0.81258,2.34347 0.69024,6.84145 -0.1378,5.06602 -0.53352,6.81268 -2.25075,9.93444 -3.15713,5.7394 -7.51161,9.04825 -13.72431,10.42876 -2.84296,0.63172 -8.60577,0.41963 -11.3756,-0.41866 z m 9.68857,-7.11526 c 3.66053,-0.62955 7.0687,-3.26436 8.74143,-6.75787 2.53043,-5.28483 1.75035,-10.10402 -2.33685,-14.43666 -1.89453,-2.00831 -3.16307,-2.86434 -5.36738,-3.62201 -4.68415,-1.61004 -9.55451,-0.4548 -13.05555,3.09676 -2.49395,2.52993 -3.50535,4.36008 -4.09841,7.41616 -0.59052,3.04304 0.29113,6.1357 2.66341,9.34274 1.69213,2.28755 2.84552,3.28148 4.95164,4.26706 1.49272,0.69852 2.04862,0.80926 4.37816,0.8721 1.46759,0.0396 3.32319,-0.0406 4.12355,-0.17828 z m -7.08383,-5.02739 c -2.98089,-1.46749 -4.5303,-4.35044 -4.20578,-7.8256 0.55254,-5.91709 5.7734,-9.32394 11.53873,-7.52957 2.06495,0.64269 3.10515,1.45274 4.19298,3.26526 0.74014,1.23322 0.89267,1.78165 1.02044,3.66902 0.18207,2.68924 -0.40338,4.54968 -2.00389,6.36795 -1.04205,1.18383 -3.17612,2.5175 -4.63288,2.89527 -1.54293,0.40011 -4.13686,0.0304 -5.9096,-0.84233 z m 6.42238,-2.54042 c 2.12971,-1.12276 3.0427,-2.72236 3.0427,-5.33095 0,-1.61375 -0.093,-1.95125 -0.81007,-2.94121 -0.88835,-1.22633 -2.51662,-2.12101 -3.87703,-2.13031 -1.33404,-0.009 -3.2982,0.75968 -4.27489,1.67322 -1.05507,0.98685 -1.872,2.62564 -1.88011,3.7716 -0.014,1.98406 1.2951,4.11408 3.00618,4.89111 1.34143,0.60917 3.70177,0.64194 4.79322,0.0665 z m -2.98384,-3.94099 c -1.09361,-0.76599 -0.61071,-2.23395 0.73488,-2.23395 1.31826,0 1.75248,1.15793 0.79375,2.11666 -0.63699,0.63699 -0.77188,0.64734 -1.52863,0.11729 z m -93.753775,28.88583 c -4.80058,-1.26682 -7.17094,-2.32894 -10.41863,-4.66843 -5.16349,-3.71952 -9.87218,-10.14562 -11.74166,-16.02419 -1.63089,-5.12833 -1.62751,-12.08283 0.009,-17.7032 3.32378,-11.41787 13.06136,-19.74998 25.67588,-21.96997 6.78317,-1.19375 13.85781,0.36029 20.58556,4.52191 4.53201,2.80338 8.89656,7.65149 11.325205,12.57994 2.29073,4.64857 3.14081,9.13734 2.89756,15.30021 -0.46589,11.80325 -7.985655,22.38453 -18.893605,26.58571 -1.95654,0.75356 -4.71078,1.45523 -8.29401,2.11298 -0.3638,0.0668 -2.4474,0.0799 -4.63021,0.0291 -3.19605,-0.0743 -4.46444,-0.22307 -6.5147,-0.76411 z m 11.40949,-5.11062 c 5.07246,-0.86288 10.23417,-3.28877 13.55453,-6.37032 3.33664,-3.09665 6.55352,-8.62171 7.50616,-12.89197 0.0974,-0.43656 0.23196,-2.42804 0.29905,-4.42551 0.14318,-4.26317 -0.27117,-6.817 -1.64433,-10.13475 -1.52022,-3.67306 -2.95078,-5.79042 -5.92911,-8.77561 -8.07985,-8.09846 -20.0868,-9.72983 -30.15841,-4.09761 -4.06732,2.27452 -8.15631,6.53745 -10.24054,10.67618 -3.57191,7.09286 -3.49341,15.87983 0.20574,23.03119 0.77392,1.49618 1.79477,2.81751 3.82656,4.95288 3.075,3.23176 5.26486,4.7688 8.91367,6.25641 3.80113,1.5497 5.90268,1.96846 9.67411,1.92766 1.83211,-0.0198 3.62877,-0.0867 3.99257,-0.14855 z m -9.96029,-4.85232 c -5.89096,-1.50666 -11.21677,-6.39634 -13.61787,-12.5027 -0.80972,-2.05927 -0.86009,-2.39372 -0.97163,-6.45178 -0.11029,-4.01237 -0.0746,-4.43014 0.57157,-6.68266 1.32407,-4.61594 3.68278,-8.09791 7.37483,-10.88689 4.12861,-3.11875 7.48409,-4.21198 12.92789,-4.21198 2.91385,0 3.68854,0.0961 5.58007,0.69255 6.97361,2.19877 11.99562,6.86835 14.15794,13.16437 0.69101,2.01199 0.73772,2.42279 0.72598,6.38371 -0.0144,4.85467 -0.3342,6.42722 -1.97757,9.72391 -2.55091,5.11729 -6.4215,8.56357 -11.557,10.2901 -4.03505,1.35656 -9.07445,1.54014 -13.21421,0.48137 z m 8.90196,-7.14793 c 2.20731,-0.38201 4.93666,-1.84608 6.66087,-3.57303 4.48445,-4.49155 5.12652,-10.97711 1.60073,-16.16907 -4.49737,-6.62267 -13.03193,-8.09164 -19.10791,-3.28885 -3.75704,2.96977 -5.51068,6.69903 -5.22757,11.11688 0.16481,2.57177 0.9009,4.45395 2.64302,6.75816 2.78897,3.68884 5.41759,5.14421 9.5944,5.31205 1.30969,0.0526 3.03609,-0.0176 3.83646,-0.15614 z m -7.18128,-5.03223 c -3.34957,-1.70882 -4.87333,-4.95984 -4.19887,-8.95849 0.78065,-4.62825 4.56062,-7.63354 9.26348,-7.365 3.34325,0.19091 5.76817,1.77451 7.24002,4.72814 0.59292,1.18983 0.69748,1.7448 0.69748,3.70208 0,2.05608 -0.0868,2.46809 -0.81106,3.85066 -0.44608,0.85152 -1.18873,1.94025 -1.65034,2.4194 -2.37481,2.46507 -7.37977,3.23581 -10.54071,1.62321 z m 5.01586,-2.39967 c 2.14237,-0.38529 3.97799,-1.99765 4.47552,-3.93118 0.29102,-1.13102 -0.0441,-3.168 -0.74838,-4.54845 -0.64776,-1.26971 -2.60938,-2.33072 -4.30912,-2.33072 -4.87429,0 -7.57356,5.78407 -4.24046,9.08655 1.45565,1.44227 3.10654,2.03239 4.82244,1.7238 z m -1.81391,-4.41571 c -1.19988,-0.9716 0.18845,-2.91571 1.55855,-2.18246 0.96866,0.51842 1.15581,1.19904 0.54367,1.97726 -0.63853,0.81175 -1.27628,0.87401 -2.10222,0.2052 z m 46.091515,-0.47745 c -0.79326,0.12848 -1.50377,0.12848 -1.62176,0 -0.1155,-0.12575 -0.14922,-2.38452 -0.0749,-5.01948 l 0.13505,-4.79084 2.80963,-0.13038 c 1.54529,-0.0717 3.524,-0.059 4.39712,0.0283 1.38492,0.13846 1.58027,0.22624 1.53086,0.68788 -0.0311,0.29104 -0.23952,1.89344 -0.46303,3.56089 -0.2235,1.66744 -0.40637,3.59229 -0.40637,4.27743 0,0.68514 -0.11674,1.2854 -0.25942,1.3339 -0.14269,0.0485 -1.24402,0.0287 -2.4474,-0.0441 -1.20338,-0.0728 -2.82327,-0.0294 -3.59974,0.0964 z m -9.30386,-1.22777 c 0,-0.76781 -0.1091,-2.34538 -0.24244,-3.50573 -0.13334,-1.16035 -0.31297,-2.79434 -0.39919,-3.63108 l -0.15674,-1.52136 h 2.07976 2.07976 l 0.16992,2.18282 c 0.0935,1.20054 0.17064,3.39566 0.17151,4.87802 l 0.002,2.69522 -0.8599,0.10671 c -0.47294,0.0587 -1.30638,0.12577 -1.85208,0.14906 l -0.99219,0.0423 z m -1.74998,-13.05836 c -0.62564,-0.10868 -0.96928,-0.40827 -1.42789,-1.2449 -0.95812,-1.74787 -3.13612,-4.89905 -4.83071,-6.98918 -3.030585,-3.73797 -7.790975,-7.40318 -12.496625,-9.62163 l -2.91041,-1.37209 0.0242,-22.11881 c 0.0177,-16.14226 0.10941,-22.46756 0.33945,-23.4095 0.59845,-2.45042 2.45838,-4.82145 4.67683,-5.96199 2.23057,-1.14677 2.64349,-1.15812 35.969895,-0.98876 31.04105,0.15774 31.7857,0.17341 33.34854,0.70134 2.30629,0.77907 4.02928,2.3821 5.1647,4.80508 l 0.90968,1.94126 0.0722,21.50744 0.0722,21.50744 -3.37947,-0.17354 c -8.17762,-0.41993 -15.64508,1.54293 -22.11446,5.81291 -3.99895,2.63942 -8.63425,7.79358 -11.71345,13.02463 -0.67524,1.14714 -1.33965,2.22421 -1.47644,2.3935 -0.18051,0.22338 -2.87553,0.31083 -9.82651,0.31886 -5.26778,0.006 -9.94855,-0.0533 -10.40172,-0.13206 z m 21.71682,-7.26888 c 0.65826,-0.57796 0.93525,-1.04368 0.93525,-1.5725 0,-1.08102 -0.85219,-1.57509 -2.71674,-1.57509 -1.28297,0 -1.64927,0.10862 -2.19008,0.64943 -0.79367,0.79367 -0.8285,1.69739 -0.10106,2.62218 0.45891,0.58342 0.75953,0.69714 1.84287,0.69714 1.07066,0 1.45623,-0.142 2.22976,-0.82116 z m -8.66628,0.22585 c 0.89129,-0.9738 0.96554,-1.64568 0.27108,-2.45304 -0.53506,-0.62204 -0.86909,-0.73687 -2.47849,-0.85203 -1.78644,-0.12781 -1.88281,-0.1042 -2.43391,0.59641 -0.7468,0.9494 -0.73189,2.0049 0.0385,2.72868 0.49929,0.46906 0.93047,0.57529 2.33513,0.57529 1.44874,0 1.80944,-0.0947 2.26765,-0.59531 z m -9.37781,0.13229 c 0.68769,-0.76309 0.83369,-1.8423 0.34927,-2.58162 -0.4004,-0.61109 -0.58603,-0.65953 -2.5277,-0.65953 -1.86556,0 -2.14077,0.0645 -2.50744,0.58804 -0.61594,0.87937 -0.52925,2.21017 0.17616,2.70425 0.86074,0.60289 3.9519,0.56784 4.50971,-0.0511 z M 92.420815,167.94697 c 0.80673,-0.43845 1.41388,-1.7169 1.17412,-2.47231 -0.62068,-1.9556 -2.2078,-2.43615 -3.56464,-1.07931 -1.24559,1.24559 -1.03142,2.75504 0.50352,3.54879 0.92947,0.48064 1.00762,0.48076 1.887,0.003 z m 39.069835,-0.39833 c 2.87455,-0.60479 5.70406,-2.87055 7.09211,-5.67909 0.80169,-1.62211 0.98181,-2.30519 1.09427,-4.14991 0.16557,-2.71591 -0.30908,-4.53436 -1.77596,-6.8039 -1.97389,-3.054 -4.8086,-4.44301 -8.56797,-4.19834 -4.32211,0.28129 -7.0102,2.01926 -8.83633,5.71307 -0.91877,1.85845 -0.98576,2.15686 -0.98534,4.38958 5.4e-4,2.92343 0.34301,4.12357 1.79176,6.27902 2.35153,3.49863 6.36841,5.25308 10.18746,4.44957 z m -3.53202,-4.39994 c -3.07376,-1.01968 -4.19165,-2.76172 -4.04177,-6.29844 0.0765,-1.80498 0.20871,-2.34821 0.78259,-3.21508 0.97618,-1.47456 2.62204,-2.54211 4.1448,-2.68843 3.44216,-0.33075 6.00259,1.81949 6.54025,5.49249 0.38043,2.59892 -1.69908,5.73401 -4.44993,6.70874 -1.43356,0.50797 -1.44683,0.50798 -2.97594,7.2e-4 z m -20.43581,2.44397 c 4.11693,-1.10839 6.47773,-5.69361 5.08361,-9.87353 -1.40515,-4.213 -7.40456,-5.87421 -11.40771,-3.15873 -1.763725,1.19639 -2.304635,2.40133 -2.416395,5.38284 -0.0845,2.25477 -0.037,2.53124 0.65255,3.7982 0.976875,1.79485 2.750035,3.32946 4.420055,3.8254 1.57188,0.4668 2.01828,0.46994 3.66789,0.0258 z m -2.81571,-5.03173 c -1.07836,-0.45057 -1.54017,-1.22916 -1.54017,-2.59665 0,-2.75888 3.99249,-3.43907 5.20374,-0.88655 0.39426,0.83086 0.39962,1.02422 0.0514,1.85758 -0.36933,0.88392 -1.74987,1.99698 -2.47952,1.99911 -0.18657,5.4e-4 -0.74253,-0.16753 -1.23547,-0.37349 z m 53.6308,0.73916 c 0.94626,-0.4958 1.60202,-1.77942 1.39366,-2.72806 -0.16484,-0.75052 -1.16168,-1.84988 -2.12415,-2.34261 -0.293,-0.15 -2.77331,-0.31338 -5.5118,-0.36306 l -4.97907,-0.0903 -0.75787,0.8482 c -1.37908,1.54343 -1.29175,3.52981 0.19811,4.50601 0.8697,0.56984 10.74594,0.71223 11.78112,0.16985 z m -65.703395,-2.4152 c 0.31158,-0.25467 0.63318,-0.87978 0.71466,-1.38915 0.32734,-2.04635 -1.88788,-3.16421 -3.43289,-1.73234 -0.9304,0.86227 -0.9051,1.83271 0.0733,2.81111 0.8811,0.88109 1.81285,0.99043 2.64493,0.31038 z m -0.14671,-8.28744 c 0.50494,-0.39719 0.69714,-0.79241 0.69714,-1.43357 0,-1.24894 -0.22093,-1.68606 -1.07553,-2.12799 -1.38392,-0.71565 -2.89322,0.32401 -2.89322,1.99296 0,0.78704 0.15934,1.14557 0.69714,1.5686 0.38342,0.30161 0.96268,0.54837 1.28723,0.54837 0.32455,0 0.90381,-0.24676 1.28724,-0.54837 z m 66.351155,-1.25363 c 1.41528,-0.99186 1.66014,-3.0618 0.51403,-4.34538 l -0.77153,-0.86407 -5.56827,-0.0809 c -6.0606,-0.0881 -6.34203,-0.035 -7.18934,1.35457 -0.73846,1.2111 -0.66342,2.38946 0.21475,3.3723 l 0.73074,0.81784 5.7874,0.0462 c 4.40603,0.0352 5.9055,-0.0365 6.28222,-0.30057 z m -66.242055,-7.07654 c 0.79786,-0.55885 0.83121,-2.46104 0.0555,-3.16309 -0.74224,-0.67171 -1.98084,-0.61043 -2.77687,0.13741 -0.8093,0.7603 -0.85135,1.79913 -0.11093,2.74042 0.63875,0.81204 1.89904,0.93897 2.83234,0.28526 z m 15.456765,-2.07505 c 4.38133,-1.17948 7.63252,-6.20839 6.81655,-10.5438 -0.81787,-4.34553 -4.30895,-7.42456 -8.45612,-7.45806 -3.18214,-0.0257 -6.692415,2.17705 -8.128045,5.10048 -0.63973,1.30269 -0.73517,1.80771 -0.73305,3.87893 0.002,2.06468 0.0957,2.55713 0.70409,3.70417 1.47812,2.78686 3.437745,4.49427 6.047775,5.26936 1.65407,0.49121 2.08499,0.49683 3.7488,0.0489 z m -4.3102,-5.05428 c -1.20292,-0.77635 -1.82728,-2.08258 -1.82728,-3.82286 0,-1.5316 0.39744,-2.46087 1.49773,-3.50191 1.46989,-1.39074 3.40991,-1.66178 4.85496,-0.67829 2.65066,1.80403 3.01714,5.05245 0.83403,7.39286 -1.52816,1.63826 -3.43083,1.85489 -5.35944,0.6102 z m 28.87688,4.81697 c 1.2826,-0.48038 3.21354,-1.8413 4.10038,-2.88991 0.40381,-0.47748 1.04137,-1.52299 1.41679,-2.32335 0.58594,-1.24917 0.68167,-1.8111 0.67611,-3.96875 -0.005,-2.05001 -0.12009,-2.76859 -0.62255,-3.89653 -1.82437,-4.0954 -7.35271,-6.14914 -11.4504,-4.25376 -3.46481,1.60265 -5.34523,4.50682 -5.36597,8.28735 -0.0102,1.86358 0.091,2.32991 0.83232,3.83646 1.7999,3.65757 4.0694,5.31729 7.48027,5.47045 1.22776,0.0551 2.35532,-0.0456 2.93305,-0.26196 z m -4.22745,-4.27772 c -2.56909,-1.32853 -3.47217,-5.16796 -1.74743,-7.42921 1.06517,-1.39651 2.15455,-1.97085 3.74045,-1.97201 2.4068,-0.002 3.97463,1.51848 4.22839,4.10005 0.20332,2.06841 -0.54576,3.58681 -2.38217,4.82865 -1.41125,0.95434 -2.61986,1.10309 -3.83924,0.47252 z m 26.80069,1.32796 c 2.76845,-1.35621 4.25577,-3.7288 4.23858,-6.76142 -0.0122,-2.15805 -0.87484,-3.96928 -2.62345,-5.50846 -1.72818,-1.52121 -3.39859,-2.03204 -5.45831,-1.66923 -3.93083,0.6924 -6.2491,3.60065 -5.99698,7.52314 0.17868,2.77986 1.96323,5.49319 4.32005,6.56843 1.54289,0.7039 3.9052,0.63865 5.52011,-0.15246 z m -4.61442,-4.88898 c -1.677,-1.677 -0.49756,-4.76144 1.82664,-4.77697 1.33099,-0.009 2.42704,1.19829 2.42704,2.67314 0,0.91511 -0.16217,1.29956 -0.84565,2.00473 -1.12186,1.15747 -2.31496,1.19217 -3.40803,0.0991 z m -58.254125,1.57004 c 0.84649,-0.51611 1.01598,-1.00666 0.86949,-2.51644 -0.0684,-0.7045 -0.77021,-1.38146 -1.65658,-1.59783 -0.58117,-0.14186 -0.87613,-0.0208 -1.52135,0.62443 -1.46644,1.46643 -0.6441,3.97263 1.31625,4.01151 0.0728,0.001 0.51925,-0.23331 0.99219,-0.52167 z m 70.405555,-9.13817 c 1.42809,-1.20166 1.27387,-3.13319 -0.33429,-4.18689 -0.99912,-0.65465 -1.94215,-0.54193 -2.82131,0.33723 -1.11835,1.11835 -1.07297,2.41952 0.12619,3.61868 1.08518,1.08519 1.93705,1.15014 3.02941,0.23098 z m -68.355035,0.41848 c 0.84121,-0.3443 1.46528,-1.19445 1.63229,-2.22358 0.13565,-0.8359 0.0408,-1.06548 -0.7786,-1.8849 -1.45069,-1.45068 -3.53863,-1.06019 -4.31912,0.80778 -0.33388,0.79909 -0.33195,1.00683 0.0156,1.67885 0.79456,1.53651 2.12743,2.16312 3.44987,1.62185 z m -38.50254,40.53294 c -0.111,-17.71868 0.0174,-38.17286 0.24696,-39.35677 0.39518,-2.03769 1.00947,-3.57753 2.01076,-5.04039 1.02579,-1.49866 1.75387,-2.10121 3.84629,-3.18316 l 1.44228,-0.74577 10.98021,-0.202 c 6.03912,-0.1111 11.18897,-0.25486 11.44412,-0.31945 0.2957,-0.0749 0.0664,0.32934 -0.63251,1.11479 -1.11627,1.25454 -2.63305,4.20304 -3.01857,5.86783 -0.11726,0.50636 -0.22202,10.52499 -0.23281,22.26363 -0.0108,11.73864 -0.0832,21.40662 -0.16094,21.48439 -0.0777,0.0778 -1.20883,-0.0446 -2.51355,-0.27196 -3.47975,-0.60639 -9.45883,-0.36642 -12.8335,0.51506 -2.65638,0.69387 -7.73762,2.66904 -9.27089,3.60377 -0.49792,0.30355 -0.98702,0.55235 -1.0869,0.55289 -0.0999,5.5e-4 -0.1993,-2.82674 -0.22095,-6.28286 z m 15.52825,-5.61163 c 2.53623,-0.60409 4.90047,-3.1763 5.81685,-6.32855 0.81186,-2.7927 -0.045,-5.82109 -2.37677,-8.40045 -1.6702,-1.84752 -2.72201,-2.3065 -5.33662,-2.32879 -1.80068,-0.0154 -2.34022,0.0917 -3.61412,0.71705 -4.21108,2.06719 -5.99629,6.2299 -4.42573,10.31981 0.88996,2.31756 3.81725,5.26725 5.81642,5.86094 1.47575,0.43825 2.74481,0.48753 4.11997,0.15999 z m -3.59752,-5.50128 c -1.94671,-0.99265 -2.65879,-3.19842 -1.55664,-4.82194 1.82768,-2.69227 4.99031,-2.79204 6.56634,-0.20715 1.87071,3.06821 -1.74228,6.69519 -5.0097,5.02909 z m 4.2922,-14.13986 c 2.09639,-0.73827 3.1457,-1.58401 4.21213,-3.39497 2.21866,-3.76762 1.94585,-7.30099 -0.84957,-11.00349 -1.50718,-1.99625 -3.41953,-2.88821 -6.12702,-2.85777 -1.63208,0.0183 -2.30815,0.16114 -3.48206,0.73548 -2.80457,1.37215 -4.66767,4.30794 -4.88523,7.69796 -0.10657,1.66066 -0.0303,2.06854 0.67993,3.63487 0.9035,1.99263 2.59862,3.84609 4.32968,4.73411 1.66795,0.85564 4.40499,1.05853 6.12214,0.45381 z m -4.58809,-5.34961 c -1.45941,-0.9658 -1.95298,-1.83705 -1.95298,-3.44744 0,-1.53159 0.61814,-2.82095 1.76068,-3.67256 0.54516,-0.40635 1.08348,-0.52806 2.20498,-0.49855 1.8983,0.0499 3.17839,0.80829 3.84608,2.27848 0.99749,2.19639 0.41294,4.21488 -1.59387,5.50378 -1.45606,0.93517 -2.67507,0.88838 -4.26489,-0.16371 z m -20.94042,22.18402 c -2.15461,-1.51432 -2.8312,-3.24439 -3.05713,-7.81725 -0.2051,-4.151 0.68392,-6.25941 3.353,-7.9521 0.96277,-0.61057 1.478,-0.74907 2.78332,-0.74818 l 1.60185,0.001 0.0434,8.75873 0.0434,8.75873 -1.81789,-0.10272 c -1.49608,-0.0845 -2.01827,-0.24356 -2.94986,-0.8983 z M 102.67115,111.6553 c -0.16068,-0.25542 -0.63578,-0.22395 -3.428965,0.22713 -0.90665,0.14642 -0.9627,0.11166 -1.12448,-0.69724 -0.21122,-1.05609 -0.21966,-2.8533 -0.0181,-3.86097 l 0.15213,-0.76068 21.978655,0.0601 c 12.08826,0.0331 22.00504,0.0926 22.03729,0.13229 0.0322,0.0397 0.13788,1.26721 0.23474,2.72782 l 0.17611,2.65565 -19.91813,-0.10609 c -13.23796,-0.0705 -19.97551,-0.19729 -20.08921,-0.37804 z m 19.61411,-10.63951 c -1.23481,-0.52116 -2.81666,-1.366868 -3.51523,-1.879346 -1.42255,-1.043614 -3.51332,-4.041308 -4.46979,-6.408687 l -0.6101,-1.510046 V 77.194795 63.171879 l 0.63509,-1.938754 c 1.17014,-3.5721 2.98418,-5.752625 6.13889,-7.379113 l 1.42811,-0.736299 13.49375,-0.0797 c 14.36213,-0.08483 15.83295,0.0072 18.34058,1.147134 1.98308,0.901508 4.62759,3.615445 5.58894,5.735659 1.76648,3.895884 1.73611,3.591708 1.72457,17.273991 -0.0114,13.465661 -0.0526,13.938496 -1.48127,16.982668 -1.67682,3.572943 -4.26601,5.829085 -7.93267,6.912275 -2.82637,0.83496 -7.49325,1.08785 -17.96379,0.97341 l -9.13197,-0.0998 z m 16.5403,-9.958647 c 4.96457,-0.642075 8.65525,-3.288205 10.88844,-7.806747 0.92943,-1.880576 1.01498,-2.245691 1.10325,-4.708588 0.16206,-4.521323 -0.86757,-7.535538 -3.78027,-11.066743 -1.46729,-1.778864 -3.38986,-3.185491 -5.24618,-3.838308 -0.61223,-0.215306 -2.31863,-0.45242 -3.79198,-0.52692 -2.29237,-0.115914 -2.93228,-0.05111 -4.43562,0.449165 -3.19587,1.063518 -6.06237,3.77223 -7.76403,7.336662 -0.70999,1.487192 -0.97033,2.469903 -1.1916,4.497916 -0.25597,2.346084 -0.229,2.807087 0.28127,4.806649 1.09039,4.272895 4.71206,8.894176 7.90719,10.089625 1.84133,0.68893 4.25777,0.996434 6.02953,0.767289 z m -3.79848,-4.853138 c -2.96871,-0.790168 -4.64422,-2.629733 -5.47208,-6.007893 -0.67256,-2.744448 -0.42574,-5.263862 0.76036,-7.761451 2.4899,-5.243031 6.97709,-6.679633 11.80678,-3.780017 1.2288,0.737737 1.51508,1.064777 1.91717,2.190152 0.64571,1.807268 0.62462,2.201623 -0.0836,1.562361 l -0.5584,-0.504028 0.52739,0.926042 c 0.29006,0.509323 0.59986,1.240379 0.68843,1.624569 0.13872,0.601723 0.0366,0.757559 -0.73659,1.124479 -1.79104,0.849903 -3.55968,0.403354 -4.26168,-1.075991 -0.34519,-0.727441 -0.37034,-1.070581 -0.13151,-1.794259 0.3429,-1.038983 0.6492,-1.326239 1.67611,-1.571866 1.03416,-0.247363 0.78472,-0.667894 -0.75833,-1.278452 -3.17692,-1.257056 -7.25879,0.569186 -8.01885,3.587656 -0.38198,1.516968 -0.39506,5.458022 -0.0214,6.444243 0.43682,1.152888 1.29486,1.936815 3.02508,2.763783 3.01981,1.443332 5.05974,0.900867 7.85039,-2.087601 1.06659,-1.142205 1.21283,-1.466428 1.6367,-3.628809 0.256,-1.305997 0.52623,-2.435312 0.60051,-2.509589 0.0743,-0.07428 0.37054,0.160828 0.65835,0.522456 0.4461,0.560505 0.50927,0.973998 0.42818,2.802811 -0.1176,2.652192 -0.99284,4.624526 -2.73122,6.154707 -2.583,2.273647 -5.76699,3.10446 -8.80181,2.296697 z M 86.563865,100.55872 c -2.75982,-1.360555 -3.0556,-1.62083 -4.83484,-4.254392 -2.45894,-3.639625 -2.41473,-3.368277 -2.50988,-15.405366 -0.046,-5.820833 0.0233,-12.309739 0.15404,-14.419791 0.22297,-3.598502 0.29666,-3.963833 1.18809,-5.890068 1.7288,-3.735631 4.72652,-6.190069 8.65488,-7.086333 0.98201,-0.224048 5.2838,-0.384199 13.229155,-0.492506 6.47568,-0.08827 11.81993,-0.133619 11.8761,-0.100769 0.0562,0.03285 -0.53913,0.752591 -1.32291,1.599425 -0.78379,0.846833 -1.80967,2.261728 -2.27975,3.144212 -1.64923,3.096132 -1.68375,3.527701 -1.6011,20.01597 l 0.0745,14.871526 1.45521,2.778125 c 1.13292,2.162859 1.88403,3.205001 3.39148,4.705607 l 1.93628,1.92749 -13.44565,-0.0754 -13.445645,-0.0754 z m 10.85437,-9.459267 c 2.825975,-0.876118 5.322385,-3.131924 6.687225,-6.04272 1.47819,-3.152524 1.88236,-8.958113 0.88237,-12.674421 -0.69047,-2.565995 -2.03413,-5.082579 -3.31859,-6.215461 -2.304625,-2.032668 -5.495225,-3.205891 -8.006235,-2.943995 -1.90502,0.198692 -5.68967,1.31116 -6.55371,1.926413 -3.86972,2.755482 -6.12409,8.913652 -5.20028,14.20537 0.44824,2.567596 2.05474,6.159913 3.44087,7.694192 1.3263,1.468057 4.04472,3.189174 5.99671,3.796701 1.66415,0.517941 4.79736,0.648975 6.07164,0.253921 z m -4.10065,-4.495871 c 0.91661,-0.372076 2.73311,-2.326861 3.41774,-3.677923 0.38365,-0.757077 0.79593,-2.251759 0.9885,-3.583659 0.59491,-4.114607 -0.51228,-7.887176 -3.13443,-10.680017 l -1.30417,-1.389062 h 1.41355 c 1.86542,0 2.88394,0.462706 4.22046,1.917324 2.400685,2.612824 3.293985,8.421482 1.866715,12.138239 -1.096895,2.856436 -2.426915,4.640147 -3.897015,5.226356 -0.36373,0.145037 -1.43523,0.263705 -2.38112,0.263705 -1.14001,0 -1.54126,-0.07247 -1.19023,-0.214963 z m -5.27257,-3.289954 c -1.45076,-1.450766 -1.85195,-3.001483 -1.69643,-6.557257 0.11538,-2.638056 0.72726,-4.387245 2.14899,-6.143318 0.59594,-0.736077 0.64146,-0.747642 1.39491,-0.35435 1.13557,0.592748 2.12262,1.727484 2.81129,3.231926 0.48676,1.06334 0.60635,1.790155 0.6095,3.704166 0.004,2.133235 -0.084,2.566895 -0.84043,4.163664 -0.95382,2.013516 -1.91502,3.112378 -2.72246,3.112378 -0.30149,0 -1.0689,-0.520744 -1.70537,-1.157209 z m -15.13385,2.314386 c -1.51269,-0.71782 -2.93865,-2.587724 -3.58411,-4.699968 -0.84776,-2.774252 -0.83685,-7.160761 0.0226,-9.092989 0.34029,-0.765043 1.04412,-1.764495 1.56405,-2.221003 0.90264,-0.792532 3.15419,-1.967147 3.36555,-1.755784 0.0751,0.07511 0.19045,15.894197 0.13028,17.869337 -0.0135,0.442983 -0.41062,0.416587 -1.49839,-0.09959 z m 92.449015,-8.763775 c 0.042,-4.32934 0.13374,-8.036561 0.20396,-8.238271 0.41966,-1.205549 2.39882,2.714766 2.82701,5.599747 0.48284,3.253138 -0.54839,7.683557 -2.23575,9.605349 -0.43671,0.497396 -0.81146,0.904434 -0.83277,0.904528 -0.0213,9.5e-5 -0.004,-3.542014 0.0376,-7.871353 z M 73.140335,37.905602 c -1.02338,-0.623966 -1.91344,-1.983591 -1.91482,-2.925031 -0.001,-0.896861 1.20007,-2.711155 2.17765,-3.288629 1.56984,-0.927324 3.61973,-0.06019 4.48572,1.89751 0.50648,1.144981 0.51024,1.247196 0.0866,2.356414 -0.32385,0.848005 -0.7393,1.337223 -1.54638,1.820991 -1.33441,0.799848 -2.14819,0.834179 -3.28879,0.138745 z"
       inkscape:export-filename="blue_wheeled_robot.png"
       inkscape:export-xdpi="96"
       inkscape:export-ydpi="96" /></g></svg>
