<?xml version="1.0" encoding="UTF-8" standalone="no"?>
<!-- Created with Inkscape (http://www.inkscape.org/) -->

<svg
   width="210mm"
   height="297mm"
   viewBox="0 0 210 297"
   version="1.1"
   id="svg1"
   xml:space="preserve"
   inkscape:version="1.3.2 (091e20e, 2023-11-25, custom)"
   sodipodi:docname="green_sphere_robot.svg"
   inkscape:export-filename="green_sphere_robot.png"
   inkscape:export-xdpi="96"
   inkscape:export-ydpi="96"
   xmlns:inkscape="http://www.inkscape.org/namespaces/inkscape"
   xmlns:sodipodi="http://sodipodi.sourceforge.net/DTD/sodipodi-0.dtd"
   xmlns:xlink="http://www.w3.org/1999/xlink"
   xmlns="http://www.w3.org/2000/svg"
   xmlns:svg="http://www.w3.org/2000/svg"><sodipodi:namedview
     id="namedview1"
     pagecolor="#ffffff"
     bordercolor="#000000"
     borderopacity="0.25"
     inkscape:showpageshadow="2"
     inkscape:pageopacity="0.0"
     inkscape:pagecheckerboard="0"
     inkscape:deskcolor="#d1d1d1"
     inkscape:document-units="mm"
     inkscape:zoom="0.69229107"
     inkscape:cx="395.78728"
     inkscape:cy="561.18014"
     inkscape:window-width="2880"
     inkscape:window-height="1514"
     inkscape:window-x="-11"
     inkscape:window-y="-11"
     inkscape:window-maximized="1"
     inkscape:current-layer="layer1" /><defs
     id="defs1"><linearGradient
       id="linearGradient86"
       inkscape:collect="always"><stop
         style="stop-color:#ff0f0f;stop-opacity:1;"
         offset="0.34999999"
         id="stop86" /><stop
         style="stop-color:#6cff6c;stop-opacity:1;"
         offset="1"
         id="stop87" /></linearGradient><linearGradient
       id="linearGradient63"
       inkscape:collect="always"><stop
         style="stop-color:#000000;stop-opacity:1;"
         offset="0"
         id="stop63" /><stop
         style="stop-color:#000000;stop-opacity:0;"
         offset="1"
         id="stop64" /></linearGradient><radialGradient
       inkscape:collect="always"
       xlink:href="#linearGradient63"
       id="radialGradient64"
       cx="113.77342"
       cy="222.14195"
       fx="113.77342"
       fy="222.14195"
       r="56.481346"
       gradientTransform="matrix(1,0,0,0.26794258,-1.5287404,125.16652)"
       gradientUnits="userSpaceOnUse" /><linearGradient
       inkscape:collect="always"
       xlink:href="#linearGradient86"
       id="linearGradient87"
       x1="38.645134"
       y1="108.50364"
       x2="188.09097"
       y2="108.50364"
       gradientUnits="userSpaceOnUse"
       gradientTransform="translate(-221.8717,4.864418)" /></defs><g
     inkscape:label="Layer 1"
     inkscape:groupmode="layer"
     id="layer1"><ellipse
       style="fill:url(#linearGradient87);fill-opacity:1;fill-rule:nonzero;stroke-width:0.263595"
       id="path86"
       cx="-108.50364"
       cy="113.36806"
       rx="74.722923"
       ry="72.831207"
       transform="rotate(-90)" /><circle
       style="fill:#ffffff;fill-opacity:1;stroke-width:0.264583"
       id="path87"
       cx="113.09782"
       cy="104.7202"
       r="20.673794" /><path
       style="fill:#000000"
       d="m 106.13448,182.1756 c -12.852223,-1.60703 -22.931363,-4.99369 -33.436983,-11.23503 -9.98181,-5.93016 -16.67122,-12.31326 -23.08095,-22.02405 -8.83238,-13.38115 -13.07663,-27.07531 -13.06231,-42.1458 0.01,-10.113766 2.28377,-19.384396 7.29504,-29.738387 4.14076,-8.555386 8.09396,-14.25732 14.39557,-20.763615 5.12216,-5.288532 10.78821,-9.456522 18.09018,-13.307262 12.25858,-6.464642 28.129753,-9.925136 41.618543,-9.074355 19.29446,1.216962 37.62311,9.538211 50.75598,23.043326 3.95373,4.065804 6.01336,6.635424 9.19813,11.475721 3.93396,5.978935 6.01304,10.293476 8.51221,17.664666 4.94483,14.584566 4.70455,29.210676 -0.73995,45.041576 -4.45983,12.96776 -14.72085,27.13466 -25.70275,35.48655 -11.18143,8.50364 -24.10399,13.58626 -39.29063,15.45356 -3.8956,0.47899 -11.21092,0.54087 -14.55208,0.1231 z m 15.14974,-5.00726 c 1.56564,-0.22832 3.94689,-0.6679 5.29167,-0.97685 1.34477,-0.30894 2.71294,-0.62053 3.04036,-0.6924 0.32742,-0.0719 0.59531,-0.30289 0.59531,-0.51337 0,-0.84085 -1.53513,-3.4537 -2.89115,-4.92087 -1.61783,-1.75042 -3.31901,-2.71218 -6.98698,-3.95005 -2.33064,-0.78654 -2.58971,-0.81734 -6.65833,-0.79135 -5.3992,0.0345 -7.7033,0.46701 -10.8443,2.03576 -3.863013,1.92934 -6.750483,4.97694 -6.750483,7.12484 0,0.58536 0.1997,0.71781 1.78594,1.18451 2.677143,0.78768 4.958973,1.26462 7.606763,1.58995 1.30969,0.16092 2.73844,0.34151 3.175,0.40131 1.65824,0.22713 9.90913,-0.0938 12.6362,-0.49148 z m -29.859953,-4.63202 c 0.91714,-3.26867 3.46317,-6.12167 7.52286,-8.42989 4.361963,-2.48009 8.082543,-3.36071 14.198813,-3.36071 6.23602,0 11.50599,1.1822 15.40169,3.45501 2.77744,1.6204 5.11246,4.67725 6.78432,8.88158 l 0.38155,0.95951 3.2683,-1.11589 c 1.79757,-0.61374 4.3994,-1.61974 5.78184,-2.23556 10.92973,-4.86871 21.24868,-13.78802 28.37387,-24.52529 2.56556,-3.86615 5.31949,-9.07973 6.54944,-12.39899 0.59154,-1.5964 1.26172,-3.1867 1.48929,-3.53401 0.4877,-0.74433 0.45289,-0.78736 -1.69003,-2.08868 -3.62677,-2.20241 -5.53462,-4.15873 -8.07396,-8.27905 -1.6788,-2.724 -2.48282,-5.00586 -3.10288,-8.80614 -0.62572,-3.835 -0.65831,-6.05614 -0.13859,-9.44686 1.33163,-8.687786 5.25163,-15.289026 10.65797,-17.947906 0.76398,-0.37574 1.38906,-0.84422 1.38906,-1.04107 0,-0.19686 -0.97422,-2.28541 -2.16493,-4.64124 -4.72239,-9.343297 -10.77775,-16.832952 -18.74605,-23.186327 -1.96943,-1.570285 -4.50495,-3.475902 -5.63448,-4.234706 -3.27997,-2.20343 -11.212,-5.975329 -17.48091,-8.312657 l -1.82533,-0.680564 -1.55458,1.439268 c -2.78282,2.5764 -7.34821,4.815998 -11.86038,5.818224 -2.98329,0.662637 -10.03617,0.815616 -13.46766,0.292118 -2.79748,-0.426774 -7.3921,-1.841246 -9.551093,-2.940332 -1.63619,-0.832947 -3.98745,-2.46064 -5.27399,-3.650989 l -1.07266,-0.992461 -2.83343,0.968149 c -9.20592,3.145553 -18.09233,8.295531 -25.06876,14.528208 -4.0188,3.590364 -9.50564,10.30356 -12.54247,15.345832 -1.49709,2.485736 -5.44407,10.173827 -5.28876,10.301677 0.0492,0.0405 0.94531,0.63238 1.99137,1.31529 2.63022,1.71712 4.4559,3.79295 6.08408,6.91771 3.00582,5.76871 4.13638,12.987776 3.11316,19.878796 -1.02203,6.88301 -4.81677,13.32116 -10.15163,17.22323 -1.10322,0.80692 -2.04514,1.49696 -2.09315,1.5334 -0.048,0.0365 0.091,0.34449 0.30901,0.68454 0.21796,0.34004 0.77071,1.59741 1.22833,2.79415 1.19355,3.12132 4.78419,10.07543 6.72577,13.02602 6.40654,9.7359 16.17031,18.34593 26.88147,23.70498 2.81978,1.4108 9.95649,4.33167 10.61461,4.34428 0.2993,0.006 0.56081,-0.46456 0.86892,-1.56265 z m 51.908693,-5.38995 c -0.26342,-0.19262 -0.43472,-0.57984 -0.38067,-0.8605 0.11397,-0.59178 2.69031,-2.35895 5.44345,-3.73378 2.07119,-1.03429 2.49069,-0.98323 3.0035,0.36557 0.40425,1.06326 -0.12346,1.7791 -2.04778,2.77777 -2.84362,1.47577 -5.20575,2.04523 -6.0185,1.45094 z m 11.20168,-7.55312 c -0.55192,-0.44692 -0.57629,-0.56367 -0.27137,-1.29981 0.18425,-0.44483 1.87405,-2.31554 3.75511,-4.15712 3.33203,-3.26213 5.29473,-5.52201 7.11898,-8.19693 1.34156,-1.96713 2.64589,-3.31763 3.20422,-3.31763 0.75552,0 2.61981,1.79191 2.4266,2.3324 -0.48288,1.35084 -3.83874,5.41041 -9.2035,11.13339 -3.33884,3.5618 -5.58036,4.67958 -7.03004,3.5057 z m -9.0898,-4.88915 c -1.00487,-1.00488 -0.96772,-2.84068 0.0786,-3.88706 1.40109,-1.40109 2.88523,-1.30139 4.04004,0.27139 0.89151,1.21419 0.90384,2.20785 0.0394,3.17534 -0.6295,0.70453 -1.01616,0.88508 -2.12327,0.99146 -1.19391,0.11472 -1.43398,0.0497 -2.03481,-0.55113 z m 6.48176,-4.57739 c -1.12967,-1.43614 -0.92736,-1.8513 3.55267,-7.29076 3.78009,-4.58962 4.48664,-5.02451 6.24473,-3.8437 0.69014,0.46353 0.91722,0.81763 0.97735,1.52403 0.0868,1.01973 -0.1064,1.31613 -3.2914,5.04936 -4.31296,5.05533 -6.19314,6.2013 -7.48335,4.56107 z m -47.51191,-0.98946 c -4.693293,-0.98715 -6.478963,-1.53887 -10.186453,-3.14731 -7.02963,-3.04971 -13.17554,-7.73156 -17.96411,-13.68474 -3.39643,-4.22247 -5.56902,-8.40633 -7.55451,-14.54808 -4.08644,-12.64062 -1.78012,-26.286116 6.6248,-39.196026 0.70992,-1.090421 2.7381,-3.424721 4.59251,-5.285648 9.29453,-9.327226 19.11092,-13.825272 31.499223,-14.433519 7.06745,-0.347001 15.47769,1.427001 21.82812,4.604283 6.69537,3.349863 13.17604,9.011042 17.1875,15.014104 4.40069,6.58553 6.96245,12.89836 7.92627,19.53237 0.92959,6.398316 0.80995,10.220496 -0.52684,16.831776 -1.66863,8.2524 -6.18609,16.04611 -13.12162,22.63793 -5.92903,5.63521 -12.23261,9.0142 -21.06084,11.28954 -4.08639,1.05321 -4.26236,1.07476 -9.58676,1.17431 -5.33148,0.0997 -5.49614,0.0862 -9.65729,-0.78899 z m 16.42837,-4.90009 c 7.14498,-1.33526 13.427,-4.35475 19.0062,-9.13544 2.25509,-1.93233 6.37817,-6.57212 7.89476,-8.88412 3.94414,-6.01274 6.09886,-13.47704 6.11019,-21.16667 0.0107,-7.263916 -1.6981,-13.335096 -5.77142,-20.505196 -3.79267,-6.67611 -9.19641,-12.022629 -15.91067,-15.742202 -3.44148,-1.906513 -5.57962,-2.756032 -9.2395,-3.671016 -11.56049,-2.890163 -22.29814,-1.158912 -31.882133,5.140419 -10.28852,6.762388 -16.58191,16.076689 -18.49781,27.376989 -0.74939,4.420056 -0.92505,7.879346 -0.57061,11.237466 1.4977,14.19002 9.55061,25.23288 23.5198,32.25242 3.17742,1.59666 8.520503,3.0266 13.807613,3.69526 2.14549,0.27134 8.70064,-0.0685 11.53358,-0.59791 z m -11.53358,-6.62193 c -2.43887,-0.29045 -7.67594,-1.72281 -10.035213,-2.74469 -4.86942,-2.10911 -9.67819,-5.58988 -12.60721,-9.1256 -2.99987,-3.62124 -5.61617,-8.87694 -6.88295,-13.82668 -0.69995,-2.73492 -0.72434,-10.5947 -0.0416,-13.402766 1.75888,-7.23413 4.32009,-12.07329 8.91086,-16.83622 6.62439,-6.872801 14.047013,-10.27276 23.325663,-10.684404 6.80126,-0.301736 13.8237,1.681246 19.7273,5.570553 6.1654,4.061791 11.74135,12.169831 13.8993,20.211121 0.77159,2.87522 0.83755,3.451076 0.85687,7.480636 0.0233,4.85159 -0.23555,6.61464 -1.57304,10.71563 -1.60027,4.90673 -5.22401,10.42604 -9.27776,14.13094 -3.87882,3.54502 -10.6296,6.84861 -16.55405,8.10095 -2.18589,0.46207 -7.45283,0.68388 -9.74817,0.41053 z m 6.62152,-5.06159 c 6.91286,-0.85885 12.18254,-3.36273 17.22509,-8.18447 1.39998,-1.33869 3.84408,-4.70574 4.90658,-6.75943 2.20192,-4.25606 3.4337,-9.67117 3.15768,-13.88173 -0.4779,-7.290046 -3.12305,-13.386406 -8.05854,-18.572766 -4.45087,-4.6771 -10.59755,-7.901991 -16.57629,-8.696851 -3.08313,-0.4099 -7.8648,-0.17445 -10.51399,0.5177 -10.245393,2.676791 -18.879303,11.615661 -20.851733,21.588251 -0.49378,2.496546 -0.55724,3.521986 -0.45029,7.276036 0.14538,5.10323 0.74697,7.61379 2.71098,11.31345 4.66205,8.78206 13.357273,14.56881 23.151913,15.40777 1.23692,0.10595 2.43067,0.21017 2.65277,0.23161 0.2221,0.0214 1.41272,-0.0864 2.64583,-0.23957 z m -5.82777,-6.24826 c -1.06803,-0.16911 -4.78163,-1.16789 -5.52947,-1.48716 -1.74959,-0.74693 -4.794543,-2.6648 -6.146413,-3.87132 -1.60717,-1.43438 -4.18729,-5.22833 -5.33269,-7.84146 -1.15162,-2.62736 -1.58714,-4.9483 -1.61072,-8.58368 -0.019,-2.93054 0.0639,-3.57833 0.72807,-5.686646 0.9252,-2.93708 1.67768,-4.45111 3.50724,-7.05675 2.91128,-4.14625 6.287593,-6.54999 11.341273,-8.07435 2.09375,-0.63155 2.82848,-0.71904 6.08542,-0.72463 4.35758,-0.007 5.89392,0.33353 9.63503,2.1386 4.69214,2.26394 9.10983,7.54632 10.91697,13.05379 0.74904,2.282756 0.82724,2.841486 0.85173,6.085406 0.0313,4.1407 -0.31558,5.76542 -1.97288,9.24147 -1.40685,2.95075 -2.92857,5.03773 -5.35121,7.339 -4.2071,3.99633 -11.56862,6.34711 -17.12235,5.46773 z m 6.5258,-5.26684 c 5.22519,-1.2118 9.81173,-4.74579 11.79486,-9.0881 2.1759,-4.76439 2.04664,-9.68218 -0.38259,-14.555666 -2.65561,-5.32767 -6.80153,-8.48767 -12.38182,-9.43737 -4.35006,-0.74034 -7.75662,-0.12569 -11.50938,2.07665 -5.989993,3.51528 -8.913633,10.785616 -7.399833,18.401466 1.23857,6.23116 6.128203,11.31959 12.132443,12.62568 2.22964,0.48501 5.59981,0.47515 7.74632,-0.0227 z m -6.88604,-3.17793 c -4.80752,-1.1637 -7.87128,-4.11599 -9.32374,-8.98452 -0.893283,-2.99417 -0.430753,-8.22049 0.97708,-11.040696 0.71818,-1.43866 3.24516,-4.04645 4.60078,-4.74793 5.7323,-2.9662 12.18521,-2.1865 16.29012,1.96832 1.74427,1.76548 2.399,2.80107 3.23342,5.114266 1.89564,5.25515 0.69472,10.51883 -3.24859,14.23875 -2.22349,2.09753 -3.88513,2.98618 -6.52985,3.4922 -2.41702,0.46245 -3.96492,0.45203 -5.99922,-0.0404 z m 0.91642,-14.20402 c 2.20688,-1.47429 2.4813,-5.122826 0.46378,-6.166126 -2.04959,-1.05988 -4.83322,0.54766 -5.39757,3.117096 -0.59217,2.69614 2.55276,4.63967 4.93379,3.04903 z m -45.667633,42.09204 c -0.99701,-0.53373 -3.37177,-2.99436 -4.39794,-4.55695 -1.30308,-1.98427 -1.41822,-3.51467 -0.32888,-4.37155 0.38425,-0.30225 1.08762,-0.54837 1.56715,-0.54837 1.00932,0 1.67375,0.59243 4.2678,3.80533 2.188,2.70998 2.53634,3.37761 2.21008,4.23576 -0.44108,1.1601 -2.31695,1.97179 -3.31821,1.43578 z m 106.362493,-5.90552 c -1.39219,-0.49222 -2.59845,-1.81642 -2.36567,-2.59696 0.58822,-1.97241 1.99407,-3.24377 3.27564,-2.96229 1.06318,0.23351 2.6619,1.80615 2.6619,2.61848 0,0.82679 -1.81201,3.35505 -2.38125,3.32251 -0.0728,-0.004 -0.60854,-0.17594 -1.19062,-0.38174 z M 55.490297,134.39938 c -0.37674,-0.44773 -0.68498,-1.09344 -0.68498,-1.43491 0,-0.34147 0.30824,-0.98718 0.68498,-1.43491 1.09433,-1.30053 2.87074,-1.05731 3.67791,0.50357 0.5396,1.04348 0.50299,1.65459 -0.14876,2.48316 -0.44187,0.56174 -0.77131,0.69714 -1.69627,0.69714 -0.957,0 -1.26182,-0.13538 -1.83288,-0.81405 z m 0.4568,-52.898206 c -1.23439,-0.49734 -1.48271,-2.06254 -0.54647,-3.44436 0.75255,-1.110691 1.77044,-1.479411 2.76635,-1.002081 1.09324,0.52398 1.53687,1.628011 1.15983,2.886451 -0.47839,1.59671 -1.78813,2.20126 -3.37971,1.55999 z m 4.23544,-9.589297 c -0.79992,-0.888658 -0.91453,-1.454037 -0.49723,-2.452769 0.48158,-1.152601 1.46816,-1.449072 2.66939,-0.802165 0.7631,0.410954 1.44645,1.35125 1.44645,1.990312 0,0.127509 -0.30824,0.598156 -0.68497,1.045884 -0.85733,1.018871 -2.12813,1.113624 -2.93364,0.218738 z m 5.07382,-5.266461 c -0.83197,-0.455054 -1.19062,-1.048636 -1.19062,-1.970531 0,-0.7149 0.37253,-1.231726 2.3151,-3.211809 3.19574,-3.257455 7.3185,-6.847114 8.91705,-7.764026 1.64668,-0.944519 2.51549,-0.968489 3.55007,-0.09795 1.84795,1.554949 1.25849,2.854261 -2.4395,5.377233 -1.47699,1.007681 -4.1328,3.213751 -5.90181,4.902376 -3.35451,3.202086 -3.91297,3.496161 -5.25029,2.764705 z M 183.47995,121.8642 c 0.97702,-4.44638 1.34479,-8.60709 1.34584,-15.22577 7.8e-4,-4.93856 -0.10754,-7.112376 -0.45485,-9.128116 -0.64003,-3.71466 -2.05568,-9.65729 -2.30055,-9.65729 -0.72512,0 -3.66997,2.42492 -4.79368,3.94733 -3.4988,4.74018 -4.859,9.737166 -4.21904,15.499536 0.77773,7.00284 4.21832,13.43304 8.48306,15.85416 0.65484,0.37176 1.26155,0.67736 1.34825,0.67911 0.0867,0.002 0.35263,-0.88428 0.59097,-1.96896 z m -138.344583,0.86722 c 2.47931,-1.64223 5.23082,-6.1178 6.23382,-10.13986 1.90183,-7.6264 -0.0886,-17.852106 -4.34131,-22.303036 -1.69474,-1.77373 -3.01532,-2.65289 -3.18592,-2.12097 -0.32503,1.0134 -1.76347,8.13055 -2.1289,10.53338 -0.99754,6.559226 -0.77375,13.637126 0.65773,20.801896 0.43258,2.16515 0.78794,3.96641 0.78969,4.00279 0.0135,0.28114 0.91538,-0.0724 1.97489,-0.7742 z M 120.44085,44.110336 c 2.91381,-0.813169 7.83103,-3.523011 7.32278,-4.035525 -0.34348,-0.346351 -5.97325,-1.135956 -10.38436,-1.45646 -5.62729,-0.40887 -11.83572,0.0073 -18.586973,1.24595 -0.32742,0.06007 -0.5939,0.19625 -0.59218,0.302618 0.006,0.347409 2.796303,2.141751 4.178013,2.68637 1.35346,0.533482 4.78371,1.462683 6.26989,1.698414 1.80403,0.286147 10.32927,-0.03293 11.79283,-0.441367 z"
       id="path62" /><ellipse
       style="fill:url(#radialGradient64);stroke-width:0.264583"
       id="path63"
       cx="112.24468"
       cy="184.68781"
       rx="56.481346"
       ry="15.133758"
       inkscape:export-filename="green_sphere_robot.png"
       inkscape:export-xdpi="96"
       inkscape:export-ydpi="96" /></g></svg>
