<?xml version="1.0" encoding="UTF-8" standalone="no"?>
<!-- Created with Inkscape (http://www.inkscape.org/) -->

<svg
   width="210mm"
   height="297mm"
   viewBox="0 0 210 297"
   version="1.1"
   id="svg1"
   xml:space="preserve"
   inkscape:version="1.3.2 (091e20e, 2023-11-25, custom)"
   sodipodi:docname="orange_wheeled_robot.svg"
   xmlns:inkscape="http://www.inkscape.org/namespaces/inkscape"
   xmlns:sodipodi="http://sodipodi.sourceforge.net/DTD/sodipodi-0.dtd"
   xmlns="http://www.w3.org/2000/svg"
   xmlns:svg="http://www.w3.org/2000/svg"><sodipodi:namedview
     id="namedview1"
     pagecolor="#ffffff"
     bordercolor="#000000"
     borderopacity="0.25"
     inkscape:showpageshadow="2"
     inkscape:pageopacity="0.0"
     inkscape:pagecheckerboard="0"
     inkscape:deskcolor="#d1d1d1"
     inkscape:document-units="mm"
     inkscape:zoom="0.99864618"
     inkscape:cx="396.53684"
     inkscape:cy="561.25984"
     inkscape:window-width="2880"
     inkscape:window-height="1514"
     inkscape:window-x="-11"
     inkscape:window-y="-11"
     inkscape:window-maximized="1"
     inkscape:current-layer="layer1" /><defs
     id="defs1" /><g
     inkscape:label="Layer 1"
     inkscape:groupmode="layer"
     id="layer1"><path
       style="fill:#ffa500;stroke-width:0.264999;fill-opacity:1"
       d="M 40.536128,76.303299 109.42105,59.347012 c 0,0 62.28549,12.759379 62.26138,18.54594 l -0.26495,65.440678 -69.14986,22.25513 -61.201608,-22.78502"
       id="path46"
       sodipodi:nodetypes="ccsccc" /><ellipse
       style="fill:#808080;fill-opacity:1;stroke-width:0.323866"
       id="path47-8-9-8"
       cx="54.060486"
       cy="178.39696"
       rx="18.943356"
       ry="21.460304" /><ellipse
       style="fill:#ffa500;fill-opacity:1;stroke-width:0.269774"
       id="path47"
       cx="42.920609"
       cy="181.61629"
       rx="15.101695"
       ry="18.678411" /><ellipse
       style="fill:#808080;fill-opacity:1;stroke-width:0.341516"
       id="path47-8-9"
       cx="100.09577"
       cy="195.57666"
       rx="21.327831"
       ry="21.195362" /><ellipse
       style="fill:#808080;fill-opacity:1;stroke-width:0.341516"
       id="path47-8-9-83"
       cx="158.97392"
       cy="174.89639"
       rx="21.327831"
       ry="21.195362" /><ellipse
       style="fill:#ffa500;fill-opacity:1;stroke-width:0.291902"
       id="path47-8"
       cx="90.619621"
       cy="198.13226"
       rx="16.293934"
       ry="20.268064" /><ellipse
       style="fill:#ffa500;fill-opacity:1;stroke-width:0.275174"
       id="path47-8-91"
       cx="152.08904"
       cy="178.132"
       rx="14.969223"
       ry="19.605709" /><path
       id="path2"
       style="fill:#000000"
       d="m 89.651435,216.89005 c -3.70079,-0.94251 -7.081,-3.49202 -9.56837,-7.21689 -1.22108,-1.82857 -2.5675,-5.33082 -3.17416,-8.2565 -0.52457,-2.52977 -0.34411,-8.41676 0.32436,-10.58133 0.67104,-2.17289 2.31405,-5.27251 3.50724,-6.61658 3.34226,-3.7649 8.69361,-4.6329 13.53022,-2.19462 2.52952,1.27521 5.904355,4.43239 7.420855,6.94229 2.91484,4.82422 3.97632,12.26579 2.52327,17.68948 -0.86123,3.21464 -1.76379,5.00931 -3.46424,6.88837 -2.871115,3.17268 -6.950445,4.40237 -11.099175,3.34578 z m 5.65324,-3.16604 c 1.72635,-0.53875 3.11444,-1.63022 4.26559,-3.35408 2.812205,-4.2113 3.289245,-8.91883 1.558925,-15.38364 -0.67315,-2.51503 -2.576565,-5.56802 -5.016255,-8.04587 -2.10394,-2.13684 -3.10751,-2.65692 -5.83535,-3.02403 -2.64714,-0.35625 -4.38091,-0.0352 -6.15476,1.13978 -4.29968,2.84799 -6.2425,12.22406 -3.84865,18.57365 0.70424,1.86798 3.94211,6.727 5.30022,7.95397 1.13567,1.02601 3.24464,1.87685 5.59926,2.25895 2.10288,0.34125 2.71329,0.32371 4.13102,-0.11873 z m -6.25725,-3.94872 c -1.39733,-0.72259 -3.91179,-3.4672 -4.92561,-5.37646 -1.06856,-2.01235 -1.47128,-3.82728 -1.47128,-6.63059 0,-3.63847 1.66301,-7.9045 3.79167,-9.72655 0.95204,-0.81491 1.23171,-0.91253 2.61445,-0.91253 0.85161,0 1.99104,0.18411 2.53206,0.40912 1.14455,0.47602 2.96807,1.69023 2.96807,1.97632 0,0.10824 -0.70051,0.24747 -1.55668,0.3094 -2.05317,0.14851 -4.74153,1.45977 -5.84231,2.84961 -1.45738,1.8401 -1.94103,3.29532 -1.80414,5.42834 0.20981,3.26937 1.8691,6.0272 4.55233,7.56623 1.88238,1.07968 3.76549,1.07382 5.84142,-0.0182 2.26874,-1.19343 2.6944,-1.06606 2.11078,0.63159 -0.42902,1.24794 -1.96683,2.87448 -3.4192,3.61649 -1.29385,0.66102 -3.99478,0.59951 -5.39156,-0.12279 z m 1.03825,-8.63711 c -1.63023,-1.63022 -1.62528,-4.02443 0.0112,-5.4014 1.26882,-1.06764 1.96506,-0.84711 3.23535,1.02477 0.78734,1.16021 0.87793,2.20621 0.29707,3.43028 -0.41751,0.87982 -1.54008,1.73498 -2.29325,1.74696 -0.24347,0.004 -0.80611,-0.3564 -1.25032,-0.80061 z m 5.41421,-0.7137 c 0.0877,-0.40019 0.21221,-0.8945 0.27673,-1.09849 0.0645,-0.20398 -0.0601,-0.98119 -0.27699,-1.72714 -0.41605,-1.43117 -1.4141,-2.59341 -2.53034,-2.94662 -0.64552,-0.20426 -0.63914,-0.21505 0.26458,-0.44764 1.98106,-0.50985 2.64247,-0.5239 3.33396,-0.0708 0.95698,0.62703 1.68321,2.43575 1.76019,4.38383 l 0.0652,1.65068 -1.32292,0.47139 c -1.75256,0.62449 -1.75438,0.62424 -1.57044,-0.21519 z m 8.323715,14.8351 c 1.26358,-1.43914 2.49029,-3.46529 3.0948,-5.11167 1.16922,-3.18435 1.78312,-8.96783 1.29189,-12.17083 -0.90124,-5.87647 -3.4483,-11.16519 -7.09191,-14.72562 -1.551445,-1.51602 -5.760315,-4.58896 -6.285295,-4.58896 -0.39348,0 -2.73971,-1.06437 -2.61692,-1.18716 0.39557,-0.39557 8.582305,-1.77634 10.542705,-1.77814 5.13167,-0.005 9.85696,3.04489 13.31507,8.5932 1.56142,2.5052 2.17823,4.26434 2.83682,8.09058 1.19731,6.95613 0.29715,12.19914 -2.80452,16.33495 -1.42753,1.90349 -3.00038,3.4723 -4.35154,4.34035 -1.39681,0.89737 -7.24333,3.05507 -8.56022,3.15919 -0.12421,0.01 0.15889,-0.42033 0.62912,-0.95589 z m -46.176185,-7.0709 c 3.20919,-0.688 5.38598,-1.45062 8.23227,-2.88408 3.13246,-1.57758 4.10907,-3.40674 2.57701,-4.82661 -0.38505,-0.35685 -0.83154,-0.65469 -0.99219,-0.66185 -0.16065,-0.007 -0.99636,-0.33729 -1.85712,-0.73361 l -1.56503,-0.72058 1.69608,-0.90401 c 4.09817,-2.1843 6.55684,-5.85745 8.06486,-12.04857 1.56654,-6.43135 0.0575,-14.26161 -3.94149,-20.45229 -1.63272,-2.52753 -3.05424,-4.05219 -5.4035,-5.79556 -3.54713,-2.6323 -6.58802,-3.78235 -10.001,-3.78235 -4.77209,0 -14.80438,2.67026 -19.16718,5.10168 -2.20577,1.22928 -6.03825,5.21431 -7.231,7.51881 -1.71769,3.31877 -2.1242,5.35668 -2.10054,10.53055 0.018,3.93978 0.10531,4.82364 0.70354,7.12286 1.10147,4.23339 2.67553,7.18038 5.26704,9.86109 1.28039,1.32445 1.30507,1.37823 0.69075,1.50475 -0.3504,0.0722 -0.96754,0.20125 -1.37142,0.28684 -1.70873,0.36212 -2.37943,2.27746 -1.13914,3.25307 0.35204,0.27691 1.57243,0.7664 2.71198,1.08775 4.71175,1.32871 12.17554,4.08903 15.39511,5.69354 2.839,1.41484 5.6217,1.66522 9.43097,0.84857 z m -15.08125,-9.79079 c -2.38878,-0.66207 -3.81815,-1.31394 -5.25509,-2.39658 -4.8461,-3.65124 -7.62149,-9.82893 -7.67076,-17.07423 -0.0265,-3.90191 0.30176,-5.57976 1.58004,-8.07506 1.40951,-2.75146 2.59319,-4.21396 4.37196,-5.40178 2.07571,-1.3861 3.26843,-1.68423 6.22264,-1.55541 2.21857,0.0967 2.61845,0.20215 4.72289,1.24494 4.51194,2.23575 7.32853,5.74037 9.28959,11.55882 0.79078,2.34622 0.99779,3.39732 1.10028,5.58661 0.16456,3.51528 -0.45247,7.04642 -1.67824,9.60417 -0.94057,1.96264 -2.99965,4.37829 -4.54734,5.33482 -2.27903,1.40852 -5.57382,1.88383 -8.13597,1.1737 z m 5.02708,-3.1312 c 2.58499,-0.93587 4.34152,-2.66247 5.73242,-5.63476 0.75574,-1.61498 0.84549,-2.08308 0.95766,-4.99483 0.14784,-3.83773 -0.33246,-6.14675 -2.01329,-9.67877 -1.38782,-2.9163 -4.23005,-5.98516 -6.54898,-7.07116 -1.4012,-0.65622 -1.86196,-0.73405 -4.34552,-0.73405 -3.16269,0 -4.13582,0.35801 -5.87229,2.1604 -2.44564,2.53847 -3.70868,7.83299 -2.998,12.56726 0.59129,3.93888 1.32709,5.53969 4.46954,9.72403 1.90968,2.54283 4.89227,4.0083 8.08019,3.97013 0.95949,-0.0115 2.10171,-0.1502 2.53827,-0.30825 z m -5.82083,-3.87302 c -2.72625,-1.30886 -4.73401,-3.98133 -5.56753,-7.41074 -0.63805,-2.62516 -0.448,-7.54763 0.36212,-9.37902 1.13193,-2.55893 3.27496,-4.40808 5.10863,-4.40808 1.19112,0 3.29413,0.77141 4.48525,1.64525 l 1.16778,0.8567 -1.61712,0.1842 c -2.5757,0.29339 -3.76244,0.7147 -4.89481,1.73773 -2.42126,2.18746 -3.17622,5.07942 -2.11428,8.09892 0.94087,2.67524 2.97434,5.04722 5.15269,6.01048 1.4484,0.64048 2.42018,0.56721 3.59768,-0.27124 1.00672,-0.71685 3.18313,-1.63067 3.18313,-1.33653 0,1.29723 -1.8192,3.32913 -3.83405,4.28233 -2.0049,0.94848 -3.03734,0.94643 -5.02949,-0.01 z m 2.03453,-7.28127 c -0.90661,-0.46883 -1.90224,-2.21595 -1.90224,-3.33803 0,-1.13772 0.93063,-2.59891 1.79312,-2.81538 0.57664,-0.14472 0.83511,-0.007 1.56089,0.83279 1.35745,1.57032 1.46665,3.03799 0.35953,4.83166 -0.59555,0.96485 -0.78968,1.01725 -1.8113,0.48896 z m 4.2078,-4.61014 c -0.15556,-0.29067 -0.75972,-0.93668 -1.34256,-1.43558 -0.58285,-0.49889 -0.98116,-0.98565 -0.88513,-1.08167 0.40832,-0.40832 1.67166,-0.11871 2.68535,0.61561 1.33771,0.96903 2.16355,2.51343 2.16355,4.04604 0,1.04072 -0.0838,1.19305 -0.8599,1.5622 l -0.85989,0.40903 -0.30929,-1.79357 c -0.17011,-0.98646 -0.43657,-2.03138 -0.59213,-2.32206 z m 9.08236,16.09393 c 1.86736,-2.53664 2.98804,-6.52963 3.23034,-11.50973 0.1272,-2.61451 0.0577,-3.64208 -0.39397,-5.82084 -0.89777,-4.33104 -3.33766,-8.68055 -6.88815,-12.27924 -2.28943,-2.32052 -4.32767,-3.74022 -6.5583,-4.56807 -0.84679,-0.31427 -1.63664,-0.65446 -1.75523,-0.75599 -0.33215,-0.28436 1.70241,-0.70501 5.77187,-1.19335 4.94564,-0.59348 6.24687,-0.44106 9.36754,1.09727 4.46423,2.20064 7.57889,6.09377 9.39749,11.74626 2.26169,7.02966 1.84338,12.42671 -1.38153,17.8249 -1.41146,2.36263 -2.61966,3.515 -4.77525,4.55458 -1.50969,0.72809 -6.24218,2.43485 -6.85302,2.47152 -0.1816,0.0109 0.19559,-0.69438 0.83821,-1.56731 z m 111.939885,8.99847 c 2.47311,-0.63906 6.14817,-1.81432 7.88114,-2.52033 0.59094,-0.24075 1.24698,-1.47687 1.24698,-2.34956 0,-1.03121 -0.97578,-1.88178 -3.81398,-3.32455 -1.45995,-0.74215 -2.36804,-1.33356 -2.04764,-1.33356 2.08905,0 7.07505,-4.41016 8.83781,-7.81713 1.79835,-3.47575 2.18589,-5.41671 2.16359,-10.83599 -0.018,-4.38448 -0.0765,-4.95151 -0.7366,-7.14375 -1.47271,-4.89111 -4.1603,-9.27678 -7.59483,-12.39342 -1.81902,-1.65065 -5.93435,-3.8393 -8.23645,-4.38037 -2.87676,-0.67615 -8.42392,-0.0541 -12.75475,1.43029 -1.4698,0.50377 -3.74392,1.22163 -5.0536,1.59525 -7.15404,2.04085 -11.24577,5.86998 -13.37154,12.51339 -0.40357,1.26126 -0.87573,3.24569 -1.04924,4.40986 -0.17351,1.16417 -0.36129,2.36738 -0.41729,2.67381 -0.0703,0.38468 -0.61509,0.79418 -1.76,1.32292 -1.46063,0.67454 -1.95764,0.76577 -4.17172,0.76577 -2.26764,0 -2.6818,-0.0805 -4.23334,-0.82295 -2.42041,-1.15821 -4.04166,-2.69153 -5.0835,-4.80781 -0.82823,-1.68237 -0.86962,-1.90934 -0.86962,-4.76869 v -3.00225 l -1.19063,0.16863 c -0.65484,0.0927 -1.7264,0.49491 -2.38125,0.89371 l -1.19062,0.72507 0.007,2.89673 c 0.008,3.42979 0.041,3.50726 3.04643,7.24369 2.36415,2.93914 4.04395,4.18118 6.86837,5.07847 3.57707,1.1364 8.88702,0.82922 10.73036,-0.62075 0.37102,-0.29185 0.70061,-0.4873 0.73242,-0.43433 0.0318,0.053 0.31568,1.12946 0.63082,2.39218 0.31515,1.26273 1.05025,3.29584 1.63357,4.51802 0.98372,2.06108 3.50768,5.7155 4.47647,6.48143 0.34293,0.27112 -0.008,0.3308 -1.94734,0.33114 -2.55863,4.4e-4 -4.13917,0.5126 -4.30367,1.39456 -0.15234,0.81677 1.55099,2.2221 3.27933,2.70564 1.72044,0.48132 2.08554,0.61207 11.44882,4.09995 8.96303,3.33879 10.33612,3.71011 13.63163,3.68633 2.04097,-0.0147 3.37831,-0.19918 5.59279,-0.7714 z m -18.06614,-9.39849 c -2.88158,-0.67937 -5.74565,-2.51871 -8.08367,-5.19141 -1.5667,-1.79097 -2.31702,-3.22351 -3.44632,-6.57976 -1.59416,-4.73781 -1.77834,-9.32563 -0.5418,-13.49633 0.7124,-2.40284 2.55294,-5.54614 4.24196,-7.24446 1.19121,-1.19777 4.73656,-2.808 6.17052,-2.80253 3.65385,0.0139 7.6517,1.79459 11.21223,4.99396 4.15109,3.73002 6.7716,13.3708 5.32967,19.60769 -1.11014,4.80173 -3.11354,7.7114 -6.58527,9.5642 -2.82849,1.50952 -5.30974,1.85301 -8.29732,1.14864 z m 5.50014,-3.00558 c 2.17022,-0.71568 4.70319,-2.85572 5.69375,-4.81049 1.94415,-3.83659 2.00666,-9.8819 0.15307,-14.80302 -0.77744,-2.06403 -3.80997,-5.98677 -5.57846,-7.21602 -4.2194,-2.93284 -10.13772,-2.64063 -12.72681,0.62837 -1.02991,1.30036 -2.23918,3.93518 -2.7806,6.05849 -0.5737,2.24994 -0.38569,7.32996 0.35743,9.65729 0.67438,2.11206 1.03508,2.73198 3.30985,5.68854 1.98775,2.5835 3.67834,3.98518 5.43773,4.50845 1.27372,0.37883 5.28755,0.56754 6.13404,0.28839 z m -4.3536,-3.50231 c -2.48739,-0.69058 -5.58416,-3.46873 -6.85737,-6.15182 -0.9468,-1.99524 -1.26359,-6.39438 -0.66385,-9.21875 0.68144,-3.20912 3.00936,-6.34572 4.93862,-6.65422 1.93788,-0.30988 5.95403,0.89575 6.93953,2.08321 0.27895,0.33611 0.13274,0.3908 -1.04489,0.3908 -5.11546,0 -8.11822,2.36464 -8.42474,6.63442 -0.1715,2.38902 0.42926,4.30949 1.9978,6.38644 1.34476,1.78062 3.62506,3.38423 4.80925,3.38209 0.37024,-6.7e-4 1.56614,-0.34282 2.65754,-0.76032 1.09141,-0.41751 2.3213,-0.83833 2.73309,-0.93517 0.68622,-0.16136 0.73345,-0.1255 0.56588,0.42959 -0.46717,1.54757 -1.01691,2.25474 -2.49057,3.20383 -2.31292,1.48961 -3.31043,1.72348 -5.16029,1.2099 z m 3.34317,-2.79819 c -0.191,-0.0764 -0.4192,-0.067 -0.50712,0.0209 -0.0879,0.0879 0.0684,0.15045 0.34727,0.13896 0.30822,-0.0127 0.37091,-0.0754 0.15985,-0.15985 z m -3.37974,-5.54709 c -1.3176,-0.86333 -1.85011,-3.12002 -1.11628,-4.7306 0.31781,-0.69751 1.4391,-1.44782 2.16369,-1.44782 0.60208,0 2.21251,2.04755 2.35064,2.98865 0.16166,1.1015 -0.17901,2.23782 -0.90147,3.00684 -0.68274,0.72675 -1.56765,0.79159 -2.49658,0.18293 z m 5.97596,-1.50019 c 0,-1.6406 -0.68047,-3.69904 -1.49063,-4.5092 -0.51917,-0.51917 -0.97727,-0.70249 -1.78659,-0.71497 -0.88341,-0.0136 -0.98138,-0.0599 -0.52017,-0.24604 0.31254,-0.1261 0.64698,-0.35667 0.74322,-0.51239 0.30058,-0.48635 1.87793,-0.31007 2.79359,0.31218 1.18742,0.80695 1.88375,2.26492 2.04578,4.28348 0.13165,1.64006 0.1156,1.69371 -0.62661,2.09575 -1.09601,0.59369 -1.15859,0.5554 -1.15859,-0.70881 z m 8.56844,13.26675 c 2.31786,-3.31574 3.16933,-6.55826 3.149,-11.99185 -0.0175,-4.6671 -0.51836,-6.70986 -2.75728,-11.24479 -1.51511,-3.06888 -1.82584,-3.50046 -4.31031,-5.98682 -2.39633,-2.39816 -2.96464,-2.81835 -5.41219,-4.00152 -1.56728,-0.75765 -2.60513,-1.40209 -2.43116,-1.50961 0.48403,-0.29914 5.76592,-1.19356 8.08535,-1.36914 1.85866,-0.1407 2.3802,-0.0727 4.23628,0.55235 2.50123,0.84232 3.44508,1.38099 5.50401,3.14119 2.83829,2.42647 5.0684,6.19508 6.19918,10.47584 0.55703,2.10871 0.67468,3.17825 0.70082,6.37062 0.0372,4.54045 -0.38427,6.25059 -2.3749,9.63713 -1.51455,2.57662 -3.22325,4.32369 -5.1513,5.267 -1.53409,0.75056 -6.40781,2.56121 -6.54439,2.43133 -0.0435,-0.0414 0.45461,-0.83864 1.10689,-1.77173 z m -62.27885,-26.03577 c 0.80037,-0.20508 3.7969,-0.84485 6.65896,-1.42173 2.86207,-0.57687 5.95769,-1.35624 6.87917,-1.73193 0.92147,-0.37569 2.62791,-0.96609 3.79207,-1.31199 9.89616,-2.94037 15.53288,-4.66672 17.85938,-5.46977 1.23693,-0.42695 2.9038,-0.93589 3.70417,-1.13096 0.80036,-0.19507 4.13411,-1.13409 7.40833,-2.08671 3.27422,-0.95261 7.91765,-2.28409 10.31875,-2.95884 8.8543,-2.48821 11.33396,-4.45199 13.45682,-10.65718 0.56434,-1.64956 0.56609,-1.74122 0.56609,-29.50189 0,-26.669084 -0.0215,-27.922344 -0.50809,-29.623904 -0.72504,-2.535304 -1.75751,-4.275232 -3.48718,-5.876601 -2.00274,-1.854187 -3.56651,-2.446305 -11.97413,-4.533998 -15.50988,-3.851247 -26.09577,-6.565223 -34.56601,-8.86192 -2.69214,-0.72997 -5.96635,-1.616591 -7.27604,-1.97027 -5.37719,-1.452101 -8.9482,-1.487123 -14.41979,-0.14142 -6.629925,1.630586 -34.330855,7.786213 -44.714585,9.936353 -12.30177,2.547306 -15.08927,3.513646 -17.33248,6.008641 -1.54059,1.713505 -2.39989,3.390184 -3.05976,5.970288 -0.49502,1.9355 -0.51137,3.029066 -0.44571,29.806401 0.0655,26.71549 0.0879,27.84351 0.57503,28.98781 0.80113,1.88186 2.67642,4.65259 4.02082,5.94075 2.00746,1.92348 4.6578,3.069 15.05148,6.50548 20.18542,6.67394 33.7136,11.20258 37.17395,12.44422 5.8897,2.11334 7.562165,2.3855 10.318755,1.67917 z m -6.879165,-2.33861 c 0,-0.49766 0.51367,-1.09174 1.55318,-1.79633 0.67372,-0.45665 1.624755,-1.17453 2.113405,-1.5953 l 0.88846,-0.76504 0.56675,0.82268 c 0.31171,0.45248 1.03374,1.0852 1.60451,1.40606 1.57378,0.8847 1.47084,1.15563 -0.56141,1.47749 -3.11519,0.49337 -6.164895,0.7162 -6.164895,0.45044 z m 9.000445,-3.7229 c -1.33575,-0.84322 -2.52263,-2.65409 -2.90349,-4.42998 -0.38099,-1.77648 -0.36367,-55.3304 0.0188,-58.146881 0.14821,-1.091406 0.5443,-2.579687 0.8802,-3.307291 0.64132,-1.389179 2.44519,-3.375773 3.61668,-3.98304 0.75764,-0.392735 7.63706,-2.178083 11.61236,-3.013635 2.42282,-0.509244 6.40275,-1.464378 13.09687,-3.143088 6.74293,-1.690949 19.65361,-4.789694 21.16667,-5.080299 0.87312,-0.167697 2.89719,-0.644033 4.49792,-1.058525 1.60073,-0.414493 3.84975,-0.899217 4.99782,-1.077165 1.87511,-0.290635 2.23592,-0.273064 3.54752,0.172763 1.91524,0.651011 3.05107,1.755268 3.663,3.561182 0.46537,1.373386 0.493,2.851639 0.51671,27.644719 0.0138,14.40657 -0.075,27.14625 -0.19723,28.31042 -0.27037,2.5746 -1.38218,5.02903 -2.81633,6.21731 -1.52517,1.2637 -3.23664,1.95603 -8.52087,3.44692 -14.81703,4.18046 -20.0772,5.72053 -25.13541,7.35913 -2.25558,0.73069 -6.12511,1.93912 -8.59896,2.6854 -2.47386,0.74628 -6.10526,1.87833 -8.06979,2.51567 -3.08674,1.0014 -5.10812,1.58276 -7.27604,2.0926 -1.12073,0.26357 -3.03123,-0.0938 -4.09643,-0.76621 z m 5.74216,-3.05093 c 0.63726,-0.25642 1.00858,-1.25101 0.75975,-2.03501 -0.0857,-0.27006 -0.51513,-0.70325 -0.95425,-0.96264 -0.43912,-0.2594 -1.24532,-1.14836 -1.79156,-1.97548 -0.87353,-1.3227 -1.11011,-1.51362 -1.96412,-1.58501 -0.79498,-0.0665 -1.05026,0.0399 -1.4085,0.58661 -0.96549,1.47352 0.48109,4.66008 2.57585,5.67413 1.25547,0.60777 1.85284,0.67161 2.78283,0.2974 z m 53.12301,-15.85523 c 1.09528,-0.44829 2.20724,-2.38993 2.23735,-3.90675 0.0248,-1.25078 -1.89026,-2.1635 -2.64113,-1.25875 -0.54064,0.65142 -2.10976,3.8907 -2.10976,4.35536 0,0.94461 1.22239,1.3386 2.51354,0.81014 z m -26.42046,-9.64876 c 4.54957,-1.16827 5.38664,-1.46507 6.24598,-2.21466 1.06902,-0.93248 0.10994,-3.49687 -1.30782,-3.49687 -0.37076,0 -2.23735,0.40976 -4.14798,0.91057 -1.91064,0.50082 -4.04258,0.99106 -4.73767,1.08943 -0.69508,0.0984 -1.64758,0.43664 -2.11666,0.75171 -1.63199,1.09616 -1.15676,3.67926 0.73461,3.99292 0.47287,0.0784 2.62739,-0.33922 5.32954,-1.0331 z m -14.27241,-8.85004 c 2.87547,-0.99356 4.8409,-2.98239 6.74527,-6.82556 0.99668,-2.0114 1.09719,-2.40805 1.21145,-4.78093 0.2184,-4.53537 -0.88814,-7.68195 -3.5603,-10.12415 -2.56016,-2.33984 -4.72413,-3.076158 -7.77372,-2.6451 -3.92484,0.554772 -7.66369,3.48676 -9.69979,7.60652 -0.90303,1.82717 -0.97371,2.15063 -1.0807,4.94578 -0.14076,3.67729 0.17982,4.79754 2.20588,7.70833 2.28528,3.28322 4.75696,4.61514 8.53476,4.59915 1.25631,-0.005 2.57037,-0.19145 3.41715,-0.48404 z m -0.47467,-12.61704 c -1.21264,-0.62708 -1.8251,-1.84708 -1.82626,-3.63781 -8.5e-4,-1.31965 0.0968,-1.62464 0.69911,-2.18281 0.81519,-0.7555 1.33226,-0.8017 2.67823,-0.23932 1.36871,0.57188 2.13823,1.3709 2.45568,2.54983 0.34555,1.28328 -0.0687,2.94965 -0.87338,3.51327 -0.74406,0.52116 -2.12215,0.51977 -3.13338,-0.003 z m 32.43629,6.05847 c 1.45288,-0.38233 3.43784,-1.62266 4.87419,-3.04571 6.13582,-6.07898 4.94654,-16.542665 -2.28493,-20.103446 -1.07436,-0.529017 -1.66746,-0.623549 -3.91217,-0.623549 -2.42663,0 -2.7936,0.07 -4.42933,0.844849 -2.91009,1.378526 -5.68063,4.579887 -6.8106,7.869646 -1.61018,4.68784 -0.52186,9.19444 3.03211,12.55563 2.08451,1.97145 3.41071,2.49827 6.48802,2.57729 1.38245,0.0355 2.75167,0.002 3.04271,-0.0747 z m 0.18581,-12.43597 c -1.68643,-1.06876 -2.25896,-4.260552 -0.99158,-5.527929 1.73732,-1.737325 5.25959,0.376225 5.25959,3.156039 0,2.59407 -2.08716,3.75398 -4.26801,2.37189 z m 9.60523,-18.943726 c 1.50701,-0.834151 1.61802,-2.412695 0.25392,-3.610392 -1.07615,-0.944875 -2.01455,-1.046359 -2.76219,-0.298722 -1.22315,1.223157 -0.84775,2.611607 0.98456,3.64142 0.79124,0.444707 1.10449,0.499739 1.52371,0.267694 z M 83.286745,156.68803 c -5.22487,-1.75398 -15.36256,-5.14432 -22.52821,-7.53409 -7.16565,-2.38977 -13.4789,-4.57483 -14.02943,-4.85569 -2.60117,-1.32702 -4.93545,-5.08112 -5.4088,-8.69871 -0.17533,-1.33997 -0.20987,-10.89886 -0.0999,-27.6368 0.19092,-29.049176 0.0611,-27.377356 2.3002,-29.625798 2.01393,-2.022349 2.7176,-1.999585 11.21635,0.362856 8.94308,2.485954 11.38141,3.1464 19.31458,5.231561 4.36563,1.147463 10.20516,2.683345 12.97675,3.41307 6.63308,1.746412 7.80706,2.210699 9.74611,3.854407 1.24735,1.057364 1.77059,1.733021 2.28027,2.944517 l 0.66145,1.572275 0.0749,29.612762 0.0749,29.61276 -0.65893,1.34679 c -0.7586,1.55052 -2.05012,2.87283 -3.19503,3.27119 -1.87359,0.65189 -2.9628,0.40615 -12.72525,-2.8711 z M 100.45636,90.768934 c -0.479875,-0.465109 -0.872495,-0.941359 -0.872495,-1.058333 0,-0.116975 0.776335,-0.212681 1.725175,-0.212681 h 1.72517 l -0.53992,1.058333 c -0.29696,0.582083 -0.68066,1.058333 -0.85268,1.058333 -0.17201,0 -0.70538,-0.380543 -1.18525,-0.845652 z m -2.989155,-4.424009 c -1.52797,-0.412385 -5.75469,-1.547695 -9.39271,-2.522911 -23.43838,-6.282942 -35.32555,-9.587784 -35.66583,-9.915726 -0.11642,-0.112193 0.71702,-0.35381 1.85208,-0.536926 3.11584,-0.502668 13.78258,-2.589603 17.67417,-3.457929 1.89177,-0.422108 5.70177,-1.252867 8.46666,-1.84613 12.34998,-2.649933 16.4041,-3.560493 20.234505,-4.544699 7.86994,-2.022146 10.36656,-2.075386 16.80716,-0.358409 18.33002,4.88653 37.05035,9.566649 39.88594,9.971561 1.2733,0.181824 2.3151,0.420405 2.3151,0.53018 0,0.109774 -0.44648,0.276271 -0.99219,0.369992 -2.17583,0.373686 -4.88776,0.948821 -8.79739,1.865715 -7.94126,1.862399 -16.02891,3.80903 -17.99167,4.330447 -1.0914,0.289939 -4.42515,1.111574 -7.40833,1.825857 -2.98318,0.714283 -7.74568,1.859183 -10.58333,2.544222 -7.5363,1.81934 -10.81299,2.482161 -12.30312,2.488722 -0.72761,0.0032 -2.573085,-0.331581 -4.101045,-0.743966 z M 104.7813,228.67598 c 4.41705,-0.94527 10.77895,-3.74062 11.47555,-5.04222 0.14319,-0.26756 0.26035,-0.90496 0.26035,-1.41645 0,-1.19604 -0.85162,-1.85025 -4.18167,-3.21231 l -2.46189,-1.00696 2.46189,-1.18291 c 2.01186,-0.96667 2.82461,-1.55116 4.44625,-3.19746 2.44392,-2.48108 4.26473,-5.49204 5.49611,-9.08853 1.15743,-3.38055 1.40199,-7.00841 0.75677,-11.22623 -0.51305,-3.3538 -1.1293,-5.198 -2.9501,-8.82857 -3.05887,-6.09923 -5.07028,-8.40635 -9.08811,-10.42422 -3.45147,-1.73344 -5.17561,-2.07722 -9.69279,-1.93269 -4.096455,0.13107 -6.851925,0.69897 -12.317455,2.5386 -7.83655,2.6377 -11.57954,5.72579 -14.09037,11.62506 -2.00203,4.70385 -2.52357,7.94877 -2.05137,12.76341 0.35258,3.595 0.97591,6.04314 2.25122,8.84162 1.01793,2.23369 3.36226,5.77805 4.8648,7.35502 l 0.94536,0.99219 h -1.12913 c -0.62102,0 -1.7064,0.24834 -2.41196,0.55186 -1.56835,0.67469 -1.87365,1.44575 -1.08054,2.72903 0.61297,0.99181 0.8205,1.09868 5.25322,2.70549 3.94245,1.42908 8.7106,3.36304 10.4234,4.22772 3.38064,1.70666 9.935165,2.84602 12.820465,2.22855 z" /></g></svg>
