<?xml version="1.0" encoding="UTF-8" standalone="no"?>
<!-- Created with Inkscape (http://www.inkscape.org/) -->

<svg
   width="210mm"
   height="297mm"
   viewBox="0 0 210 297"
   version="1.1"
   id="svg1"
   xml:space="preserve"
   inkscape:version="1.3.2 (091e20e, 2023-11-25, custom)"
   sodipodi:docname="pink_tracked_robot.svg"
   xmlns:inkscape="http://www.inkscape.org/namespaces/inkscape"
   xmlns:sodipodi="http://sodipodi.sourceforge.net/DTD/sodipodi-0.dtd"
   xmlns="http://www.w3.org/2000/svg"
   xmlns:svg="http://www.w3.org/2000/svg"><sodipodi:namedview
     id="namedview1"
     pagecolor="#ffffff"
     bordercolor="#000000"
     borderopacity="0.25"
     inkscape:showpageshadow="2"
     inkscape:pageopacity="0.0"
     inkscape:pagecheckerboard="0"
     inkscape:deskcolor="#d1d1d1"
     inkscape:document-units="mm"
     inkscape:zoom="0.99864618"
     inkscape:cx="396.53684"
     inkscape:cy="561.25984"
     inkscape:window-width="2880"
     inkscape:window-height="1514"
     inkscape:window-x="-11"
     inkscape:window-y="-11"
     inkscape:window-maximized="1"
     inkscape:current-layer="layer1" /><defs
     id="defs1" /><g
     inkscape:label="Layer 1"
     inkscape:groupmode="layer"
     id="layer1"><rect
       style="fill:#ffc0cb;stroke-width:0.264999;fill-opacity:1"
       id="rect331"
       width="73.388939"
       height="49.809101"
       x="71.269402"
       y="60.40678"
       rx="17.486176"
       ry="13.776991" /><rect
       style="fill:#ffc0cb;stroke-width:0.264999;fill-opacity:1"
       id="rect332"
       width="73.918816"
       height="78.952713"
       x="70.474571"
       y="112.60035"
       rx="17.486176"
       ry="23.844778" /><rect
       style="fill:#808080;stroke-width:0.264999"
       id="rect334"
       width="157.90544"
       height="62.261379"
       x="24.639606"
       y="175.65799"
       rx="29.673508"
       ry="31.13069" /><rect
       style="fill:#ffc0cb;stroke-width:0.264999;fill-opacity:1"
       id="rect333"
       width="141.2141"
       height="46.894741"
       x="32.322926"
       y="183.07492"
       rx="25.699379"
       ry="23.447371" /><path
       id="path17"
       style="fill:#000000"
       d="m 60.078771,240.80877 c -5.42502,-0.29994 -11.32008,-1.46599 -15.38665,-3.04351 -4.10868,-1.59384 -9.92359,-5.42231 -13.40364,-8.82479 -3.50808,-3.42989 -6.78382,-9.317 -8.23923,-14.80744 -1.06471,-4.01654 -1.28561,-7.09785 -0.78654,-10.97132 1.03188,-8.00879 3.11296,-12.7823 8.06834,-18.50692 3.2476,-3.75173 7.62632,-6.55969 13.86262,-8.88976 4.68229,-1.74944 6.66803,-1.99248 16.27937,-1.99248 h 8.44529 l 0.14798,-0.8599 c 0.0814,-0.47294 0.17608,-7.07121 0.21043,-14.66281 l 0.0624,-13.80291 -2.64584,-0.30286 c -4.45882,-0.51039 -5.32977,-0.74257 -6.06551,-1.61696 -0.6712,-0.79766 -0.95066,-1.85864 -0.86255,-3.2746 0.0441,-0.70863 -0.0443,-0.80116 -0.90184,-0.9438 -0.5229,-0.087 -1.71352,-0.55567 -2.64583,-1.04155 -1.05997,-0.5524 -2.78005,-1.11356 -4.59071,-1.49766 -1.59258,-0.33784 -3.53943,-0.92925 -4.32632,-1.31424 -3.19623,-1.56377 -5.71834,-5.21741 -6.10599,-8.84545 -0.16521,-1.54619 -0.3284,-1.98624 -1.00311,-2.70495 -0.44319,-0.47209 -1.19811,-1.45367 -1.6776,-2.18127 -0.47949,-0.7276 -1.0854,-1.56162 -1.34647,-1.85338 -1.52474,-1.70396 -9.54726,-17.66739 -12.71586,-25.302389 l -1.05897,-2.55168 -1.9709,-0.29314 c -1.084,-0.16122 -2.3781,-0.46327 -2.87578,-0.67121 -1.40558,-0.58729 -4.00677,-2.44218 -4.60714,-3.28531 -0.29807,-0.41861 -1.37092,-1.19672 -2.3841,-1.72913 -4.32937,-2.27502 -6.39058,-4.98563 -6.59924,-8.678368 -0.132,-2.336095 0.078,-3.373505 0.93581,-4.622838 0.38474,-0.560339 1.02347,-1.879513 1.41942,-2.931498 0.39595,-1.051984 1.1354,-2.491037 1.64322,-3.197894 0.50783,-0.706857 1.16221,-1.825247 1.45419,-2.485312 1.59234,-3.599753 6.35736,-6.286756 10.56425,-5.957201 1.92504,0.150802 4.28264,1.178232 6.42329,2.799247 0.79645,0.603112 1.52537,1.096568 1.61983,1.096568 0.0945,0 0.24321,-0.446484 0.33057,-0.992187 0.21652,-1.352644 1.26428,-3.375041 2.55621,-4.934033 3.2191,-3.88454 7.79324,-4.971896 11.14474,-2.649306 1.77709,1.231527 2.59516,3.917033 1.70958,5.612103 -0.20529,0.392956 -0.98405,1.177455 -1.73057,1.743332 -2.07941,1.576244 -3.11995,2.938443 -3.48268,4.559282 -0.28494,1.273248 -0.25425,1.627977 0.30024,3.471261 0.82992,2.758845 1.01992,7.21773 0.40966,9.613814 -0.40693,1.59775 -1.59941,4.34224 -2.30573,5.30662 -0.26079,0.35608 0.0109,1.12268 1.54698,4.36562 1.02483,2.16354 2.22751,4.8862 2.67263,6.05037 2.12257,5.55141 2.91394,7.433469 4.68276,11.136639 1.04896,2.19609 2.57631,5.18503 3.3941,6.6421 l 1.4869,2.64921 1.91708,0.17818 c 1.84132,0.17113 3.79217,0.88752 5.1514,1.8917 0.54439,0.40218 0.59006,0.38667 0.9261,-0.31446 0.46386,-0.9678 1.86244,-1.23066 5.38044,-1.01126 3.12758,0.19505 4.81537,0.84117 6.43926,2.46506 l 1.0693,1.06929 2.06655,-2.05684 c 1.96179,-1.95257 5.36404,-4.26108 6.27991,-4.26108 0.86617,0 0.35014,-0.44204 -1.65323,-1.41618 -3.92007,-1.90612 -7.04375,-5.39763 -8.59566,-9.60784 l -0.86159,-2.337439 -2.10769,-0.15995 c -2.66081,-0.20192 -4.54105,-0.99436 -5.92705,-2.49799 -1.89138,-2.05191 -1.93143,-2.26569 -1.95575,-10.43893 -0.0255,-8.56987 0.13501,-9.479781 1.99317,-11.298417 1.65087,-1.615759 2.79181,-2.033075 5.99233,-2.191781 l 2.73954,-0.135847 0.47336,-1.249746 c 0.51678,-1.364335 2.44912,-4.206242 4.02774,-5.923592 l 1.00003,-1.087922 v -6.254265 c 0,-3.842808 -0.0985,-6.254266 -0.25538,-6.254266 -0.52631,0 -2.22655,-1.754006 -2.69077,-2.775855 -0.67714,-1.490541 -0.62206,-3.073343 0.16071,-4.618051 1.58835,-3.134462 5.29601,-3.788767 8.06049,-1.42247 2.38434,2.040902 2.25907,6.004785 -0.25667,8.121636 -0.45411,0.382107 -0.93558,0.69474 -1.06993,0.69474 -0.14072,0 -0.24429,2.123348 -0.24429,5.008458 v 5.008457 l 1.12448,-0.623972 c 0.61847,-0.343185 2.08638,-0.867919 3.26203,-1.166076 2.03108,-0.515102 3.17102,-0.550964 22.886459,-0.719988 23.14526,-0.198428 23.10093,-0.201085 26.82507,1.607392 l 1.72904,0.839642 v -4.970162 -4.970161 l -0.78007,-0.403392 c -1.33352,-0.68959 -2.66215,-2.928099 -2.65803,-4.478325 0.008,-2.969274 2.81057,-5.637095 5.66709,-5.394393 2.65502,0.225581 4.38485,1.687547 4.94464,4.178956 0.4662,2.074908 -0.84232,4.992977 -2.56096,5.711069 l -0.9085,0.379597 v 6.294546 6.294547 l 0.94818,0.911798 c 1.20941,1.163009 3.92402,5.197046 4.3348,6.441721 l 0.31431,0.952369 h 2.1813 c 2.93625,0 4.39915,0.530475 6.13354,2.224135 1.8994,1.854795 2.00199,2.483804 1.90686,11.691118 -0.0722,6.98771 -0.10697,7.44046 -0.64841,8.44204 -1.3437,2.48561 -3.71821,3.85125 -7.03819,4.04782 -1.96173,0.11615 -2.06067,0.15279 -2.20116,0.81502 -0.52367,2.468519 -2.47903,5.714309 -4.93165,8.186299 -1.24995,1.2598 -4.76812,3.62055 -6.15895,4.13274 -0.4257,0.15677 -0.20426,0.31371 1.13256,0.80267 2.03984,0.74611 3.16961,1.51441 5.37374,3.65443 l 1.70628,1.65666 1.43689,-1.00386 c 2.06685,-1.44396 3.49042,-1.78658 7.42317,-1.78658 2.90994,0 3.40813,0.0636 3.78843,0.48386 0.24084,0.26612 0.43788,0.68284 0.43788,0.92604 0,0.58584 0.14487,0.56043 1.14243,-0.20045 1.37744,-1.05062 3.32175,-1.75225 5.02611,-1.81373 l 1.58488,-0.0572 1.3603,-2.11666 c 2.64995,-4.12342 5.05012,-9.13894 8.35667,-17.462499 2.50154,-6.2971 3.2436,-8.18895 3.8398,-9.78935 l 0.5913,-1.58727 -0.76717,-1.51976 c -1.74463,-3.4561 -2.09206,-7.769005 -0.99656,-12.371326 0.83664,-3.514828 0.9206,-5.471221 0.27896,-6.499833 -0.27834,-0.44621 -1.41307,-1.493913 -2.52161,-2.328229 -2.29159,-1.724703 -2.54927,-2.088434 -2.54927,-3.598458 0,-1.510186 0.53099,-2.622919 1.79664,-3.764973 1.35109,-1.219158 2.83652,-1.639998 5.12281,-1.451355 4.06853,0.335696 7.61108,3.645007 8.97322,8.382431 0.18828,0.654844 0.37288,1.232715 0.4102,1.284158 0.0373,0.05144 0.93859,-0.507975 2.00281,-1.24315 2.76736,-1.911732 4.22099,-2.490693 6.60855,-2.6321 2.49911,-0.148013 5.1808,0.582197 6.88432,1.874562 1.29768,0.984477 2.72901,2.971298 3.09471,4.295754 0.1359,0.492208 0.80861,1.62465 1.4949,2.516537 1.11711,1.451767 2.03377,3.290018 3.59155,7.202389 0.55129,1.384579 0.6476,3.495523 0.22835,5.005013 -0.66463,2.39295 -3.55861,5.30851 -6.78237,6.83295 -0.89738,0.42435 -2.37322,1.43329 -3.27966,2.24209 -2.15394,1.92192 -5.02566,3.34417 -7.17236,3.55216 l -1.63246,0.15818 -1.099,2.64583 c -0.60445,1.45521 -1.34535,3.24115 -1.64644,3.96875 -1.58561,3.831789 -3.46249,7.750619 -6.15445,12.850179 -3.65696,6.92762 -5.79707,10.40885 -7.57883,12.3282 -1.30109,1.40156 -1.36032,1.53123 -1.48308,3.24689 -0.17004,2.37655 -1.12415,4.39652 -3.011,6.37469 -1.82973,1.91828 -3.90196,3.00786 -6.51091,3.42345 -2.39316,0.38122 -4.48251,0.87377 -7.21896,1.70181 l -2.11667,0.6405 0.0716,1.73914 c 0.10163,2.46849 -0.37231,3.48281 -1.80797,3.86939 -1.62848,0.43851 -5.5162,0.79712 -6.66415,0.61472 l -0.99219,-0.15765 v 14.81455 14.81454 l 6.01927,0.14954 c 7.35441,0.1827 9.42782,0.63138 14.41932,3.12028 7.55643,3.76786 13.17522,10.18785 16.0501,18.33873 1.21172,3.4355 2.14068,8.34422 2.13941,11.3049 -0.002,4.59635 -1.28022,10.75783 -2.92973,14.12197 -2.02566,4.13132 -7.88679,10.78358 -11.98606,13.60395 -2.70241,1.85931 -9.47853,4.73427 -12.48715,5.29803 -5.98322,1.12114 -7.03803,1.14544 -52.23557,1.20319 -23.792659,0.0304 -43.973749,0.0158 -44.846879,-0.0325 z m 20.25803,-3.71166 c 0.43893,-0.43996 0.60789,-2.47309 0.27676,-3.3303 l -0.28106,-0.7276 h -4.76401 c -5.35002,0 -4.76701,-0.23228 -5.14695,2.05063 -0.17839,1.0719 0.19188,2.09622 0.82085,2.27081 0.98875,0.27446 8.78301,0.0486 9.09441,-0.26354 z m 14.12281,-0.14802 c 0.49094,-0.70093 0.55481,-3.13194 0.0944,-3.59238 -0.35451,-0.35452 -9.10802,-0.45894 -9.64106,-0.11501 -0.31628,0.20407 -0.88535,1.98207 -0.88788,2.77407 -8.1e-4,0.25466 0.23665,0.70115 0.52769,0.99219 0.48753,0.48752 0.88195,0.52917 5.01208,0.52917 4.33258,0 4.49673,-0.0197 4.8948,-0.58804 z m 14.375919,0.17616 c 0.4554,-0.31898 0.58804,-0.67316 0.58804,-1.57028 0,-0.63712 -0.11612,-1.4638 -0.25804,-1.83708 l -0.25803,-0.67868 h -4.89203 c -5.619989,0 -5.439819,-0.0822 -5.439819,2.483 0,1.11083 0.1106,1.52388 0.46302,1.72914 0.2621,0.15266 2.360599,0.27318 4.835919,0.27773 3.53906,0.007 4.48503,-0.0705 4.96094,-0.40383 z m 11.83283,0.14512 c 1.30968,-0.003 2.55984,-0.11901 2.77812,-0.25723 0.4732,-0.29962 0.48507,-2.5384 0.0181,-3.41095 -0.29065,-0.54309 -0.47416,-0.56298 -5.19333,-0.56298 h -4.89203 l -0.25804,0.67868 c -0.36442,0.95851 -0.32055,2.90935 0.0727,3.23232 0.52013,0.42719 1.51373,0.55573 3.37344,0.43642 0.94588,-0.0607 2.79135,-0.113 4.10104,-0.11626 z m -53.541819,-1.20231 c 0.10056,-0.58971 0.099,-1.48268 -0.004,-1.98438 l -0.18634,-0.91218 -4.82901,-0.0722 -4.829,-0.0721 -0.38589,0.92355 c -0.4973,1.19023 -0.48841,1.99935 0.0301,2.73966 0.40854,0.58326 0.50227,0.59264 5.21842,0.52189 l 4.8024,-0.072 z m 71.295949,0.53887 c 0.46869,-0.71531 0.35272,-2.55384 -0.20334,-3.22386 -0.2157,-0.2599 -1.50658,-0.34386 -5.28661,-0.34386 h -5.00124 l -0.25803,0.67868 c -0.43523,1.14473 -0.32125,2.96238 0.20498,3.26888 0.267,0.15551 2.50467,0.27309 5.28557,0.27773 l 4.82255,0.008 z m 12.67971,0.29651 c 0.59344,-0.43393 0.62883,-2.10416 0.0693,-3.26987 l -0.34879,-0.72665 -4.22925,0.0958 c -2.32608,0.0527 -4.31854,0.149 -4.42768,0.21405 -0.10914,0.0651 -0.19844,0.93678 -0.19844,1.93717 0,2.16576 -0.35516,2.01933 5.04266,2.07898 2.70166,0.0298 3.71209,-0.0515 4.09223,-0.32946 z m -98.044199,-0.93642 c 0.15065,-0.28147 0.2739,-1.1557 0.2739,-1.94271 v -1.43094 l -2.61481,-0.68528 c -1.43814,-0.3769 -3.42285,-1.07927 -4.41046,-1.5608 -1.19368,-0.58202 -1.83045,-0.77115 -1.89944,-0.56417 -0.0571,0.17125 -0.46068,0.80404 -0.89688,1.4062 -0.4362,0.60216 -0.75628,1.28389 -0.71127,1.51497 0.14251,0.73177 3.2354,2.18507 6.34848,2.98305 3.60255,0.92344 3.56731,0.92091 3.91048,0.27968 z m 106.591949,-0.44848 c 2.51846,-0.86356 4.52329,-1.85719 4.70555,-2.33214 0.13756,-0.35848 -0.59783,-1.95528 -1.32679,-2.88094 -0.36583,-0.46454 -0.47931,-0.44592 -2.71794,0.44607 -1.28489,0.51197 -2.93148,1.07473 -3.65908,1.25058 -1.68653,0.4076 -1.98745,0.65511 -1.85193,1.5232 0.46354,2.96929 0.2945,2.6889 1.62104,2.6889 0.66018,0 2.1133,-0.31305 3.22915,-0.69567 z m -119.346849,-5.3236 c 0.74934,-1.08829 1.23414,-2.44476 0.96231,-2.69249 -1.57211,-1.43269 -5.95855,-5.04657 -6.12541,-5.04657 -0.12032,0 -0.73793,0.529 -1.37248,1.17556 -1.12647,1.14778 -1.14357,1.19106 -0.72366,1.83192 0.86751,1.32398 4.04956,4.30132 5.20679,4.87181 1.48692,0.73303 1.44941,0.73559 2.05245,-0.14023 z m 128.853029,0.14729 c 1.4992,-0.69385 4.984,-4.0632 5.23444,-5.06102 0.27213,-1.08426 -0.0111,-1.47082 -1.61625,-2.20567 l -1.47867,-0.67696 -2.89021,2.86745 c -1.58962,1.57709 -2.88726,2.92944 -2.88365,3.00521 0.0153,0.32199 1.87396,2.6513 2.11556,2.6513 0.14569,0 0.82915,-0.26114 1.51878,-0.58031 z m -14.53869,-1.2815 c 3.27403,-0.53259 6.68728,-2.10535 9.6105,-4.42833 5.53037,-4.39479 8.27909,-9.56784 8.61438,-16.21214 0.2174,-4.30818 -0.37769,-7.33708 -2.2189,-11.29375 -2.70059,-5.80347 -7.90356,-10.10342 -14.36861,-11.87481 -1.62418,-0.44501 -4.55001,-0.46882 -52.63154,-0.42822 -35.758879,0.0302 -51.350979,0.12952 -52.387499,0.33372 -7.67279,1.51161 -12.91958,5.47799 -16.09395,12.16643 -1.54492,3.25516 -1.78774,4.49044 -1.76775,8.99266 0.0172,3.86815 0.0657,4.24423 0.85364,6.62243 1.85871,5.6097 5.24202,9.61621 11.08269,13.12409 4.00257,2.40392 6.0913,3.0148 11.1965,3.27456 6.08292,0.30952 96.066999,0.0558 98.110539,-0.27664 z m -54.672749,-2.98389 c -0.41326,-0.43989 -0.57529,-0.94495 -0.57529,-1.79321 0,-1.66205 0.55558,-2.35692 1.884479,-2.35692 1.33904,0 1.97197,0.33828 2.48341,1.32729 0.35016,0.67714 0.35547,0.90004 0.0395,1.6563 -0.54723,1.30971 -1.14425,1.77891 -2.26349,1.77891 -0.6962,0 -1.16539,-0.18317 -1.568599,-0.61237 z m 16.490329,-0.0574 c -1.13114,-0.59139 -1.70712,-1.43574 -1.7139,-2.51247 -0.008,-1.2251 0.58639,-2.02889 1.73381,-2.34571 1.30334,-0.35987 2.35038,0.0615 2.8691,1.15462 0.57083,1.20292 0.52514,2.04432 -0.16011,2.94862 -0.31812,0.4198 -0.58626,0.78337 -0.59586,0.80792 -0.01,0.0246 -0.31487,0.11605 -0.67837,0.20333 -0.38286,0.0919 -0.99486,-0.0159 -1.45467,-0.25631 z m -29.602929,-0.4119 c -1.97274,-1.55175 -1.98346,-4.45607 -0.0199,-5.38784 1.07343,-0.50937 1.27811,-0.50937 2.2633,9e-5 1.0514,0.5437 1.82503,1.86644 1.82625,3.12247 7.9e-4,0.80641 -0.18643,1.20607 -0.89859,1.91823 -1.06156,1.06156 -2.116,1.17696 -3.17106,0.34705 z m -37.45554,-3.29783 c -6.83244,-2.06031 -11.28607,-6.59993 -12.98259,-13.23325 -1.6738,-6.54452 0.43288,-13.06532 5.9177,-18.31697 3.02844,-2.8997 7.38252,-4.53733 12.08913,-4.5469 2.787,-0.006 4.60447,0.45213 7.58149,1.9097 4.14132,2.02762 7.49858,5.88759 9.00578,10.35429 0.6627,1.96396 0.72617,2.49665 0.72913,6.11995 0.004,4.4982 -0.18724,5.31114 -2.14752,9.1442 -1.9333,3.7803 -5.20358,6.57989 -9.60688,8.22418 -1.97174,0.73629 -2.65953,0.85711 -5.30798,0.93241 -2.65435,0.0755 -3.32804,4.7e-4 -5.27826,-0.58761 z m 9.42724,-3.43414 c 6.11912,-2.30323 9.59095,-7.37208 9.59898,-14.01445 0.008,-6.67812 -3.65089,-11.91273 -9.92945,-14.20534 -2.01329,-0.73515 -6.13061,-0.80592 -8.31642,-0.14296 -3.33402,1.01122 -7.9304,4.70373 -9.33625,7.50028 -1.35728,2.69993 -1.87646,6.7645 -1.22959,9.62614 0.14802,0.65484 0.76651,2.20022 1.37441,3.43418 3.34172,6.78323 11.29893,10.26357 17.83832,7.80215 z m -7.77381,-4.56784 c -4.79624,-1.71797 -7.56167,-6.42718 -6.69542,-11.40154 0.38189,-2.193 1.06683,-3.50123 2.6752,-5.10959 2.24081,-2.24081 5.25049,-3.2318 8.50703,-2.80108 6.32748,0.8369 10.02416,8.14949 7.11109,14.06679 -1.04574,2.1242 -3.42075,4.4095 -5.24244,5.04443 -2.00808,0.6999 -4.72291,0.78575 -6.35546,0.20099 z m 5.69603,-3.76922 c 2.41067,-1.06635 3.57532,-2.82998 3.57448,-5.41281 -10e-4,-3.3926 -3.10852,-6.98452 -6.06067,-7.00565 -1.55131,-0.0111 -3.39288,0.73243 -4.38911,1.77211 -3.59707,3.75391 -2.65192,9.08737 1.93034,10.89286 1.65628,0.6526 3.0719,0.58203 4.94496,-0.24651 z m 89.254939,11.50224 c -1.21223,-0.35836 -2.58145,-0.84323 -3.0427,-1.07748 -5.75756,-2.924 -9.96677,-9.72994 -9.96677,-16.11542 0,-2.74016 0.74179,-5.66969 2.174,-8.58569 0.89177,-1.81567 1.54384,-2.68225 3.38452,-4.49792 1.8809,-1.85535 2.76325,-2.49419 5.04144,-3.65017 3.18561,-1.6164 5.16138,-2.0427 8.18422,-1.76582 8.80562,0.80653 15.71119,7.40515 16.99345,16.23809 0.23865,1.64395 0.21378,2.46814 -0.13651,4.52373 -1.31018,7.68842 -5.88661,12.64869 -13.77645,14.9319 -3.10236,0.89778 -5.81544,0.8974 -8.8552,-0.001 z m 8.57304,-3.29386 c 2.6348,-0.67387 4.56564,-1.80115 6.63732,-3.87508 2.01171,-2.01389 2.81057,-3.35639 3.51342,-5.90433 1.01219,-3.66939 0.66277,-7.1904 -1.05081,-10.58866 -2.9506,-5.85144 -8.56891,-8.84322 -15.00838,-7.99205 -3.14465,0.41567 -5.39712,1.5708 -7.98041,4.0926 -3.06672,2.99373 -4.00381,5.48271 -4.00891,10.64796 -0.004,3.53993 0.91069,6.01602 3.38676,9.17302 1.33166,1.69789 2.41135,2.5161 4.70246,3.56365 3.27763,1.4986 6.32768,1.77315 9.80855,0.88289 z m -6.41549,-4.59237 c -1.66141,-0.54502 -2.80307,-1.34118 -4.40613,-3.07267 -1.9121,-2.06529 -2.37571,-3.44404 -2.25134,-6.69543 0.0736,-1.92446 0.22666,-2.69771 0.7292,-3.6839 1.38751,-2.72285 3.76619,-4.66304 6.59767,-5.38144 3.11973,-0.79154 6.50309,0.25577 8.81667,2.72917 1.57508,1.6839 2.24771,3.02444 2.58877,5.1594 0.51273,3.20953 -0.42683,5.94973 -2.88756,8.42146 -1.05701,1.06174 -1.91845,1.64546 -3.05696,2.07143 -1.98179,0.74148 -4.64848,0.93809 -6.13032,0.45198 z m 5.59391,-3.98256 c 2.29934,-1.3475 3.3581,-3.81561 2.76886,-6.45458 -0.98828,-4.4262 -4.74505,-6.43419 -8.47637,-4.53061 -1.79519,0.91584 -3.41658,3.85759 -3.40917,6.18539 0.006,1.98321 1.7556,4.29569 4.03029,5.32787 1.26797,0.57536 3.62025,0.33115 5.08639,-0.52807 z m -40.61216,7.02484 c -5.13151,-1.64242 -8.80279,-5.51872 -10.17968,-10.74818 -1.95172,-7.41262 2.35075,-15.42961 9.61818,-17.92203 3.98615,-1.36708 7.79346,-0.95281 11.81377,1.28544 2.71212,1.50993 5.40679,5.05823 6.50587,8.56679 1.21178,3.86836 0.87963,6.96516 -1.20867,11.26903 -1.75791,3.62295 -4.62308,6.01004 -9.03609,7.52834 -1.94579,0.66945 -5.45608,0.67907 -7.51338,0.0206 z m 6.21594,-3.87772 c 4.08389,-1.06372 6.79802,-3.67355 7.95334,-7.64773 0.6412,-2.20565 0.42829,-4.50006 -0.65928,-7.10454 -2.0677,-4.95173 -6.76703,-7.70425 -11.67679,-6.83942 -2.33506,0.41132 -3.84251,1.22938 -5.73558,3.1126 -1.9249,1.91488 -2.58051,3.22372 -3.01513,6.01932 -0.86853,5.58663 2.107,10.26453 7.75212,12.1873 2.27909,0.77627 3.25698,0.82578 5.38132,0.27247 z m -4.35637,-3.43103 c -1.74726,-0.5629 -4.04175,-2.48338 -4.79227,-4.01111 -1.41624,-2.88283 -0.48185,-6.71856 2.14187,-8.79249 4.92437,-3.8925 11.3435,-1.11948 11.84407,5.11656 0.11229,1.39898 0.0272,1.90506 -0.52161,3.10393 -0.92274,2.01552 -2.06365,3.2044 -3.84026,4.00169 -1.99075,0.8934 -3.35417,1.05746 -4.8318,0.58142 z m 4.04659,-3.74873 c 2.35218,-1.20218 2.32272,-5.04511 -0.0508,-6.63074 -1.71804,-1.14773 -4.42483,-0.50061 -5.33034,1.27435 -0.90824,1.7803 -0.58882,3.58181 0.87798,4.95172 1.20447,1.1249 2.81145,1.26931 4.50319,0.40467 z m -34.974019,9.56494 c -4.53979,-1.27423 -7.74108,-4.12023 -9.28937,-8.25838 -1.54644,-4.13323 -1.39044,-7.75856 0.50558,-11.7489 1.25896,-2.64962 4.10863,-5.12292 7.55603,-6.55808 3.17887,-1.32336 6.96179,-1.20995 10.17129,0.30493 2.03321,0.95968 3.68489,2.42604 5.13057,4.5549 1.38214,2.03528 1.928929,3.51297 2.298379,6.2113 0.53683,3.92076 -0.40634,7.43205 -2.839979,10.57289 -1.49478,1.92914 -2.92255,3.05971 -5.31083,4.20534 -1.6944,0.81278 -2.23912,0.94037 -4.36562,1.0225 -1.62747,0.0629 -2.90061,-0.0383 -3.85605,-0.3065 z m 6.3774,-4.35897 c 4.77395,-1.79931 7.47873,-6.73861 6.16957,-11.26651 -0.89273,-3.08766 -3.24655,-6.1268 -5.63424,-7.27468 -1.01903,-0.48989 -1.72238,-0.60617 -3.76655,-0.62268 -2.22869,-0.018 -2.67846,0.0615 -3.96875,0.70173 -2.48086,1.23093 -3.8046,2.58237 -4.79912,4.89956 -0.77877,1.81449 -0.88094,2.32688 -0.88492,4.43814 -0.004,2.16749 0.0752,2.54882 0.86348,4.14994 0.99069,2.01238 2.76706,3.76747 4.87765,4.81922 1.79019,0.89209 5.00268,0.96193 7.14288,0.15528 z m -4.68643,-2.6293 c -2.95554,-0.71491 -4.88407,-2.96305 -5.32948,-6.21272 -0.14112,-1.02954 -0.0384,-1.47551 0.67246,-2.91947 3.36851,-6.84242 12.47432,-4.73915 12.45964,2.87794 -0.005,2.74342 -1.62171,4.9037 -4.48254,5.99073 -1.40458,0.5337 -2.00584,0.58142 -3.32008,0.26352 z m 3.43038,-4.27916 c 0.79584,-0.69875 0.93524,-0.98923 0.93524,-1.94869 0,-1.34777 -0.7343,-2.41343 -2.03847,-2.95835 -2.64102,-1.10348 -5.10643,1.86673 -3.53197,4.25515 1.1188,1.6972 3.12354,1.97915 4.6352,0.65189 z m -57.30765,16.14446 c 0.74661,-0.59447 1.35747,-1.11377 1.35747,-1.154 0,-0.0402 -0.46513,-1.07191 -1.03363,-2.2926 -0.5685,-1.22069 -1.18494,-2.73306 -1.36986,-3.36082 -0.38215,-1.29728 -0.56781,-1.31264 -2.83307,-0.23443 -1.1232,0.53462 -1.23675,0.67048 -1.15451,1.38125 0.24118,2.08423 2.63517,6.74144 3.46536,6.74144 0.11592,0 0.82162,-0.48638 1.56824,-1.08084 z m 146.870849,-0.88793 c 0.76372,-1.60022 1.59496,-4.3102 1.59496,-5.19984 0,-0.44992 -1.94424,-1.36635 -3.57188,-1.68363 -0.79136,-0.15426 -0.7964,-0.14734 -1.6742,2.29824 -1.28438,3.57833 -1.32229,4.04511 -0.4075,5.01784 0.88862,0.94492 2.08503,1.52034 2.78206,1.33806 0.2833,-0.0741 0.82635,-0.82733 1.27656,-1.77067 z m -150.337419,-10.21358 1.38446,-0.29692 v -3.24567 -3.24568 l -1.75635,-0.74646 c -1.6455,-0.69934 -1.77758,-0.71744 -2.09258,-0.28665 -0.54326,0.74295 -0.96861,3.83683 -0.76723,5.58062 0.26705,2.31245 0.5263,2.8692 1.2513,2.68724 0.32776,-0.0823 1.21894,-0.28318 1.9804,-0.44648 z m 152.825339,-0.55073 c 0.26475,-1.3237 0.15266,-4.76848 -0.19263,-5.92005 -0.27009,-0.90078 -0.43715,-1.07014 -1.12221,-1.13765 -0.44268,-0.0436 -1.39206,0.13883 -2.10973,0.40547 l -1.30485,0.4848 0.0938,3.1664 c 0.0516,1.74152 0.13483,3.20997 0.18501,3.26322 0.20016,0.21239 1.90649,0.51199 3.06158,0.53755 1.16671,0.0258 1.2314,-0.0114 1.38906,-0.79974 z M 31.515401,197.12202 c 0.49917,-1.12778 1.0877,-2.38759 1.30787,-2.79956 0.57282,-1.07188 0.51036,-1.34846 -0.50609,-2.24092 -1.19589,-1.05 -2.43963,-1.33496 -2.9381,-0.67317 -0.74629,0.99081 -1.93782,3.43921 -2.33969,4.8077 l -0.41381,1.40914 1.64534,0.76153 c 0.90495,0.41884 1.80096,0.76699 1.99114,0.77366 0.19018,0.007 0.75418,-0.91059 1.25334,-2.03838 z m 145.796509,1.39709 c 2.33289,-0.69279 2.377,-0.77706 1.58834,-3.03437 -0.86879,-2.48669 -1.90079,-4.25129 -2.48211,-4.24414 -0.24853,0.003 -1.19661,0.48258 -2.10685,1.0656 -1.57834,1.01095 -1.63793,1.08728 -1.28674,1.64809 0.20253,0.32343 0.75399,1.57031 1.22546,2.77086 0.9467,2.41063 0.9597,2.41825 3.0619,1.79396 z m -5.26609,-8.81433 c 0.60865,-0.40384 1.34705,-1.03989 1.64088,-1.41343 0.4982,-0.63336 0.50566,-0.72209 0.11063,-1.31514 -0.8478,-1.27278 -2.36992,-2.70153 -4.21434,-3.95581 l -1.88537,-1.28213 -0.51874,0.5812 c -0.91602,1.02631 -1.66365,2.23783 -1.66365,2.6959 0,0.37481 4.89516,5.38255 5.29167,5.41338 0.0728,0.006 0.63027,-0.32013 1.23892,-0.72397 z M 37.762501,188.12619 c 1.30384,-1.12779 2.78051,-2.26172 3.28147,-2.51986 0.50097,-0.25814 0.91084,-0.61905 0.91084,-0.80203 0,-0.41552 -1.82441,-3.35884 -2.08197,-3.35884 -0.10401,0 -1.13663,0.58486 -2.29471,1.29968 -2.19515,1.35494 -3.0125,2.08971 -4.28874,3.85544 l -0.76187,1.05408 1.34021,1.25094 c 0.73712,0.68802 1.38159,1.25548 1.43217,1.26103 0.0506,0.006 1.15875,-0.91265 2.4626,-2.04044 z m 125.429859,-6.1804 c 0.49635,-0.89764 0.75242,-1.66176 0.64804,-1.93376 -0.37695,-0.98233 -4.93748,-2.53532 -7.44526,-2.53532 h -1.15654 l -0.18668,1.74316 c -0.14248,1.3305 -0.10049,1.821 0.17738,2.07196 0.20023,0.18083 1.56014,0.65428 3.02201,1.0521 1.46188,0.39783 2.8311,0.83452 3.04271,0.97043 0.67168,0.43139 1.05641,0.15402 1.89834,-1.36857 z m -116.433319,0.97567 c 0.71495,-0.29872 6.10212,-1.476 6.75413,-1.476 0.25655,0 -0.0933,-3.722 -0.37644,-4.00516 -0.66286,-0.66286 -7.95575,1.01544 -9.42106,2.16805 l -0.69074,0.54334 0.70797,1.10991 c 1.42046,2.22687 1.52797,2.28584 3.02614,1.65986 z m 33.47264,-1.56584 c 0.34416,-0.34748 0.17792,-3.58371 -0.20797,-4.04869 -0.30026,-0.36179 -0.92486,-0.39056 -4.85311,-0.22358 -2.86347,0.12172 -4.57942,0.30085 -4.70288,0.49094 -0.10691,0.16461 -0.19621,0.9754 -0.19844,1.80175 -0.006,2.36773 0.0467,2.39063 5.30526,2.28817 2.44042,-0.0476 4.53614,-0.18642 4.65714,-0.30859 z m 12.21791,0.18251 2.42189,-0.17191 v -1.76189 c 0,-2.83327 0.12612,-2.77385 -5.45188,-2.56897 -5.4681,0.20084 -5.66394,0.28813 -5.65656,2.52118 0.005,1.40509 0.17822,1.77409 0.92199,1.95991 0.8088,0.20208 5.05612,0.21393 7.76456,0.0217 z m 16.841679,-0.38945 c 0.37012,-0.3635 0.30003,-2.88435 -0.10071,-3.6221 l -0.33221,-0.6116 -4.81062,0.17437 c -5.498669,0.19931 -5.736659,0.29683 -5.736659,2.35048 0,1.28931 0.39369,1.91451 1.32291,2.10082 1.105729,0.22169 9.374169,-0.11391 9.657289,-0.39197 z m 27.51667,0.33421 1.5875,-0.16972 -0.004,-1.71979 c -0.007,-2.91755 0.33688,-2.7478 -5.21495,-2.5763 -5.41705,0.16733 -5.4997,0.19989 -5.49309,2.16385 0.005,1.58191 0.24607,2.22134 0.88325,2.34592 0.88985,0.174 6.48162,0.14417 8.24126,-0.044 z M 66.825651,180.0027 c 0,-0.79351 -0.13818,-1.74601 -0.30706,-2.11666 l -0.30705,-0.67391 h -4.30426 c -3.56018,0 -4.37613,0.0719 -4.72003,0.41577 -0.51957,0.51958 -0.53278,1.70242 -0.0324,2.90002 l 0.38338,0.91754 h 4.64371 4.64371 z m 57.140689,0.93099 c 0.41724,-0.77962 0.32722,-2.73393 -0.15782,-3.42643 -0.42983,-0.61367 -0.45286,-0.61594 -5.27996,-0.52036 -2.85428,0.0565 -4.96084,0.20857 -5.122,0.36973 -0.42551,0.42551 -0.62066,2.55267 -0.30837,3.36123 l 0.28103,0.7276 h 5.15661 c 4.82741,0 5.1741,-0.0327 5.43051,-0.51177 z m 27.38621,0.25928 c 0.23106,-0.37387 0.25355,-2.96291 0.0317,-3.65011 -0.18679,-0.57861 -0.29003,-0.59489 -3.68008,-0.58007 -1.91834,0.008 -3.96415,0.0993 -4.54623,0.20197 l -1.05833,0.18672 -0.0794,1.67322 c -0.0477,1.00576 0.0444,1.82231 0.23084,2.04699 0.24403,0.29403 1.23132,0.37377 4.62782,0.37377 2.45513,0 4.38492,-0.10891 4.47366,-0.25249 z m -8.99678,-10.38695 c 0.0969,-1.49711 0.13842,-4.26983 0.0923,-6.1616 l -0.0839,-3.43958 H 107.63784 72.911491 l -0.003,5.15937 c -0.002,2.83766 -0.0752,5.59515 -0.16326,6.12776 l -0.16014,0.96837 34.797319,0.0339 34.79732,0.0339 z m 0.0234,-28.18826 c -0.12796,-17.02001 -0.19585,-17.7256 -2.04892,-21.29359 -1.83399,-3.53127 -5.23468,-6.15406 -9.21086,-7.1039 -2.02321,-0.48331 -43.991299,-0.45767 -46.568409,0.0285 -4.23355,0.79857 -8.2272,3.77998 -10.05812,7.50874 -1.51366,3.08265 -1.57217,3.84017 -1.57721,20.41933 -0.002,8.30681 0.0748,15.18267 0.17179,15.27968 0.097,0.097 15.75275,0.17639 34.790509,0.17639 h 34.61411 z m -52.498509,5.40584 c -1.28828,-0.48561 -2.86545,-1.9004 -3.53954,-3.17512 -0.73437,-1.38871 -0.80156,-4.36031 -0.12749,-5.63879 0.58756,-1.11441 1.84621,-2.1347 3.04366,-2.46727 1.30431,-0.36224 35.543779,-0.37473 36.844269,-0.0134 1.06114,0.2948 2.73126,1.88305 3.14999,2.99559 0.78861,2.09526 -0.001,5.1932 -1.74551,6.8479 -1.78181,1.69013 -1.18109,1.63808 -19.80228,1.71582 -13.169359,0.055 -17.131109,-0.004 -17.823099,-0.26469 z m 34.930649,-4.23423 c 0.39441,-0.19545 0.67555,-0.72317 1.11064,-2.08472 0.0791,-0.24755 -0.0778,-0.72379 -0.34868,-1.0583 l -0.4925,-0.60822 -16.89058,-3e-5 c -9.289829,-10e-6 -17.208759,0.0892 -17.597639,0.19829 -0.49993,0.14023 -0.79938,0.4781 -1.02225,1.1534 -0.27614,0.8367 -0.25075,1.04169 0.20485,1.65377 0.31276,0.42019 0.87841,0.76037 1.41912,0.85346 1.39179,0.23959 33.121359,0.13799 33.617039,-0.10765 z M 87.892511,128.73382 c -0.99447,-0.88821 -1.12868,-1.83161 -0.38255,-2.68925 l 0.61465,-0.70652 19.478409,-0.13764 19.47842,-0.13764 0.69606,0.82722 c 0.90038,1.07004 0.87751,1.5721 -0.11494,2.52306 l -0.81101,0.77711 -19.1425,0.0728 -19.142509,0.0728 z m -18.93986,10.17987 c 0.006,-0.98226 0.11883,-4.34578 0.25143,-7.47448 0.20517,-4.8407 0.34362,-6.05531 0.92897,-8.14939 l 0.68787,-2.46086 -0.55577,-0.89924 c -0.93698,-1.51608 -2.15298,-2.07496 -4.78886,-2.20098 l -2.30519,-0.11021 -0.0375,3.93378 c -0.0206,2.16358 0.0455,7.22605 0.14682,11.24994 l 0.18428,7.31616 1.7466,0.25469 c 0.96063,0.14007 2.19308,0.27085 2.73878,0.29061 l 0.99219,0.0359 z m 82.376489,-5.29166 c 0.0886,-3.74716 0.20719,-8.8761 0.26345,-11.39765 l 0.1023,-4.58463 -1.29191,0.15286 c -0.71056,0.0841 -1.87125,0.22136 -2.57932,0.30509 -1.0718,0.12674 -1.47676,0.34518 -2.41814,1.30437 -1.10387,1.12477 -1.12375,1.17616 -0.83669,2.16287 1.35267,4.64951 1.37403,4.81411 1.54741,11.9248 l 0.16935,6.94531 h 2.4412 2.44119 z m -91.382659,1.03628 c 0,-1.03696 -0.18271,-1.13291 -1.21758,-0.63941 -1.04998,0.5007 -1.1274,0.78518 -0.30377,1.11624 1.12664,0.45285 1.52135,0.32914 1.52135,-0.47683 z m 97.046349,0.26337 0.8703,-0.46411 -0.94543,-0.45085 c -1.31296,-0.6261 -1.45664,-0.57923 -1.45664,0.4752 0,1.05243 0.24888,1.12388 1.53177,0.43976 z M 55.521661,131.22274 c 0.61464,-0.27482 1.72527,-1.14651 2.46807,-1.93711 1.59441,-1.697 1.87802,-2.82891 1.42364,-5.68182 -0.49262,-3.09294 -1.89321,-4.87764 -4.63206,-5.90237 -2.86054,-1.07027 -5.58894,-0.52818 -7.87986,1.5656 -1.20591,1.10213 -1.50548,1.56718 -1.88822,2.93125 -1.09003,3.88485 0.708,7.52875 4.50597,9.13183 1.29252,0.54556 1.85176,0.63682 3.22434,0.52616 0.91333,-0.0736 2.16348,-0.35872 2.77812,-0.63354 z m -5.49705,-3.03301 c -1.83035,-1.02894 -2.57421,-3.65593 -1.49756,-5.28872 1.34369,-2.03777 3.69857,-2.63203 5.67904,-1.43313 2.37319,1.43664 2.68014,3.78589 0.76262,5.83673 -1.44228,1.54256 -3.21125,1.85925 -4.9441,0.88512 z m 2.75643,-3.32456 c 0.29852,-0.5578 -0.0816,-1.09887 -0.77206,-1.09887 -0.23283,0 -0.56064,0.1373 -0.72845,0.30512 -0.42105,0.42105 0.0682,1.28238 0.72845,1.28238 0.2808,0 0.62823,-0.21989 0.77206,-0.48863 z m 113.890129,6.44048 c 1.20543,-0.57202 2.68582,-2.06354 3.41265,-3.43831 0.78523,-1.48524 0.79991,-4.55513 0.0298,-6.23115 -1.30781,-2.84622 -3.71029,-4.47724 -6.60178,-4.48189 -2.39832,-0.004 -3.89307,0.61749 -5.64642,2.34715 -1.26418,1.2471 -1.56372,1.7271 -1.8585,2.97811 -0.55118,2.33921 0.0473,4.34748 2.02067,6.78095 1.97124,2.43081 5.88125,3.35595 8.64358,2.04514 z m -5.38443,-3.09129 c -0.97005,-0.65936 -1.81612,-2.37379 -1.84254,-3.7336 -0.0191,-0.9836 0.57464,-2.08266 1.58391,-2.9319 0.6689,-0.56285 1.09547,-0.69298 2.2716,-0.69298 2.42013,0 4.03282,1.2314 4.26073,3.25336 0.26882,2.38503 -1.48578,4.42109 -3.98253,4.62138 -1.11925,0.0898 -1.53856,-0.005 -2.29117,-0.51626 z m 3.01897,-3.01175 c 0.22867,-0.22868 0.41577,-0.65294 0.41577,-0.94281 0,-0.43498 -0.1498,-0.51255 -0.85773,-0.44412 -0.57667,0.0557 -0.88745,0.2397 -0.94842,0.56139 -0.21818,1.15113 0.58681,1.6291 1.39038,0.82554 z M 43.375941,117.96602 c 1.09274,-1.77037 2.06428,-2.67944 3.57677,-3.34674 0.95177,-0.41993 1.01557,-0.51099 0.75643,-1.07975 -0.15566,-0.34163 -0.37887,-0.62115 -0.49602,-0.62115 -0.59902,0 -6.84581,3.79455 -6.84581,4.15841 0,0.39344 1.43385,2.45618 1.70733,2.45618 0.18377,0 0.76936,-0.70513 1.3013,-1.56695 z m 131.328289,0.0958 c 0.42986,-0.90143 0.42633,-0.9192 -0.34244,-1.72419 -0.73531,-0.76997 -5.71094,-3.94843 -6.18093,-3.94843 -0.22814,0 -0.96309,1.56009 -0.78302,1.66213 0.056,0.0317 0.7922,0.40273 1.63607,0.82448 1.62512,0.81221 3.17808,2.36883 3.79436,3.80329 0.32478,0.75596 0.43997,0.8296 0.90683,0.57974 0.29414,-0.15741 0.73025,-0.69608 0.96913,-1.19702 z M 38.791361,113.30135 c 0.18751,-0.22594 1.74275,-1.24901 3.4561,-2.27351 2.9444,-1.76061 3.10186,-1.89774 2.87234,-2.50143 -0.46279,-1.21721 -1.06316,-2.22261 -1.32724,-2.22261 -0.44666,0 -6.45472,3.17485 -7.39059,3.90543 -0.16709,0.13043 1.63202,3.5029 1.86869,3.5029 0.0989,0 0.33319,-0.18485 0.5207,-0.41078 z m 140.475429,-2.8205 c 0.0161,-0.44813 -6.70678,-4.43903 -7.48121,-4.44107 -0.11656,-3.1e-4 -0.39631,0.44592 -0.62166,0.99162 -0.22535,0.54571 -0.59091,1.19613 -0.81237,1.44539 -0.45066,0.50725 -0.7336,0.29634 4.5393,3.38373 l 2.62875,1.53919 0.87021,-1.36515 c 0.47861,-0.75082 0.87325,-1.45 0.87698,-1.55371 z m -49.6026,-1.2131 c 6.12021,-1.70918 10.03326,-5.27737 11.88497,-10.837559 l 0.68274,-2.05007 v -10.60055 c 0,-8.93053 -0.0665,-10.826956 -0.42237,-12.03764 -1.55505,-5.290975 -5.59365,-9.344313 -11.2193,-11.260235 -1.37521,-0.468354 -2.63337,-0.495599 -22.88646,-0.495599 -20.253079,0 -21.511239,0.02725 -22.886449,0.495599 -5.44178,1.853301 -9.33944,5.644929 -11.15034,10.847011 l -0.74884,2.151139 -0.004,10.107285 c -0.002,6.31964 0.10523,10.63272 0.2867,11.50938 0.43903,2.12081 1.89163,4.923119 3.46227,6.679319 2.41213,2.69709 7.30011,5.43798 10.79958,6.05578 0.3638,0.0642 9.53161,0.0966 20.372919,0.072 19.52376,-0.0443 19.73161,-0.0504 21.82812,-0.63588 z m -38.691719,-6.15353 c -0.61649,-0.12165 -2.15477,-0.70568 -3.41841,-1.29784 -3.24965,-1.52283 -5.6486,-4.006929 -7.49513,-7.761119 -1.92919,-3.92226 -2.21281,-5.31416 -2.05986,-10.10875 0.11396,-3.57207 0.21105,-4.21998 0.97136,-6.48229 1.02461,-3.048701 2.16084,-4.834475 4.6324,-7.280565 2.19019,-2.167617 3.83348,-3.114546 6.65904,-3.837202 1.87945,-0.480682 3.29534,-0.536178 17.548359,-0.687811 17.36088,-0.184695 17.34328,-0.186073 20.97514,1.642903 3.57349,1.79958 6.55456,5.413053 8.05667,9.765795 0.65953,1.91117 0.74099,2.55308 0.83911,6.61181 0.12565,5.19754 -0.0727,6.42818 -1.54712,9.60034 -1.1671,2.51094 -1.52033,3.00806 -3.77112,5.30734 -1.27309,1.30052 -2.24897,1.978329 -4.35835,3.027129 l -2.71797,1.35139 -4.02891,0.1945 c -5.47902,0.26451 -28.892309,0.22923 -30.285209,-0.0456 z m 35.754909,-4.714259 c 2.17743,-1.06431 4.81567,-3.60605 5.70998,-5.50112 1.4725,-3.12027 1.62909,-3.93568 1.60557,-8.36118 -0.0191,-3.59634 -0.10708,-4.43875 -0.63819,-6.11124 -1.10987,-3.494995 -3.63611,-6.507329 -6.73241,-8.027827 l -1.50606,-0.739581 -16.27085,-0.07213 c -15.908509,-0.07053 -16.312119,-0.05968 -18.123959,0.487017 -2.34337,0.707085 -3.2934,1.285037 -5.38644,3.276842 -2.91262,2.771747 -3.74486,5.157419 -3.73879,10.717509 0.004,4.04585 0.38419,6.10301 1.55329,8.41379 1.46106,2.88788 4.1955,5.32889 7.17405,6.4042 1.40033,0.50555 2.07882,0.52311 17.991659,0.46573 l 16.53646,-0.0596 z m -21.97363,-2.79905 c -3.62722,-0.6715 -8.237819,-3.03784 -10.433159,-5.35471 -1.49614,-1.57897 -1.6863,-2.53837 -0.68883,-3.47544 1.00078,-0.94019 1.82827,-0.74054 3.64335,0.87903 2.761849,2.46434 5.824569,3.82611 9.502619,4.2251 3.75375,0.40721 9.26728,-1.5821 11.46814,-4.13775 1.19716,-1.39015 2.13952,-1.65658 2.87935,-0.81407 1.20533,1.37263 0.62891,2.93831 -1.74395,4.73694 -4.25098,3.22221 -10.05825,4.78679 -14.62752,3.9409 z M 90.725221,82.618571 c -1.36161,-0.81615 -2.07751,-2.42071 -1.87635,-4.20547 0.21867,-1.94 2.15971,-3.862955 3.8912,-3.854944 1.13481,0.0053 2.80356,0.911034 3.56175,1.933274 0.78519,1.05866 0.78549,3.79661 5.4e-4,4.85599 -1.47095,1.98522 -3.58281,2.46656 -5.57714,1.27115 z m 29.919669,0.18189 c -1.81246,-1.14009 -2.7283,-3.20436 -2.23479,-5.03712 0.55654,-2.066836 2.02459,-3.209537 4.12336,-3.209537 2.38353,0 3.88993,1.276501 4.23691,3.590297 0.21208,1.41425 -0.68921,3.60155 -1.81409,4.40253 -1.12907,0.80397 -3.23929,0.92821 -4.31139,0.25383 z M 38.559041,104.71804 c 1.94044,-0.94493 3.57906,-1.74998 3.64139,-1.78902 0.14467,-0.0906 -1.35379,-3.239799 -1.54156,-3.239799 -0.58386,0 -7.43531,3.906099 -7.43531,4.238969 0,0.10725 0.31373,0.88026 0.69716,1.71779 0.48503,1.05945 0.76001,1.41132 0.90371,1.15645 0.1136,-0.20148 1.79417,-1.13946 3.73461,-2.08439 z m 143.156439,0.5794 c 0.6312,-1.3174 0.67186,-1.54489 0.32293,-1.80664 -0.45469,-0.34107 -7.13318,-3.801579 -7.33674,-3.801579 -0.0733,0 -0.2136,0.320159 -0.31181,0.711459 -0.0982,0.39131 -0.40877,1.03477 -0.69014,1.42991 -0.28137,0.39514 -0.51157,0.7837 -0.51157,0.86346 0,0.0798 1.47168,0.86262 3.27039,1.73968 1.79872,0.87706 3.42065,1.77569 3.60428,1.99695 0.55872,0.67322 0.8989,0.43996 1.65266,-1.13324 z M 32.144401,100.10995 c 0.22974,-0.205159 1.99528,-1.159539 3.92344,-2.120839 1.92815,-0.9613 3.50572,-1.87865 3.50572,-2.03857 0,-0.15991 -0.32286,-0.90218 -0.71748,-1.64947 -0.39462,-0.7473 -0.73133,-1.38785 -0.74824,-1.42346 -0.0491,-0.10337 -7.47824,3.79335 -7.90107,4.14427 -0.33321,0.27654 -0.3299,0.44369 0.0256,1.29401 0.22454,0.53705 0.51021,1.24434 0.63484,1.57177 0.26024,0.683729 0.67887,0.756589 1.27718,0.222289 z M 184.56523,99.795351 c 0,-0.21549 0.23468,-0.8518 0.5215,-1.41403 l 0.52151,-1.02223 -0.8594,-0.6555 c -0.78028,-0.59515 -6.10797,-3.38101 -7.06278,-3.69315 -0.2762,-0.0903 -0.61162,0.32013 -1.10318,1.34987 -0.38847,0.81378 -0.64052,1.58605 -0.56012,1.71615 0.0804,0.13009 1.23168,0.74194 2.55839,1.35965 1.32671,0.61771 3.11785,1.54998 3.98032,2.0717 1.57465,0.952539 2.00376,1.014119 2.00376,0.28754 z M 68.942311,86.498861 c 0,-4.34427 0.0765,-8.63052 0.16999,-9.525 l 0.16998,-1.626307 h -1.63369 c -1.87529,0 -3.29234,0.498858 -3.72768,1.312297 -0.2186,0.40846 -0.24963,2.71045 -0.11286,8.37312 l 0.18863,7.80978 1.48063,0.76468 c 0.82686,0.42703 1.91873,0.77029 2.47282,0.7774 l 0.99218,0.0127 z m 80.591659,7.2654 c 0.74193,-0.34546 1.42654,-0.83029 1.52136,-1.07738 0.0948,-0.2471 0.1724,-3.89047 0.1724,-8.09638 v -7.6471 l -0.7276,-0.810433 c -0.60129,-0.669733 -1.02581,-0.852278 -2.44522,-1.051454 -0.94469,-0.13256 -1.7798,-0.156696 -1.85579,-0.05363 -0.076,0.103061 -0.0975,4.503397 -0.0478,9.778527 l 0.0903,9.59115 0.97169,-0.003 c 0.53444,-10e-4 1.57873,-0.28524 2.32065,-0.63071 z M 32.429821,91.797791 c 4.70407,-2.26279 4.46507,-1.98334 3.4374,-4.01913 l -0.85288,-1.68956 -0.54912,0.75382 c -0.57915,0.79505 -5.18562,3.18191 -6.70541,3.47444 l -0.83355,0.16045 0.69353,1.66105 c 0.54125,1.29636 0.78235,1.61591 1.09813,1.45543 0.22253,-0.11308 1.89288,-0.92151 3.7119,-1.7965 z m 155.227009,0.27385 0.55128,-1.53217 -1.34432,-0.31933 c -1.96342,-0.4664 -4.45425,-1.7056 -5.71164,-2.84157 -0.60435,-0.546 -1.14057,-0.94626 -1.1916,-0.88948 -0.29456,0.32781 -1.21615,2.39347 -1.21615,2.72587 0,0.35581 7.34212,4.32695 8.08317,4.37196 0.15289,0.009 0.52605,-0.67259 0.82926,-1.51528 z M 25.689421,87.230211 c 1.6757,-0.30977 4.71194,-1.69393 6.19195,-2.82279 3.25329,-2.48141 5.04636,-6.1733 5.04636,-10.39035 0,-2.915241 -0.56519,-4.551574 -2.10343,-6.089816 -1.10282,-1.102816 -4.03562,-2.89845 -4.73403,-2.89845 -0.14055,0 -0.1395,0.514515 0.002,1.256771 0.29874,1.560983 0.0813,3.312575 -0.73362,5.910906 -0.73565,2.345485 -1.88051,4.055577 -3.10649,4.640199 -0.67873,0.32367 -0.93873,0.66894 -1.17835,1.56485 -0.41064,1.53536 -1.73489,2.98535 -3.39833,3.721 -0.74907,0.33127 -1.67321,0.91357 -2.05363,1.29399 -0.38041,0.38042 -1.04765,0.81577 -1.48275,0.96744 -0.43509,0.15168 -0.79108,0.36906 -0.79108,0.48307 0,0.3207 1.76307,1.58952 2.62734,1.89081 0.72533,0.25285 2.81139,0.65968 3.74021,0.72943 0.22794,0.0171 1.11592,-0.0986 1.9733,-0.25706 z m 169.625269,-0.66813 c 1.24983,-0.52109 2.4797,-1.37124 2.4797,-1.71409 0,-0.13922 -0.26789,-0.35725 -0.59531,-0.48453 -0.32742,-0.12727 -0.9525,-0.61032 -1.38906,-1.07345 -0.43656,-0.46313 -1.21047,-1.01693 -1.71979,-1.23066 -1.50357,-0.63098 -2.56023,-1.85436 -3.06919,-3.55347 -0.34497,-1.15163 -0.60494,-1.57233 -1.03891,-1.68125 -0.31835,-0.0799 -1.0656,-0.673368 -1.66055,-1.31882 -1.50422,-1.631886 -2.78223,-5.654912 -2.65345,-8.352764 l 0.0877,-1.837842 -0.66146,0.157984 c -0.86061,0.205551 -1.29834,0.437571 -3.44329,1.825132 -1.42214,0.919978 -1.8781,1.38452 -2.24452,2.286767 -0.60101,1.479882 -0.81514,5.208832 -0.41087,7.154853 0.48002,2.31061 2.01467,5.14081 3.70846,6.8391 1.55458,1.55873 2.4582,2.12623 4.63918,2.91353 1.78161,0.64314 6.49687,0.68425 7.97134,0.0695 z M 16.116541,81.743301 c 0.52322,-0.57816 0.47609,-0.62901 -3.00131,-3.23874 -1.23692,-0.92829 -2.76349,-2.160449 -3.39236,-2.738128 -0.92466,-0.849396 -1.18962,-0.977274 -1.38501,-0.668457 -0.90459,1.429745 0.80301,4.130205 3.98362,6.299835 1.4191,0.96803 3.09371,1.12048 3.79506,0.34549 z m 187.134349,-0.44246 c 1.85819,-0.92598 3.39669,-2.31654 4.04524,-3.65628 0.65327,-1.349464 0.69946,-2.110187 0.15556,-2.56159 -0.21829,-0.181157 -0.39688,-0.211649 -0.39688,-0.06776 0,0.197771 -5.31921,4.41574 -7.51576,5.95976 -0.45105,0.31707 0.60874,0.98716 1.56126,0.98716 0.45293,0 1.42069,-0.29758 2.15058,-0.6613 z M 21.033531,78.090001 c 0.3016,-0.38343 0.54837,-0.81416 0.54837,-0.95717 0,-0.4462 -1.89187,-2.088907 -5.25556,-4.563402 -1.78032,-1.309687 -3.55106,-2.708671 -3.93498,-3.108854 -0.8232,-0.85806 -1.27284,-0.916946 -1.64807,-0.215831 -0.52096,0.973433 -0.31337,2.070584 0.58601,3.097116 0.7451,0.850447 3.63827,3.296733 6.76216,5.717671 1.20509,0.93392 2.22312,0.94446 2.94207,0.0305 z m 176.217819,-0.1255 c 3.08774,-1.88235 8.21596,-6.397959 8.21596,-7.234486 0,-0.234597 -0.17941,-0.855932 -0.39869,-1.380745 l -0.39869,-0.954204 -1.38725,1.305344 c -0.76298,0.717939 -2.6374,2.24289 -4.16537,3.38878 -1.52797,1.14589 -3.26878,2.527811 -3.86848,3.070935 l -1.09035,0.987496 0.68746,0.68747 c 0.83176,0.83175 1.21913,0.85259 2.40541,0.12941 z M 25.003471,72.991606 c 0.98741,-1.386697 1.25481,-1.097367 -5.76989,-6.24301 -1.19197,-0.873125 -2.59767,-1.914921 -3.12378,-2.315104 -0.52612,-0.400182 -1.09901,-0.727604 -1.27311,-0.727604 -0.38082,0 -1.04327,0.73399 -1.29263,1.432232 -0.24962,0.699003 1.83461,2.66791 5.39201,5.093639 1.52796,1.041898 3.25437,2.258682 3.83645,2.703967 1.31723,1.007653 1.54909,1.013461 2.23095,0.05588 z M 195.87089,71.213637 c 4.81552,-3.252189 6.48757,-4.822751 6.48757,-6.093796 0,-0.367098 -0.17292,-0.840366 -0.38426,-1.051707 -0.33595,-0.335953 -0.59787,-0.234918 -2.08359,0.803749 -0.93464,0.653404 -3.38408,2.32742 -5.44321,3.720037 -2.05913,1.392617 -3.81488,2.71706 -3.90166,2.943208 -0.28543,0.743815 0.69905,1.929506 1.62098,1.952297 0.179,0.0044 1.84588,-1.018779 3.70417,-2.273788 z M 28.187111,67.608492 c -0.005,-0.472943 -0.15399,-1.114561 -0.33073,-1.425819 -0.81657,-1.438029 -4.31394,-4.675459 -5.93061,-5.48983 -0.96766,-0.487442 -3.03304,-0.563566 -3.8228,-0.140898 -0.48637,0.2603 -0.49719,0.326011 -0.1219,0.740702 0.22651,0.250283 1.6825,1.342136 3.23554,2.426338 1.55305,1.084203 3.61003,2.594849 4.57107,3.356992 0.96104,0.762143 1.89617,1.387221 2.07807,1.389062 0.19933,0.002 0.32701,-0.338302 0.32136,-0.856547 z M 191.17981,66.44179 c 1.09141,-0.817788 3.11769,-2.228541 4.50285,-3.135006 3.14079,-2.055372 3.42049,-2.357975 2.59184,-2.804129 -0.33682,-0.181346 -1.14818,-0.336925 -1.80302,-0.345731 -3.23971,-0.04356 -8.1735,4.203044 -8.19627,7.054693 -0.009,1.095834 0.64649,0.92217 2.9046,-0.769827 z m -8.45026,-3.310435 c 0.7966,-0.277693 0.82619,-0.338871 0.66736,-1.379378 -0.69062,-4.524073 -5.67133,-8.47372 -8.18871,-6.493552 -0.91202,0.717397 -0.88058,1.195262 0.11242,1.708762 2.15407,1.113914 4.26351,3.841273 4.75941,6.1536 l 0.29661,1.383024 0.75968,-0.540937 c 0.41782,-0.297516 1.13477,-0.671699 1.59323,-0.831519 z M 35.973381,63.81654 c 0.0883,-0.230183 0.1606,-0.599845 0.1606,-0.821471 0,-0.687487 1.3175,-3.081872 2.20116,-4.00033 0.46285,-0.481081 1.4071,-1.237633 2.09832,-1.681228 0.69122,-0.443595 1.25677,-0.964076 1.25677,-1.156626 0,-0.192549 -0.31371,-0.596856 -0.69714,-0.89846 -1.98287,-1.559728 -6.09851,0.362064 -7.62706,3.561446 -0.42998,0.899989 -1.28531,3.909076 -1.12361,3.952907 0.0303,0.0082 0.70995,0.333343 1.51031,0.722507 1.71925,0.835957 2.00716,0.877608 2.22065,0.321255 z m 42.5846,-16.27941 c 0.66929,-0.304949 1.23225,-1.241704 1.23225,-2.050439 0,-0.630364 -1.35217,-1.889135 -2.02931,-1.889135 -0.67613,0 -1.85331,0.899314 -2.06972,1.581178 -0.19089,0.60144 0.46451,1.983152 1.12247,2.366376 0.60306,0.351252 0.95946,0.349622 1.74431,-0.008 z m 59.825609,-0.135179 c 0.47977,-0.184105 1.20247,-1.436679 1.20247,-2.084098 0,-0.635556 -1.30819,-1.720297 -2.07467,-1.720297 -0.85963,0 -2.15866,1.231182 -2.15866,2.045902 0,1.287058 1.69564,2.270863 3.03086,1.758493 z m 34.52416,191.128799 c -0.69987,-1.14787 -0.67623,-2.18006 0.0618,-2.69698 0.49901,-0.34951 1.73593,-0.41187 8.16969,-0.41187 8.24917,0 8.02171,-0.0419 8.33728,1.53597 0.13686,0.68431 0.0284,0.96049 -0.63953,1.62843 l -0.80435,0.80435 h -7.30029 -7.30028 z m 5.8572,-8.28577 c -0.69711,-0.88623 -0.71596,-1.71867 -0.0574,-2.53283 0.47603,-0.58847 0.72494,-0.6337 4.29948,-0.78137 2.08681,-0.0862 4.10521,-0.0505 4.48533,0.0793 1.294,0.44196 1.54493,2.3055 0.44472,3.30273 -0.45142,0.40916 -1.11639,0.49112 -4.56892,0.56314 l -4.04062,0.0843 z" /></g></svg>
