<?xml version="1.0" encoding="UTF-8" standalone="no"?>
<!-- Created with Inkscape (http://www.inkscape.org/) -->

<svg
   width="210mm"
   height="297mm"
   viewBox="0 0 210 297"
   version="1.1"
   id="svg1"
   xml:space="preserve"
   inkscape:version="1.3.2 (091e20e, 2023-11-25, custom)"
   sodipodi:docname="red_walking_robot.svg"
   xmlns:inkscape="http://www.inkscape.org/namespaces/inkscape"
   xmlns:sodipodi="http://sodipodi.sourceforge.net/DTD/sodipodi-0.dtd"
   xmlns="http://www.w3.org/2000/svg"
   xmlns:svg="http://www.w3.org/2000/svg"><sodipodi:namedview
     id="namedview1"
     pagecolor="#ffffff"
     bordercolor="#000000"
     borderopacity="0.25"
     inkscape:showpageshadow="2"
     inkscape:pageopacity="0.0"
     inkscape:pagecheckerboard="0"
     inkscape:deskcolor="#d1d1d1"
     inkscape:document-units="mm"
     inkscape:zoom="0.9986462"
     inkscape:cx="396.53683"
     inkscape:cy="237.82196"
     inkscape:window-width="2880"
     inkscape:window-height="1514"
     inkscape:window-x="-11"
     inkscape:window-y="-11"
     inkscape:window-maximized="1"
     inkscape:current-layer="layer1" /><defs
     id="defs1" /><g
     inkscape:label="Layer 1"
     inkscape:groupmode="layer"
     id="layer1"><g
       id="g1"
       transform="translate(12.364591,-92.734435)"><path
         style="fill:#000000;stroke-width:0.941031"
         d="m 91.399728,229.91155 c -0.182244,-0.40018 -0.753204,-1.97776 -1.268791,-3.50573 -5.252332,-15.56558 -8.604803,-24.89471 -9.39821,-26.15297 l -0.526222,-0.83453 h 1.164306 c 1.095889,0 1.195149,0.0583 1.689262,0.99219 0.28873,0.5457 0.868925,1.94469 1.289317,3.10885 0.420401,1.16417 1.310092,3.60495 1.977097,5.42396 0.666997,1.81901 1.614222,4.61698 2.104934,6.21771 0.490721,1.60073 1.275317,3.9517 1.743545,5.22438 0.468229,1.27268 1.312855,3.77299 1.876934,5.55625 0.564088,1.78326 1.139086,3.56971 1.277779,3.96989 0.249182,0.719 0.241221,0.7276 -0.673213,0.7276 -0.772977,0 -0.979954,-0.11983 -1.256738,-0.7276 z"
         id="path156" /><path
         style="fill:#000000;stroke-width:0.941031"
         d="m 143.22226,229.38238 c -0.36289,-1.22488 -2.8295,-8.11071 -7.22683,-20.17448 -3.31319,-9.0895 -3.67585,-10.31875 -3.04427,-10.31875 0.12641,0 0.29793,-0.30637 0.38115,-0.68083 0.25101,-1.12938 0.11897,-1.42502 3.61284,8.08917 3.13598,8.53961 5.76126,15.79437 6.70212,18.52083 0.5775,1.67349 1.25486,3.60056 1.50524,4.28238 0.25038,0.68182 0.45524,1.3069 0.45524,1.38906 0,0.0822 -0.45296,0.14939 -1.00658,0.14939 -0.99238,0 -1.01184,-0.0177 -1.37891,-1.25677 z"
         id="path155" /><path
         style="fill:#000000;stroke-width:0.941031"
         d="m 87.984605,229.87714 c -0.25508,-0.56463 -1.199285,-3.15424 -2.09823,-5.75469 -0.898946,-2.60045 -2.154409,-6.09731 -2.789907,-7.7708 -0.635506,-1.67349 -1.236503,-3.34036 -1.335551,-3.70416 -0.09905,-0.36381 -0.838924,-2.32834 -1.644179,-4.36563 -1.185771,-3.00001 -3.861399,-10.68052 -3.861399,-11.08433 0,-0.0543 0.201947,-0.15838 0.448773,-0.23127 0.361495,-0.10675 0.566532,0.16381 1.05434,1.39129 0.333069,0.8381 0.605575,1.613 0.605575,1.72201 0,0.10901 0.356979,1.10616 0.793283,2.21588 1.486288,3.78031 3.487277,9.15643 4.246927,11.41038 0.416885,1.23693 1.31158,3.79677 1.988211,5.68854 1.680097,4.69735 3.533838,10.19238 3.681856,10.91406 0.207916,1.01383 -0.577229,0.70308 -1.089699,-0.43128 z"
         id="path154" /><path
         style="fill:#000000;stroke-width:0.941031"
         d="m 95.588873,230.57187 c -0.01824,-0.0358 -0.53428,-1.79142 -1.146798,-3.90147 -0.61251,-2.11005 -1.539783,-5.02708 -2.060595,-6.48229 -0.520812,-1.45521 -1.556174,-4.61269 -2.300806,-7.01663 -0.744631,-2.40394 -1.692556,-5.20191 -2.106501,-6.21771 -1.327935,-3.25872 -2.76458,-7.20055 -2.925084,-8.02578 -0.157581,-0.8102 0.174496,-1.89092 0.581037,-1.89092 0.121364,0 0.385245,0.28367 0.586413,0.63038 0.573395,0.98821 4.717546,12.07781 7.031679,18.8165 0.7496,2.18281 1.880494,5.39749 2.513096,7.14374 1.735888,4.79176 2.324549,6.72296 2.147743,7.04602 -0.133026,0.24306 -2.190408,0.15275 -2.320184,-0.10184 z"
         id="path153" /><path
         style="fill:#000000;stroke-width:0.941031"
         d="m 138.82983,229.44853 c -0.22739,-0.72761 -0.6932,-2.01106 -1.03513,-2.85211 -0.34194,-0.84106 -0.6217,-1.58894 -0.6217,-1.66196 0,-0.26744 -2.40223,-7.21409 -3.517,-10.17031 -1.91529,-5.0791 -5.38636,-14.75464 -5.38636,-15.01442 0,-0.0368 0.514,-0.0668 1.14221,-0.0668 1.08845,0 1.14901,0.0384 1.28664,0.81551 0.0794,0.44853 0.77101,2.44283 1.53682,4.43177 0.76582,1.98895 1.7048,4.56877 2.08662,5.73293 0.3818,1.16417 1.1937,3.42636 1.8042,5.02709 1.12996,2.96273 4.02792,11.29308 4.81419,13.83859 l 0.43341,1.40317 -1.06524,-0.0803 c -1.04874,-0.079 -1.07164,-0.10075 -1.47866,-1.40317 z"
         id="path152" /><path
         style="fill:#000000;stroke-width:0.941031"
         d="m 136.19669,230.96988 c -0.19032,-0.25466 -0.80311,-1.89177 -1.36176,-3.63802 -0.55865,-1.74625 -1.93389,-5.61578 -3.05607,-8.59896 -1.12219,-2.98317 -2.41944,-6.56723 -2.8828,-7.96456 -0.46335,-1.39733 -1.58461,-4.44536 -2.49167,-6.7734 -0.90708,-2.32803 -1.64923,-4.57473 -1.64923,-4.99267 0,-0.75566 0.003,-0.75698 0.45842,-0.23806 0.58453,0.66538 2.21645,4.80516 4.22124,10.70828 0.86487,2.54661 1.84334,5.23045 2.17438,5.96409 0.33104,0.73364 1.17737,2.9363 1.88072,4.89479 0.70335,1.9585 1.71457,4.70709 2.24717,6.10797 1.34345,3.53366 1.59927,6.0555 0.4596,4.53054 z"
         id="path151" /><path
         style="fill:#000000;stroke-width:0.941031"
         d="m 84.144441,234.92074 -1.6,0.084 -1.006095,-3.04271 c -0.553355,-1.67349 -2.139833,-5.90021 -3.525497,-9.39271 -1.385672,-3.4925 -3.150905,-8.13594 -3.922749,-10.31875 -0.771853,-2.18281 -1.711418,-4.67453 -2.08794,-5.53714 l -0.684574,-1.5684 1.072653,-1.22978 c 0.627873,-0.71986 1.298836,-1.85825 1.618144,-2.74543 l 0.545491,-1.51563 0.879464,2.72632 c 0.483708,1.49947 1.435883,4.09553 2.115941,5.76902 0.680058,1.67349 1.674615,4.23333 2.210127,5.68854 0.535511,1.45521 1.173984,3.18162 1.418827,3.83646 0.244851,0.65484 1.095296,2.97656 1.889889,5.15937 0.794594,2.18282 2.10999,5.63563 2.9231,7.67292 0.813111,2.03729 1.549569,4.03079 1.636573,4.43 l 0.158192,0.72583 -1.020777,-0.413 c -0.658717,-0.2665 -1.588275,-0.38318 -2.620769,-0.32895 z"
         id="path150" /><path
         style="fill:#000000;stroke-width:0.941031"
         d="m 134.03038,235.08892 c -0.63367,-0.15346 -1.70294,-0.20592 -2.37615,-0.11657 l -1.22402,0.16246 -0.6104,-1.65252 c -1.25745,-3.40425 -3.7323,-10.20622 -4.59633,-12.63272 -0.49226,-1.38245 -1.3862,-3.7637 -1.98652,-5.29167 -1.80574,-4.59601 -3.63637,-9.73059 -3.63637,-10.19936 0,-0.24228 0.39539,-1.00959 0.87863,-1.70513 0.48323,-0.69554 1.1866,-1.84368 1.56302,-2.55142 l 0.6844,-1.28679 0.1838,0.95544 c 0.21252,1.10476 2.89834,8.61101 5.48041,15.31643 0.98062,2.54661 2.6224,6.87159 3.64839,9.61105 1.02599,2.73947 2.23836,5.81708 2.69414,6.83914 0.45579,1.02206 0.92954,2.15778 1.05278,2.52383 0.19456,0.57785 0.16955,0.64191 -0.18979,0.4862 -0.22762,-0.0986 -0.93233,-0.3049 -1.56599,-0.45837 z"
         id="path149" /><path
         style="fill:#000000;stroke-width:0.941031"
         d="m 78.160938,236.84158 c -0.259259,-0.37221 -0.651774,-1.23541 -0.872238,-1.91823 -0.632832,-1.95997 -3.955257,-10.48984 -7.233768,-18.5717 -0.678871,-1.67349 -1.313484,-3.34036 -1.410255,-3.70416 -0.09676,-0.36381 -0.585359,-1.75672 -1.085759,-3.09537 -0.500409,-1.33864 -0.909828,-2.4995 -0.909828,-2.57968 0,-0.0802 0.58132,-0.14579 1.291823,-0.14579 h 1.291814 l 0.548476,1.38907 c 0.301659,0.76398 0.6033,1.56765 0.670309,1.78593 0.06704,0.21828 1.334373,3.4925 2.816357,7.27605 2.97409,7.59288 4.383158,11.26805 5.961099,15.54789 l 1.049992,2.84789 -0.664597,0.90332 c -0.365523,0.49682 -0.736015,0.91191 -0.823311,0.92242 -0.08731,0.0105 -0.370846,-0.28543 -0.630114,-0.65764 z"
         id="path148" /><path
         style="fill:#000000;stroke-width:0.941031"
         d="m 124.64895,233.65054 c -0.62446,-1.72902 -1.48309,-4.09618 -1.90808,-5.26035 -0.42498,-1.16416 -1.77266,-4.8551 -2.99484,-8.20208 -1.22219,-3.34698 -2.74875,-7.45463 -3.39236,-9.12812 -0.6436,-1.67349 -1.23842,-3.35349 -1.3218,-3.73332 -0.13682,-0.62328 -0.0871,-0.68956 0.50989,-0.67973 0.36383,0.006 0.83817,-0.0795 1.05409,-0.19004 0.66676,-0.34123 0.53565,-0.65066 6.32259,14.92184 3.34552,9.00269 5.11691,13.94213 5.11691,14.26827 0,0.13149 -0.34266,0.64321 -0.76147,1.13715 -0.70676,0.83354 -0.78762,0.86616 -1.12551,0.45406 -0.20022,-0.2442 -0.87496,-1.85866 -1.49942,-3.58768 z"
         id="path147" /><path
         style="fill:#000000;stroke-width:0.941031"
         d="m 93.731864,242.03436 c -0.205002,-0.7904 -0.372723,-1.4934 -0.372723,-1.56223 0,-0.1306 6.106072,0.14915 6.226621,0.28528 0.0379,0.0428 0.141606,0.69681 0.230479,1.45338 l 0.161593,1.37558 -2.782176,0.0748 c -1.530194,0.0412 -2.851674,0.0153 -2.936624,-0.0575 -0.08492,-0.0728 -0.322177,-0.77898 -0.52717,-1.56938 z"
         id="path146" /><path
         style="fill:#000000;stroke-width:0.941031"
         d="m 142.97189,243.61965 c -1.19732,-0.0141 -1.34722,-0.0763 -1.34722,-0.55822 0,-0.29827 -0.16593,-0.90465 -0.36872,-1.3475 -0.2028,-0.44286 -0.29903,-0.88344 -0.21385,-0.97905 0.0852,-0.0956 1.47505,-0.15668 3.08859,-0.13569 3.34374,0.0435 3.46627,0.10968 3.71027,2.00417 l 0.16081,1.24858 -1.84133,-0.10819 c -1.01274,-0.0595 -2.44758,-0.11535 -3.18855,-0.1241 z"
         id="path145" /><path
         style="fill:#000000;stroke-width:0.941031"
         d="m 90.078956,246.33655 c 0,-0.38873 0.17075,-0.91983 0.379436,-1.18023 0.493926,-0.61633 0.301561,-2.09776 -0.596712,-4.59529 -0.366373,-1.01865 -0.6289,-1.89788 -0.583383,-1.95385 0.04552,-0.056 0.395029,0.0443 0.776714,0.22285 1.054827,0.4934 1.536569,1.86062 1.542174,4.37683 0.0044,1.79495 -0.07784,2.24736 -0.538407,2.97656 -0.659824,1.04466 -0.979822,1.09466 -0.979822,0.15313 z"
         id="path144" /><path
         style="fill:#000000;stroke-width:0.941031"
         d="m 148.59033,247.00807 c 0.993,-2.14699 1.11562,-2.59699 1.09949,-4.03489 -0.0369,-3.29157 -0.80804,-4.91645 -2.45198,-5.16687 -0.88395,-0.13464 -1.0846,-0.28966 -1.48376,-1.14627 -0.25388,-0.54481 -0.50387,-0.94283 -0.55554,-0.88448 -0.0516,0.0583 0.072,0.46842 0.27478,0.91128 0.2028,0.44286 0.36872,0.92478 0.36872,1.07093 0,0.4518 -1.5538,0.62453 -3.86092,0.4292 -2.18406,-0.18491 -2.21397,-0.19685 -2.84944,-1.13768 -0.35321,-0.52295 -0.87681,-1.6807 -1.16356,-2.57279 l -0.52136,-1.62197 3.31902,0.11484 c 1.82547,0.0632 4.04031,0.10977 4.92188,0.10359 l 1.60285,-0.0112 0.59717,1.5007 c 0.32845,0.82538 1.04681,2.33413 1.59635,3.35277 2.00732,3.72076 2.17512,5.92983 0.66587,8.7659 -1.03317,1.94145 -1.6894,2.74348 -2.24474,2.74348 -0.37044,0 -0.27213,-0.3467 0.68517,-2.4165 z"
         id="path143" /><path
         style="fill:#000000;stroke-width:0.941031"
         d="m 99.97206,249.13735 c -0.03551,-0.20661 0.41081,-1.2683 0.99186,-2.35932 0.94367,-1.77188 1.05688,-2.15668 1.06037,-3.60405 0.005,-2.09969 -0.48285,-3.6119 -1.61152,-4.99463 -0.50005,-0.61261 -1.036722,-1.38295 -1.192603,-1.71186 -0.155872,-0.3289 -0.641838,-0.95339 -1.079923,-1.38774 -0.438076,-0.43436 -0.727842,-0.9152 -0.64391,-1.06855 0.09414,-0.17201 0.03896,-0.19949 -0.144113,-0.0717 -0.172184,0.12018 -0.378674,0.0573 -0.492058,-0.14989 -0.107442,-0.19633 -0.244072,-0.30088 -0.303616,-0.23234 -0.05951,0.0685 0.248438,0.95807 0.684397,1.97671 0.435969,1.01865 0.745845,2.00092 0.688622,2.18282 -0.07571,0.24061 -0.899814,0.33073 -3.024443,0.33073 h -2.9204 l -0.853304,-1.17595 c -1.077931,-1.4855 -1.918351,-3.83844 -1.480231,-4.14421 0.311984,-0.21775 3.01695,-0.0708 5.465189,0.29686 0.77319,0.11612 2.173086,0.17391 3.110889,0.12843 l 1.705095,-0.0827 0.435519,0.96742 c 0.23954,0.53208 0.94538,2.33664 1.56855,4.01013 1.0502,2.82028 1.13351,3.20711 1.13957,5.29166 0.007,2.4462 -0.24041,3.17086 -1.81398,5.31065 -0.75932,1.03255 -1.16958,1.18762 -1.28996,0.48755 z"
         id="path142" /><path
         style="fill:#000000;stroke-width:0.941031"
         d="m 92.564654,250.00043 c -0.06562,-0.11983 0.27085,-1.08137 0.747642,-2.13674 l 0.866889,-1.91885 1.028473,0.15236 c 0.565655,0.0838 1.371674,0.15237 1.791145,0.15237 0.761377,0 0.762324,0.002 0.558633,0.99219 -0.112224,0.5457 -0.206552,1.43867 -0.209625,1.98437 l -0.0053,0.99219 h -2.329163 c -1.281037,0 -2.382824,-0.0981 -2.448407,-0.21789 z"
         id="path141" /><path
         style="fill:#000000;stroke-width:0.941031"
         d="m 140.98035,250.04683 c -0.67653,-0.0918 -1.23007,-0.28956 -1.23007,-0.43956 0,-0.14999 0.39538,-0.9658 0.87862,-1.81291 l 0.87862,-1.5402 1.28864,-0.005 c 0.70875,-0.003 1.70167,-0.0823 2.20648,-0.17641 l 0.91784,-0.17118 -0.38382,0.61881 c -0.21111,0.34035 -0.45324,1.31166 -0.53808,2.15847 l -0.15425,1.53966 -1.31696,-0.002 c -0.72432,-0.001 -1.87049,-0.0774 -2.54702,-0.16915 z"
         id="path140" /><path
         style="fill:#000000;stroke-width:0.941031"
         d="m 130.74687,245.83415 c -0.85298,-0.96323 -0.61813,-2.78658 0.42826,-3.32497 0.47575,-0.24478 0.69311,-0.1968 1.29279,0.2854 0.83526,0.67163 1.11069,1.57645 0.72661,2.3869 -0.47367,0.99944 -1.82216,1.35902 -2.44766,0.65267 z"
         id="path139" /><path
         style="fill:#000000;stroke-width:0.941031"
         d="m 133.30707,248.48012 c 0.93607,-0.54864 1.95121,-1.65599 2.39174,-2.60898 0.56051,-1.21252 0.0645,-3.30717 -1.04336,-4.40554 -1.14655,-1.1368 -2.50735,-1.78719 -3.50982,-1.67748 -1.79558,0.19649 -3.35882,2.3126 -3.38658,4.58432 -0.0376,3.07899 3.20588,5.48044 5.54802,4.10768 z"
         id="path138" /><path
         style="fill:#372477;fill-opacity:1;stroke-width:0.941031"
         d="m 129.55482,250.45577 c -2.78491,-1.65908 -3.84634,-4.85774 -2.80987,-8.46761 0.7655,-2.66613 2.5123,-4.17095 5.09583,-4.3899 l 1.70059,-0.14413 1.54548,1.17192 c 1.40863,1.06815 1.58916,1.13918 2.03861,0.80218 0.65292,-0.48956 0.91734,-0.26024 1.24278,1.07778 0.36353,1.49461 0.29214,3.44794 -0.19057,5.21435 -0.47075,1.72266 -2.28027,3.9524 -3.8679,4.76613 -1.38947,0.71215 -3.5312,0.69832 -4.75495,-0.0307 z"
         id="path137" /><path
         style="fill:#000000;stroke-width:0.941031"
         d="m 82.598406,245.55239 c -0.622578,-0.89378 -0.615281,-1.62642 0.02382,-2.39466 0.656901,-0.78962 0.985427,-0.77202 1.582245,0.0848 0.535122,0.76824 0.643485,2.19374 0.204444,2.68953 -0.469787,0.5305 -1.297438,0.35696 -1.810528,-0.37964 z"
         id="path136" /><path
         style="fill:#000000;stroke-width:0.941031"
         d="m 85.301078,248.62154 c 1.741544,-0.97349 1.924009,-1.38723 1.720398,-3.90103 -0.143661,-1.77357 -0.295522,-2.36531 -0.797924,-3.10913 -0.878427,-1.30054 -1.850722,-1.8072 -3.097666,-1.6142 -2.342966,0.36265 -3.435251,2.45897 -2.859873,5.48868 0.313658,1.65157 1.280506,2.94884 2.507048,3.36381 1.225399,0.4146 1.407616,0.39815 2.528017,-0.22813 z"
         id="path135" /><path
         style="fill:#372477;fill-opacity:1;stroke-width:0.941031"
         d="m 81.744756,250.6467 c -2.700954,-1.42025 -3.708537,-4.49481 -2.785089,-8.49845 0.466661,-2.02319 1.15832,-3.01785 2.718311,-3.90915 2.582513,-1.47553 5.145376,-0.60649 6.067151,2.0573 0.151064,0.43657 0.400777,1.62719 0.554905,2.64584 0.223022,1.47396 0.384474,1.90496 0.790794,2.11108 0.280804,0.14244 0.564088,0.41652 0.629512,0.60905 0.07013,0.20632 0.01355,0.27651 -0.137719,0.17092 -0.174965,-0.12211 -0.209421,0.0638 -0.108248,0.58394 0.399616,2.05462 -2.82957,4.78579 -5.721482,4.8391 -0.451022,0.008 -1.354687,-0.26602 -2.008135,-0.60963 z"
         id="path134" /><path
         style="fill:#000000;stroke-width:0.941031"
         d="m 73.096872,256.76672 c 0.304412,-1.18212 0.960596,-1.52136 2.942768,-1.52136 1.364782,0 1.817735,0.0856 1.750851,0.33073 -0.04959,0.1819 -0.153756,0.65815 -0.231409,1.05833 l -0.141182,0.72761 h -2.237162 c -2.209241,0 -2.235249,-0.007 -2.083866,-0.59531 z"
         id="path133" /><path
         style="fill:#000000;stroke-width:0.941031"
         d="m 83.2843,257.13297 c 0,-0.12721 -0.442743,-0.13233 -0.99577,-0.0115 -0.547679,0.11964 -1.245147,0.22272 -1.54994,0.22906 -0.53808,0.0112 -0.549433,-0.0327 -0.391169,-1.50984 0.264324,-2.46706 1.065444,-2.79356 2.04167,-0.83208 0.282098,0.56679 0.603822,1.03052 0.714949,1.03052 0.111126,0 0.381658,-0.35643 0.601174,-0.79208 0.332564,-0.65997 0.546917,-0.79235 1.28527,-0.79375 0.487383,-9.2e-4 1.267967,-0.18183 1.734646,-0.40202 0.46667,-0.22019 0.872034,-0.36902 0.900814,-0.33073 0.02878,0.0383 0.126419,0.87329 0.216975,1.85556 l 0.164648,1.78594 h -2.361634 c -1.298898,0 -2.361633,-0.10308 -2.361633,-0.22906 z"
         id="path132" /><path
         style="fill:#000000;stroke-width:0.941031"
         d="m 103.4252,255.88941 c -0.22107,-0.73718 -0.54675,-1.60402 -0.72375,-1.9263 -0.27397,-0.49887 -0.27272,-0.62047 0.008,-0.81801 0.1816,-0.12762 0.46871,-0.172 0.63802,-0.0986 0.28321,0.12273 1.16813,1.99653 1.72749,3.65791 0.22306,0.66251 0.20201,0.68772 -0.50776,0.60826 -0.66009,-0.0739 -0.78408,-0.22837 -1.1424,-1.42322 z"
         id="path131" /><path
         style="fill:#000000;stroke-width:0.941031"
         d="m 120.30349,257.00083 c 0,-0.19865 0.21852,-0.6749 0.4856,-1.05833 0.46931,-0.67374 0.56786,-0.69714 2.93609,-0.69714 2.67726,0 2.99032,0.18646 2.4716,1.47208 -0.25461,0.63103 -0.31933,0.64459 -3.07668,0.64459 -2.22379,0 -2.81661,-0.076 -2.81661,-0.3612 z"
         id="path130" /><path
         style="fill:#000000;stroke-width:0.941031"
         d="m 129.44114,255.43486 c 0,-1.78243 0.0161,-1.83334 0.52717,-1.6632 1.29331,0.43059 3.13299,0.45685 4.14306,0.0591 0.57124,-0.22492 1.10972,-0.35932 1.19663,-0.29867 0.21689,0.15137 0.45703,2.59207 0.31507,3.20221 -0.10481,0.45046 -0.39048,0.4974 -3.1486,0.51733 l -3.03333,0.0219 z"
         id="path129" /><path
         style="fill:#000000;stroke-width:0.941031"
         d="m 138.02281,255.009 c -0.20967,-1.29416 -0.38121,-2.42526 -0.38121,-2.51354 0,-0.0883 0.62374,-0.16052 1.38609,-0.16052 1.32251,0 1.41787,0.0455 2.07809,0.99219 0.61773,0.88575 1.92468,3.52982 1.92468,3.89381 0,0.0776 -1.04094,0.14109 -2.31321,0.14109 h -2.31322 z"
         id="path128" /><path
         style="fill:#000000;stroke-width:0.941031"
         d="m 91.426179,257.36494 c -1.056589,-0.003 -1.11306,-0.0397 -1.115699,-0.73052 -0.0018,-0.40018 -0.158431,-1.38244 -0.348672,-2.18281 -0.19024,-0.80036 -0.34714,-1.5445 -0.348663,-1.65364 -0.0018,-0.10914 0.615813,-0.19844 1.371876,-0.19844 1.349658,0 1.386204,0.0197 2.010004,1.08417 0.654856,1.11746 1.301308,2.91276 1.301308,3.61392 0,0.31294 -0.188168,0.36311 -0.878614,0.23423 -0.483247,-0.0902 -1.379438,-0.16531 -1.99154,-0.16691 z"
         id="path127" /><path
         style="fill:#000000;stroke-width:0.941031"
         d="m 96.246288,255.24536 c -0.538327,-1.23693 -0.986419,-2.32447 -0.99577,-2.41677 -0.0093,-0.0923 1.063718,-0.15183 2.38458,-0.13229 l 2.401552,0.0355 0.99589,2.24896 c 0.54773,1.23693 0.99582,2.34242 0.99577,2.45665 -7e-5,0.11423 -1.08082,0.17376 -2.401681,0.13229 l -2.401562,-0.0754 z"
         id="path126" /><path
         style="fill:#000000;stroke-width:0.941031"
         d="m 151.32609,255.38228 c -0.91729,-2.38754 -0.942,-2.82821 -0.13956,-2.48818 0.36488,0.15461 0.80404,0.87144 1.34721,2.19903 0.9658,2.36053 0.98501,2.59358 0.20482,2.48491 -0.50517,-0.0704 -0.73045,-0.42057 -1.41247,-2.19576 z"
         id="path125" /><path
         style="fill:#000000;stroke-width:0.941031"
         d="m 144.45226,255.07131 c -0.67222,-1.38642 -1.17214,-2.57732 -1.11092,-2.64645 0.0612,-0.0691 1.1217,-0.0419 2.35664,0.0604 l 2.24534,0.18612 0.92758,1.90855 c 0.51015,1.0497 0.99135,2.19438 1.06929,2.54374 l 0.14173,0.6352 -2.20371,-0.0834 -2.20372,-0.0834 z"
         id="path124" /></g><path
       style="fill:#ffc0cb;stroke-width:0.264999"
       d="m 119.1497,23.979813 -44.306453,3.653176 -3.84052,5.151913 1.030382,79.433128 7.212681,4.30887 41.40264,-0.37468 z"
       id="path1"
       sodipodi:nodetypes="ccccccc" /><rect
       style="fill:#4d4d4d;fill-opacity:1;stroke-width:0.197389;stroke-dasharray:none"
       id="rect227"
       width="46.512646"
       height="90.080284"
       x="113.24451"
       y="24.112591"
       ry="6.6113968" /><path
       style="fill:#000000"
       d="m 71.861718,31.006455 c 0.17476,-0.421914 0.95348,-1.368364 1.73048,-2.103221 1.15283,-1.0903 1.58601,-1.336105 2.35461,-1.336105 0.62555,0 0.94188,0.122929 0.94188,0.366017 0,0.63021 1.03307,0.697317 1.58669,0.103069 0.44246,-0.474928 1.16472,-0.607519 5.61213,-1.03026 2.80737,-0.266851 6.2354,-0.548773 7.61785,-0.626494 2.27229,-0.127748 5.88164,-0.498152 11.749882,-1.205815 1.15093,-0.138792 2.42748,-0.25235 2.8368,-0.25235 h 0.7442 l -1.38159,2.068378 c -1.34011,2.006282 -1.41336,2.068386 -2.43992,2.068647 -0.58208,1.48e-4 -2.30849,0.145777 -3.836452,0.32362 -1.52797,0.177843 -3.21674,0.373443 -3.75282,0.434667 -0.53608,0.06122 -2.56015,0.239082 -4.49792,0.39524 -1.93777,0.156158 -5.30916,0.521403 -7.49197,0.811656 -5.22631,0.694952 -11.88231,1.228563 -11.99893,0.961951 -0.051,-0.116535 0.0503,-0.557085 0.22508,-0.979 z"
       id="path227" /><path
       style="fill:#000000"
       d="m 121.48301,31.944781 c 0.88377,-0.88377 0.86362,-2.054098 -0.0477,-2.770948 -0.38343,-0.301604 -0.84362,-0.54837 -1.02265,-0.54837 -0.17903,0 -0.63923,0.246766 -1.02265,0.54837 -0.91128,0.71681 -0.95046,2.031823 -0.0848,2.845092 0.79473,0.746616 1.37684,0.726798 2.17778,-0.07414 z"
       id="path226" /><path
       style="fill:#000000"
       d="m 155.22211,33.826116 c 0.35459,-0.176741 0.80658,-0.658949 1.00442,-1.071573 0.32031,-0.668019 0.30294,-0.826625 -0.15845,-1.447465 -1.36104,-1.831366 -3.78992,-0.192564 -2.70874,1.827631 0.4279,0.799546 1.12599,1.058654 1.86277,0.691407 z"
       id="path225" /><path
       style="fill:#ff0000;fill-opacity:1"
       d="m 152.22212,38.117953 c -1.86144,-0.03012 -2.10691,-0.09649 -2.57969,-0.69753 -0.28737,-0.365332 -0.52249,-0.773779 -0.52249,-0.90766 0,-0.13388 -0.46492,-0.928038 -1.03315,-1.764794 -0.96243,-1.417249 -3.00042,-3.22932 -4.51089,-4.01085 -2.02556,-1.048037 -5.87119,-1.353798 -8.43712,-0.670822 -2.9947,0.797104 -5.59067,2.958267 -7.3582,6.125763 l -0.83416,1.494844 -3.39918,0.123771 c -3.84288,0.139928 -8.27219,-0.259947 -8.5999,-0.776393 -0.3204,-0.504921 -0.26504,-6.263229 0.0719,-7.476813 0.2842,-1.02369 1.05152,-1.915017 3.28174,-3.812113 l 1.05302,-0.895732 6.48246,0.155327 c 8.2174,0.196897 22.80239,0.673323 25.40017,0.829708 1.0914,0.0657 2.29577,0.125199 2.67636,0.132215 1.00048,0.01844 3.29102,1.985018 3.99702,3.431697 0.50683,1.038554 0.6055,1.746499 0.69202,4.964949 l 0.10091,3.753683 -1.15347,0.112143 c -0.63441,0.06168 -1.62972,0.06934 -2.2118,0.01702 -0.58208,-0.05232 -1.98407,-0.110103 -3.11553,-0.128413 z"
       id="path224" /><path
       style="fill:#000000"
       d="m 115.5762,46.725213 -0.8677,-0.134991 0.074,-3.359984 0.0739,-3.359984 2.57969,-0.07573 2.57969,-0.07573 v 3.734807 3.734806 l -1.78594,-0.164104 c -0.98227,-0.09026 -2.1764,-0.224851 -2.65364,-0.299096 z"
       id="path223" /><path
       style="fill:#000000"
       d="m 122.40108,44.037441 c 0.002,-1.70987 0.10509,-3.268273 0.22859,-3.463118 0.16912,-0.266815 0.59812,-0.307589 1.73791,-0.165182 1.376,0.171921 1.49966,0.240093 1.36251,0.751139 -0.083,0.309131 -0.15247,1.782447 -0.15445,3.274036 l -0.004,2.711979 h -1.5875 -1.5875 z"
       id="path222" /><path
       style="fill:#000000"
       d="m 151.39134,45.095774 c -0.095,-1.418828 -0.23871,-3.026171 -0.3193,-3.571875 l -0.14653,-0.992187 h 1.09898 c 2.0487,0 2.12253,0.12841 2.12253,3.691427 0,3.426653 0.0146,3.395848 -1.62218,3.431434 l -0.96072,0.02089 z"
       id="path221" /><path
       style="fill:#000000"
       d="m 156.93048,44.685731 c -0.005,-4.052506 0.0109,-4.176017 0.52384,-4.038508 0.29104,0.07802 0.67799,0.143472 0.85989,0.145459 0.25026,0.0027 0.33073,1.00549 0.33073,4.121418 v 4.117805 l -0.85456,-0.08291 -0.85457,-0.08291 z"
       id="path220" /><path
       style="fill:#000000"
       d="m 139.1423,43.111399 c -1.22029,-1.333246 -0.88491,-2.592095 0.7026,-2.637232 0.63146,-0.01795 1.03812,0.151244 1.38088,0.574527 1.374,1.696816 -0.61554,3.666519 -2.08348,2.062705 z"
       id="path219" /><path
       style="fill:#000000"
       d="m 135.75848,51.013382 c -0.43656,-0.253653 -0.58684,-0.39837 -0.33395,-0.321594 1.07613,0.326709 3.17134,0.474454 4.30899,0.303852 1.55539,-0.233245 3.15021,-1.613343 3.98963,-3.45247 0.33209,-0.727604 0.61067,-1.111162 0.61905,-0.852351 0.0389,1.201602 -2.02276,4.321835 -3.15976,4.782121 -0.81957,0.331781 -4.61553,0.01016 -5.42396,-0.459558 z"
       id="path218" /><path
       style="fill:#000000"
       d="m 142.37871,54.077726 c 1.45366,-0.685018 3.41251,-2.938468 4.13893,-4.761416 0.48827,-1.225319 0.60271,-2.030161 0.60953,-4.286682 0.008,-2.732502 -0.01,-2.815353 -1.10036,-5.045123 -1.95545,-3.998172 -4.12425,-5.593205 -7.63468,-5.614889 -3.11596,-0.01925 -5.70057,1.525148 -7.39707,4.420007 -0.95763,1.634075 -1.42962,5.326445 -0.96711,7.565697 0.77557,3.754932 2.12955,5.666978 4.98582,7.040787 1.65396,0.795522 2.34858,0.974769 4.14399,1.06936 1.73407,0.09136 2.36558,0.01534 3.22095,-0.387741 z"
       id="path217" /><path
       style="fill:#ebb547;fill-opacity:1"
       d="m 137.47827,56.303067 c -1.49355,-0.138129 -4.36583,-1.603685 -5.83344,-2.976467 -2.17618,-2.03556 -3.08239,-4.257882 -3.34163,-8.19477 -0.13435,-2.040168 -0.0679,-2.710721 0.43198,-4.3563 1.26452,-4.163161 3.02699,-6.456727 6.05092,-7.874293 2.12439,-0.995874 4.83821,-0.989853 6.99648,0.01552 4.99277,2.32575 8.12361,9.59758 6.71281,15.591465 -0.6154,2.614561 -2.68194,5.48093 -4.88042,6.769328 -1.32651,0.777386 -3.82796,1.437932 -4.68149,1.236217 -0.29104,-0.06878 -0.94588,-0.163598 -1.45521,-0.210702 z"
       id="path216" /><path
       style="fill:#000000"
       d="m 81.651188,50.321295 c 0,-0.145521 0.11907,-0.264584 0.26459,-0.264584 0.14552,0 0.26458,0.119063 0.26458,0.264584 0,0.145521 -0.11906,0.264583 -0.26458,0.264583 -0.14552,0 -0.26459,-0.119062 -0.26459,-0.264583 z"
       id="path215" /><path
       style="fill:#000000"
       d="m 83.747558,52.28215 c 0.67701,-0.569666 0.81405,-0.87684 0.81405,-1.824675 0,-0.973386 -0.13648,-1.259523 -0.93525,-1.960855 -0.51438,-0.451637 -1.11561,-0.821158 -1.33605,-0.821158 -0.82007,0 -1.90471,0.800006 -2.34628,1.730561 -1.23028,2.592604 1.59843,4.731594 3.80353,2.876127 z"
       id="path214" /><path
       style="fill:#000000"
       d="m 79.380668,55.176878 c -1.32575,-1.325741 -1.75699,-2.340128 -1.73257,-4.075346 0.0443,-3.145187 1.79885,-5.892651 4.22791,-6.620414 0.93117,-0.278986 1.19012,-0.247898 2.26356,0.271743 2.01042,0.97323 2.78963,2.63866 2.79101,5.965309 0.001,2.731938 -1.63226,5.233145 -3.63604,5.567859 -0.54004,0.09021 -1.10095,0.195584 -1.24647,0.234165 -0.55531,0.147226 -1.80744,-0.483349 -2.6674,-1.343316 z"
       id="path213" /><path
       style="fill:#000000"
       d="m 83.752978,58.624224 c 2.2676,-0.599555 3.70612,-1.816813 4.96567,-4.201888 0.61976,-1.173581 0.69885,-1.621587 0.70063,-3.96875 0.002,-3.219828 -0.32549,-4.450411 -1.57498,-5.91015 -1.24888,-1.459042 -2.74565,-2.198705 -4.77963,-2.361974 -1.42893,-0.1147 -1.79746,-0.04256 -2.80804,0.549678 -2.77483,1.626158 -4.01825,4.055209 -4.02081,7.854738 -0.002,2.63863 0.64525,4.569302 2.10146,6.270555 1.53471,1.792963 3.2289,2.345981 5.4157,1.767791 z"
       id="path212" /><path
       style="fill:#372477;fill-opacity:1"
       d="m 80.679918,60.059952 c -1.75769,-0.877836 -3.40948,-2.655618 -4.08127,-4.392597 -1.10705,-2.862349 -0.94143,-8.488414 0.32282,-10.966553 0.64396,-1.262265 2.50067,-3.166812 3.68365,-3.778554 1.18453,-0.612544 3.53638,-0.540293 5.42596,0.166691 3.12255,1.168293 5.10026,4.135187 5.34227,8.014273 0.17628,2.825699 -0.31681,4.523957 -2.00922,6.919925 -1.71951,2.434328 -2.28935,2.924707 -4.44156,3.822233 -2.2225,0.926836 -2.76187,0.954117 -4.24265,0.214582 z"
       id="path211" /><path
       style="fill:#000000"
       d="m 92.429828,60.838482 c 0.30368,-0.327422 0.9896,-1.071563 1.52428,-1.653646 1.30456,-1.420214 2.47469,-3.787257 2.92694,-5.920846 0.49007,-2.312076 0.47917,-5.89251 -0.0238,-7.823649 -0.55012,-2.112078 -2.1388,-5.056193 -3.48888,-6.465543 l -1.11514,-1.164103 1.88565,0.158087 c 1.73034,0.145065 1.97052,0.240786 2.91585,1.162071 1.24219,1.2106 2.48855,3.660249 2.85135,5.604159 0.400972,2.148485 0.330182,7.609874 -0.1211,9.342449 -0.38471,1.476975 -2.63094,5.622759 -3.66321,6.761021 -0.46182,0.509248 -0.80763,0.595312 -2.39195,0.595312 h -1.85209 z"
       id="path210" /><path
       style="fill:#000000"
       d="m 87.207438,61.710309 c 0,-0.09045 0.53473,-0.611429 1.18827,-1.157729 1.4488,-1.211041 3.81441,-4.117626 4.66629,-5.733369 0.574,-1.088712 0.62773,-1.507687 0.62773,-4.894791 0,-4.430064 -0.27604,-5.232317 -2.67799,-7.782889 -1.37262,-1.457553 -1.75738,-1.706663 -3.27513,-2.12045 -2.44137,-0.665596 -2.39562,-1.590352 0.0793,-1.602423 1.61552,-0.0079 4.24683,1.94737 5.44944,4.049308 1.11489,1.948626 1.61503,4.107041 1.61503,6.969853 0,2.910724 -0.35807,4.778002 -1.26026,6.572017 -0.69548,1.382966 -4.32376,5.341584 -5.1997,5.673105 -0.62156,0.235246 -1.21296,0.248589 -1.21296,0.02737 z"
       id="path209" /><path
       style="fill:#000000"
       d="m 81.287388,68.809054 c -0.27501,-1.375064 -0.19009,-4.947501 0.1222,-5.140506 0.15817,-0.09775 0.76497,0.03755 1.34846,0.300669 0.98979,0.446331 1.45542,0.458058 6.94737,0.174972 3.88969,-0.200497 6.28186,-0.441105 7.05206,-0.709308 0.64107,-0.223237 1.25488,-0.407619 1.36403,-0.409736 0.10914,-0.0021 0.19843,1.285301 0.19843,2.860931 v 2.864783 l -7.87103,0.331943 c -4.32906,0.182568 -7.92078,0.381698 -7.98159,0.442509 -0.40097,0.400965 -1.03325,0.01715 -1.17993,-0.716257 z"
       id="path208" /><path
       style="fill:#000000"
       d="m 93.028278,75.471713 c 0,-0.137269 -0.24811,-0.423358 -0.55134,-0.635753 -0.67869,-0.475373 -6.68075,-0.462153 -7.51845,0.01656 -0.50617,0.289253 -0.4968,0.314703 0.21566,0.585584 0.92425,0.351406 7.85413,0.381059 7.85413,0.03361 z"
       id="path207" /><path
       style="fill:#000000"
       d="m 96.467868,81.939014 c -1.18827,-2.076882 -3.41836,-4.258764 -4.76534,-4.662329 -0.83931,-0.251463 -1.89974,-0.253683 -4.8356,-0.01012 -2.06829,0.171588 -4.1307,0.381399 -4.58314,0.466245 -1.02791,0.192765 -1.15309,-0.171108 -1.15815,-3.366404 l -0.004,-2.280929 1.52135,-0.161051 c 2.59425,-0.274628 14.88223,-0.757889 15.29021,-0.601332 0.32611,0.125142 0.38442,1.273727 0.37398,7.366458 l -0.0124,7.218199 -0.47909,-1.224817 c -0.2635,-0.673649 -0.8702,-1.908413 -1.34823,-2.74392 z"
       id="path206" /><path
       style="fill:#000000"
       d="m 71.953368,87.032227 c 0.0914,-2.073668 0.16952,-7.818434 0.17357,-12.766142 0.004,-4.947708 0.10881,-9.155906 0.2328,-9.351551 0.18766,-0.296095 0.65334,-0.282829 2.7783,0.07915 1.40408,0.239176 2.66111,0.367962 2.79342,0.286191 0.14122,-0.08728 0.27605,2.720895 0.3265,6.800019 l 0.0859,6.948694 -1.71979,2.021095 c -0.94588,1.111602 -2.12396,2.693606 -2.61794,3.515564 -0.88354,1.470157 -1.87998,4.457513 -1.87998,5.636263 0,0.33057 -0.0763,0.60104 -0.16951,0.60104 -0.0932,0 -0.0947,-1.69664 -0.003,-3.77032 z"
       id="path205" /><path
       style="fill:#000000"
       d="m 83.234448,93.525977 c 0.6049,-0.76901 0.55982,-1.55668 -0.15207,-2.65729 -0.69229,-1.07031 -2.23559,-0.64608 -2.72161,0.74813 -0.68693,1.97053 1.61989,3.50309 2.87368,1.90916 z"
       id="path204" /><path
       style="fill:#372477;fill-opacity:1"
       d="m 80.406868,102.38954 c -1.92317,-0.82966 -2.89689,-1.75875 -3.8744,-3.696853 -1.00829,-1.99912 -1.74781,-4.83085 -1.75585,-6.72334 -0.006,-1.35995 0.85401,-4.76513 1.54529,-6.120151 0.74832,-1.46682 2.84731,-3.715762 4.03219,-4.320243 1.91467,-0.976793 3.91692,-0.613296 5.62459,1.021114 1.58437,1.516402 2.28021,2.813537 2.97179,5.53985 1.01336,3.99476 0.77149,6.41803 -0.99115,9.93035 -1.88701,3.760153 -4.9102,5.509143 -7.55246,4.369273 z"
       id="path203" /><path
       style="fill:#000000"
       d="m 88.604178,101.95018 c 1.46032,-1.5612 2.44423,-3.435733 2.96687,-5.652463 0.46256,-1.96193 0.5194,-6.4789 0.10644,-8.45871 -0.42181,-2.022232 -2.09955,-5.437902 -3.37281,-6.866647 -0.60348,-0.677174 -1.09724,-1.284405 -1.09724,-1.349402 0,-0.065 0.68461,-0.06898 1.52136,-0.0088 3.38004,0.242895 5.36629,2.413273 7.09464,7.752318 0.63942,1.97522 0.70059,2.48209 0.57229,4.74209 -0.17223,3.03382 -0.88594,5.18036 -2.67895,8.057114 -1.71907,2.75814 -2.17563,3.07233 -4.46456,3.07233 h -1.85261 z"
       id="path202" /><path
       style="fill:#000000"
       d="m 81.214178,109.38952 c 0.0928,-0.98226 0.1695,-2.08359 0.17052,-2.44739 l 0.002,-0.66146 h 4.82868 c 4.75425,0 4.84716,-0.0109 6.0284,-0.70533 2.3527,-1.38317 4.68582,-4.55756 5.70443,-7.761343 0.29175,-0.91762 0.33884,-0.1514 0.35418,5.762993 0.0137,5.29527 -0.0577,6.85027 -0.31944,6.9507 -0.46413,0.17811 -8.78814,0.55981 -13.26101,0.60809 l -3.67628,0.0397 z"
       id="path201" /><path
       style="fill:#000000"
       d="m 72.349298,110.84473 c -0.23363,-0.42838 -0.34563,-3.08072 -0.39942,-9.45885 -0.0702,-8.320273 -0.0515,-8.741923 0.30424,-6.879173 0.8354,4.37416 1.92716,6.547543 4.49629,8.950843 l 1.74313,1.63061 -0.0748,2.97751 -0.0748,2.9775 -1.71979,0.15277 c -3.59448,0.3193 -3.92388,0.29224 -4.27481,-0.35121 z"
       id="path200" /><path
       style="fill:#000000"
       d="m 141.89182,64.920624 c 0.45259,-0.453461 0.44289,-0.973851 -0.0269,-1.443658 -0.4764,-0.476397 -6.72204,-0.823094 -7.23021,-0.401351 -0.42694,0.354336 -0.42736,1.388977 -6.9e-4,1.742131 0.52876,0.437655 6.83447,0.527037 7.25781,0.102878 z"
       id="path199" /><path
       style="fill:#000000"
       d="m 121.44746,106.92183 c 0.86426,-1.02711 0.88091,-2.08465 0.0452,-2.86978 -0.80121,-0.7527 -2.01149,-0.56551 -2.79655,0.43253 -0.71217,0.90538 -0.67132,1.81351 0.11704,2.60187 0.889,0.889 1.79544,0.83235 2.63434,-0.16462 z"
       id="path198" /><path
       style="fill:#000000"
       d="m 155.9799,107.03874 c 0.72306,-0.91922 0.69787,-1.98059 -0.064,-2.69632 -1.20521,-1.13224 -3.0918,-0.37492 -3.0918,1.24111 0,1.08113 0.92178,2.15235 1.85209,2.15235 0.50087,0 0.94008,-0.23486 1.30371,-0.69714 z"
       id="path197" /><path
       style="fill:#ff0000;fill-opacity:1"
       d="m 116.82218,110.38171 c -1.118,-1.10388 -1.54917,-1.75497 -1.78594,-2.69685 -0.23017,-0.91559 -0.31213,-8.724613 -0.31213,-29.737875 V 49.450754 l 4.43177,0.174708 c 5.63914,0.222304 7.47448,0.41948 7.47448,0.803006 0,0.166873 0.73185,1.355234 1.62634,2.640801 2.92664,4.206176 6.09053,5.856484 11.20595,5.845091 2.34318,-0.0052 2.83487,-0.09253 4.29845,-0.763277 1.94579,-0.891739 5.10981,-4.017321 6.42402,-6.345968 l 0.81965,-1.452337 3.09248,-0.08189 c 1.70087,-0.04504 3.39014,-0.01378 3.75394,0.06946 l 0.66146,0.151351 v 30.181849 c 0,28.543562 -0.0255,30.210032 -0.46998,30.701132 -0.45941,0.50759 -0.91179,0.51863 -20.10833,0.49075 l -19.63836,-0.0285 z"
       id="path196" /><path
       style="fill:#000000"
       d="m 102.90581,113.90163 c -0.77442,-0.99007 -1.54731,-2.27638 -1.71754,-2.85846 -0.22561,-0.77148 -0.32078,-8.05044 -0.35111,-26.85521 l -0.0416,-25.796874 0.78307,-1.678368 c 0.68171,-1.461101 0.81539,-2.146118 1.03271,-5.291667 0.33913,-4.908824 0.12518,-8.756236 -0.56637,-10.184792 -0.65985,-1.363055 -3.661082,-4.69168 -4.946562,-5.486148 -0.87661,-0.541775 -1.16382,-0.574221 -3.76633,-0.425477 -1.54954,0.08856 -4.00797,0.348021 -5.46318,0.576573 -1.45521,0.228552 -3.53226,0.5305 -4.61568,0.670994 -1.29791,0.168309 -2.50335,0.533106 -3.53388,1.06944 -0.86023,0.447697 -1.48482,0.6858 -1.38798,0.529117 0.60384,-0.977037 -2.22085,0.893682 -2.88889,1.913232 -0.22383,0.341612 -0.53249,1.300123 -0.6859,2.130023 -0.15342,0.8299 -0.57947,2.307336 -0.94678,3.28319 -1.26954,3.372848 -1.09461,8.165029 0.41453,11.356098 0.42219,0.892717 1.54656,2.430555 2.63661,3.60618 1.04529,1.127345 1.8359,2.154278 1.75692,2.282073 -0.17062,0.276068 -3.02763,-0.350957 -4.08092,-0.895635 -0.97233,-0.502814 -3.72964,-3.493384 -3.74814,-4.065227 -0.0437,-1.349242 0.0922,-20.763802 0.15303,-21.876366 0.0692,-1.264271 0.10972,-1.327931 0.95903,-1.505407 0.48774,-0.101921 1.72024,-0.248579 2.73889,-0.325906 6.35515,-0.482429 11.98052,-0.965583 12.43541,-1.068058 1.21037,-0.272663 16.135642,-1.741024 16.454202,-1.618779 0.28389,0.108939 0.34684,7.196866 0.34684,39.052541 0,28.31779 0.0811,39.076873 0.29775,39.497363 0.65263,1.26672 2.40138,3.30462 3.53327,4.11748 1.97757,1.42018 1.56715,1.83502 -1.69396,1.71219 l -1.6994,-0.064 z"
       id="path195" /><path
       style="fill:#000000"
       d="m 77.176518,115.76469 c -0.66763,-0.38634 -1.68561,-1.07095 -2.26218,-1.52136 l -1.04831,-0.81891 1.1806,-0.17883 c 0.64933,-0.0984 1.91343,-0.18765 2.80911,-0.19843 l 1.6285,-0.0196 0.67135,1.14558 c 0.36925,0.63006 0.87649,1.31467 1.12721,1.52135 0.4137,0.34104 0.36007,0.39066 -0.58006,0.53667 -1.89709,0.29465 -2.30399,0.24082 -3.52622,-0.46645 z"
       id="path194" /><path
       style="fill:#000000"
       d="m 84.112778,115.53273 c -0.35927,-0.43197 -0.94459,-1.12911 -1.30071,-1.5492 -0.35613,-0.42009 -0.61418,-0.79088 -0.57346,-0.82398 0.1529,-0.12425 16.49236,-0.32989 16.80894,-0.21154 0.1819,0.068 0.33073,0.24361 0.33073,0.39025 0,0.14664 0.41671,0.75347 0.926042,1.3485 0.50932,0.59502 0.92604,1.17572 0.92604,1.29043 0,0.24493 -4.181272,0.37602 -11.341032,0.35557 l -5.12333,-0.0146 z"
       id="path193" /><path
       style="fill:#000000"
       d="m 111.75762,116.08692 c -0.45022,-0.19665 -0.52981,-0.36736 -0.86202,-1.84881 -0.15974,-0.71236 -0.13665,-0.74388 0.29079,-0.39687 0.25536,0.20731 0.38934,0.25149 0.29772,0.0982 -0.10225,-0.17111 0.17182,-0.28835 0.70966,-0.3036 1.00421,-0.0285 2.00117,-0.48838 2.00117,-0.92316 0,-0.17044 -0.19923,-0.11598 -0.46906,0.12821 -0.26956,0.24395 -0.61031,0.3372 -0.80116,0.21925 -0.18265,-0.11288 -0.83477,-0.18168 -1.44916,-0.15288 -1.77546,0.0832 -3.65309,-1.32877 -4.60721,-3.46465 -0.45516,-1.01891 -0.47739,-2.99025 -0.4537,-40.21667 l 0.0249,-39.145239 0.6033,-1.190625 c 0.33181,-0.654844 1.11416,-1.793093 1.73855,-2.529442 l 1.13525,-1.338818 2.73445,-0.316332 c 3.68677,-0.4265 3.63816,-0.439156 2.39631,0.623823 -0.65404,0.559834 -1.44553,1.649021 -1.96586,2.705258 l -0.871,1.768112 -0.14874,9.267136 c -0.0818,5.096925 -0.1711,9.296903 -0.19844,9.333283 -0.0273,0.03638 -0.13899,0.04403 -0.24814,0.01699 -0.4918,-0.121823 -3.49114,0.387871 -3.37626,0.573747 0.20663,0.334338 1.81275,0.492439 2.31793,0.22817 0.30455,-0.159314 0.46302,-0.144502 0.46302,0.04328 0,0.15702 0.20836,0.250506 0.46302,0.207746 0.43839,-0.07361 0.46547,1.460105 0.50907,28.829257 0.0352,22.113784 0.12279,29.139874 0.37263,29.897914 0.71587,2.17213 2.14777,4.34341 3.37948,5.12454 l 1.20024,0.76117 h 19.16489 19.16487 l -1.02657,1.18638 -1.02657,1.18637 -20.50521,-0.0869 c -11.27786,-0.0478 -20.70903,-0.17596 -20.95815,-0.28478 z"
       id="path192" /></g></svg>
